<svg version="1.1" viewBox="0.0 0.0 600.0 371.0" fill="none" stroke="none" stroke-linecap="square" stroke-miterlimit="10" width="600" height="371" xmlns:xlink="http://www.w3.org/1999/xlink" xmlns="http://www.w3.org/2000/svg"><path fill="#ffffff" d="M0 0L600.0 0L600.0 371.0L0 371.0L0 0Z" fill-rule="nonzero"/><path stroke="#cccccc" stroke-width="1.0" stroke-linecap="butt" d="M196.5 61.5L196.5 300.5" fill-rule="nonzero"/><path stroke="#cccccc" stroke-width="1.0" stroke-linecap="butt" d="M324.5 61.5L324.5 300.5" fill-rule="nonzero"/><path stroke="#cccccc" stroke-width="1.0" stroke-linecap="butt" d="M453.5 61.5L453.5 300.5" fill-rule="nonzero"/><path stroke="#cccccc" stroke-width="1.0" stroke-linecap="butt" d="M581.5 61.5L581.5 300.5" fill-rule="nonzero"/><path stroke="#333333" stroke-width="1.0" stroke-linecap="butt" d="M84.5 300.5L581.5 300.5" fill-rule="nonzero"/><path stroke="#cccccc" stroke-width="1.0" stroke-linecap="butt" d="M84.5 252.5L581.5 252.5" fill-rule="nonzero"/><path stroke="#cccccc" stroke-width="1.0" stroke-linecap="butt" d="M84.5 205.5L581.5 205.5" fill-rule="nonzero"/><path stroke="#cccccc" stroke-width="1.0" stroke-linecap="butt" d="M84.5 157.5L581.5 157.5" fill-rule="nonzero"/><path stroke="#cccccc" stroke-width="1.0" stroke-linecap="butt" d="M84.5 109.5L581.5 109.5" fill-rule="nonzero"/><path stroke="#cccccc" stroke-width="1.0" stroke-linecap="butt" d="M84.5 61.5L581.5 61.5" fill-rule="nonzero"/><clipPath id="id_0"><path d="M84.55 61.916668L581.45 61.916668L581.45 300.45L84.55 300.45L84.55 61.916668Z" clip-rule="nonzero"/></clipPath><path stroke="#4285f4" stroke-width="2.0" stroke-linecap="butt" clip-path="url(#id_0)" d="M84.55 188.32025L100.57903 87.6401L132.6371 77.48812L196.75322 75.827934L324.98547 105.13891L581.45 133.05685" fill-rule="nonzero"/><path fill="#000000" fill-opacity="0.0" clip-path="url(#id_0)" d="M87.55 188.32025C87.55 189.97711 86.206856 191.32025 84.55 191.32025C82.89314 191.32025 81.55 189.97711 81.55 188.32025C81.55 186.66339 82.89314 185.32025 84.55 185.32025C86.206856 185.32025 87.55 186.66339 87.55 188.32025Z" fill-rule="nonzero"/><path fill="#000000" fill-opacity="0.0" clip-path="url(#id_0)" d="M103.57903 87.6401C103.57903 89.29696 102.235886 90.6401 100.57903 90.6401C98.92218 90.6401 97.57903 89.29696 97.57903 87.6401C97.57903 85.983246 98.92218 84.6401 100.57903 84.6401C102.235886 84.6401 103.57903 85.983246 103.57903 87.6401Z" fill-rule="nonzero"/><path fill="#000000" fill-opacity="0.0" clip-path="url(#id_0)" d="M135.6371 77.48812C135.6371 79.14497 134.29395 80.48812 132.6371 80.48812C130.98024 80.48812 129.6371 79.14497 129.6371 77.48812C129.6371 75.83127 130.98024 74.48812 132.6371 74.48812C134.29395 74.48812 135.6371 75.83127 135.6371 77.48812Z" fill-rule="nonzero"/><path fill="#000000" fill-opacity="0.0" clip-path="url(#id_0)" d="M199.75322 75.827934C199.75322 77.48479 198.41008 78.827934 196.75322 78.827934C195.09637 78.827934 193.75322 77.48479 193.75322 75.827934C193.75322 74.171074 195.09637 72.827934 196.75322 72.827934C198.41008 72.827934 199.75322 74.171074 199.75322 75.827934Z" fill-rule="nonzero"/><path fill="#000000" fill-opacity="0.0" clip-path="url(#id_0)" d="M327.98547 105.13891C327.98547 106.79576 326.64233 108.13891 324.98547 108.13891C323.32864 108.13891 321.98547 106.79576 321.98547 105.13891C321.98547 103.482056 323.32864 102.13891 324.98547 102.13891C326.64233 102.13891 327.98547 103.482056 327.98547 105.13891Z" fill-rule="nonzero"/><path fill="#000000" fill-opacity="0.0" clip-path="url(#id_0)" d="M584.45 133.05685C584.45 134.7137 583.1069 136.05685 581.45 136.05685C579.79315 136.05685 578.45 134.7137 578.45 133.05685C578.45 131.4 579.79315 130.05685 581.45 130.05685C583.1069 130.05685 584.45 131.4 584.45 133.05685Z" fill-rule="nonzero"/><path fill="#000000" d="M234.5625 346.4344L235.6875 346.73126Q235.32812 348.1219 234.40625 348.85626Q233.48438 349.59064 232.14062 349.59064Q230.75 349.59064 229.875 349.02814Q229.0 348.46564 228.54688 347.40314Q228.09375 346.325 228.09375 345.09064Q228.09375 343.7469 228.60938 342.7469Q229.125 341.7469 230.0625 341.23126Q231.01562 340.71564 232.15625 340.71564Q233.4375 340.71564 234.3125 341.3719Q235.20312 342.02814 235.54688 343.21564L234.42188 343.48126Q234.125 342.54376 233.54688 342.1219Q232.98438 341.6844 232.125 341.6844Q231.14062 341.6844 230.46875 342.16876Q229.8125 342.6375 229.53125 343.4344Q229.26562 344.23126 229.26562 345.09064Q229.26562 346.1844 229.57812 346.9969Q229.90625 347.8094 230.57812 348.21564Q231.25 348.6219 232.04688 348.6219Q233.0 348.6219 233.65625 348.075Q234.32812 347.52814 234.5625 346.4344ZM241.54688 347.45L242.64062 347.575Q242.39062 348.52814 241.6875 349.0594Q240.98438 349.59064 239.90625 349.59064Q238.54688 349.59064 237.73438 348.7469Q236.9375 347.90314 236.9375 346.3875Q236.9375 344.825 237.75 343.96564Q238.5625 343.09064 239.84375 343.09064Q241.09375 343.09064 241.875 343.9344Q242.67188 344.77814 242.67188 346.325Q242.67188 346.41876 242.67188 346.60626L238.03125 346.60626Q238.09375 347.6375 238.60938 348.1844Q239.125 348.71564 239.90625 348.71564Q240.48438 348.71564 240.89062 348.41876Q241.3125 348.10626 241.54688 347.45ZM238.09375 345.7469L241.5625 345.7469Q241.5 344.95 241.17188 344.5594Q240.65625 343.95 239.85938 343.95Q239.125 343.95 238.625 344.4344Q238.14062 344.91876 238.09375 345.7469ZM244.26562 349.45L244.26562 340.85626L245.32812 340.85626L245.32812 349.45L244.26562 349.45ZM247.26562 349.45L247.26562 340.85626L248.32812 340.85626L248.32812 349.45L247.26562 349.45ZM254.92188 349.45L252.64062 340.85626L253.8125 340.85626L255.125 346.4969Q255.32812 347.3719 255.48438 348.2469Q255.8125 346.8719 255.875 346.65314L257.5 340.85626L258.875 340.85626L260.10938 345.2Q260.5625 346.825 260.78125 348.2469Q260.9375 347.4344 261.20312 346.3719L262.54688 340.85626L263.6875 340.85626L261.34375 349.45L260.23438 349.45L258.4375 342.90314Q258.20312 342.09064 258.15625 341.90314Q258.03125 342.48126 257.90625 342.90314L256.09375 349.45L254.92188 349.45ZM264.29688 342.075L264.29688 340.85626L265.35938 340.85626L265.35938 342.075L264.29688 342.075ZM264.29688 349.45L264.29688 343.23126L265.35938 343.23126L265.35938 349.45L264.29688 349.45ZM271.32812 349.45L271.32812 348.66876Q270.73438 349.59064 269.59375 349.59064Q268.84375 349.59064 268.21875 349.1844Q267.59375 348.7625 267.25 348.02814Q266.90625 347.29376 266.90625 346.34064Q266.90625 345.41876 267.21875 344.65314Q267.53125 343.8875 268.15625 343.4969Q268.78125 343.09064 269.54688 343.09064Q270.10938 343.09064 270.54688 343.325Q270.98438 343.5594 271.26562 343.9344L271.26562 340.85626L272.3125 340.85626L272.3125 349.45L271.32812 349.45ZM268.0 346.34064Q268.0 347.54376 268.5 348.1375Q269.0 348.71564 269.6875 348.71564Q270.375 348.71564 270.85938 348.15314Q271.34375 347.59064 271.34375 346.4344Q271.34375 345.15314 270.84375 344.5594Q270.35938 343.96564 269.64062 343.96564Q268.9375 343.96564 268.46875 344.54376Q268.0 345.10626 268.0 346.34064ZM276.59375 348.5125L276.75 349.4344Q276.29688 349.52814 275.95312 349.52814Q275.375 349.52814 275.0625 349.35626Q274.75 349.16876 274.60938 348.8719Q274.48438 348.575 274.48438 347.6219L274.48438 344.04376L273.71875 344.04376L273.71875 343.23126L274.48438 343.23126L274.48438 341.6844L275.53125 341.0594L275.53125 343.23126L276.59375 343.23126L276.59375 344.04376L275.53125 344.04376L275.53125 347.6844Q275.53125 348.1375 275.57812 348.2625Q275.64062 348.3875 275.76562 348.46564Q275.89062 348.54376 276.125 348.54376Q276.3125 348.54376 276.59375 348.5125ZM277.29688 349.45L277.29688 340.85626L278.34375 340.85626L278.34375 343.9344Q279.07812 343.09064 280.20312 343.09064Q280.90625 343.09064 281.40625 343.3719Q281.92188 343.6375 282.14062 344.1219Q282.35938 344.59064 282.35938 345.5125L282.35938 349.45L281.3125 349.45L281.3125 345.5125Q281.3125 344.71564 280.96875 344.35626Q280.625 343.9969 280.0 343.9969Q279.53125 343.9969 279.10938 344.2469Q278.70312 344.48126 278.51562 344.90314Q278.34375 345.3094 278.34375 346.04376L278.34375 349.45L277.29688 349.45ZM289.3125 351.98126Q288.4375 350.8719 287.82812 349.40314Q287.23438 347.91876 287.23438 346.34064Q287.23438 344.95 287.67188 343.66876Q288.20312 342.1844 289.3125 340.71564L290.0625 340.71564Q289.35938 341.9344 289.125 342.45Q288.76562 343.2625 288.5625 344.1375Q288.3125 345.23126 288.3125 346.34064Q288.3125 349.16876 290.0625 351.98126L289.3125 351.98126ZM292.4375 349.45L290.53125 343.23126L291.625 343.23126L292.60938 346.825L292.98438 348.15314Q293.01562 348.0594 293.3125 346.8719L294.29688 343.23126L295.375 343.23126L296.3125 346.84064L296.625 348.02814L296.98438 346.825L298.04688 343.23126L299.07812 343.23126L297.125 349.45L296.03125 349.45L295.04688 345.71564L294.79688 344.66876L293.54688 349.45L292.4375 349.45ZM300.59375 349.45L300.59375 348.2469L301.79688 348.2469L301.79688 349.45L300.59375 349.45ZM303.28125 349.45L303.28125 343.23126L304.23438 343.23126L304.23438 344.16876Q304.59375 343.5125 304.89062 343.3094Q305.20312 343.09064 305.57812 343.09064Q306.10938 343.09064 306.65625 343.41876L306.29688 344.40314Q305.90625 344.16876 305.53125 344.16876Q305.17188 344.16876 304.89062 344.3875Q304.625 344.59064 304.51562 344.96564Q304.32812 345.52814 304.32812 346.1844L304.32812 349.45L303.28125 349.45ZM307.59375 349.45L307.59375 348.2469L308.79688 348.2469L308.79688 349.45L307.59375 349.45ZM312.59375 348.5125L312.75 349.4344Q312.29688 349.52814 311.95312 349.52814Q311.375 349.52814 311.0625 349.35626Q310.75 349.16876 310.60938 348.8719Q310.48438 348.575 310.48438 347.6219L310.48438 344.04376L309.71875 344.04376L309.71875 343.23126L310.48438 343.23126L310.48438 341.6844L311.53125 341.0594L311.53125 343.23126L312.59375 343.23126L312.59375 344.04376L311.53125 344.04376L311.53125 347.6844Q311.53125 348.1375 311.57812 348.2625Q311.64062 348.3875 311.76562 348.46564Q311.89062 348.54376 312.125 348.54376Q312.3125 348.54376 312.59375 348.5125ZM313.59375 349.45L313.59375 348.2469L314.79688 348.2469L314.79688 349.45L313.59375 349.45ZM319.375 349.45L319.375 340.85626L322.60938 340.85626Q323.59375 340.85626 324.1875 341.1219Q324.78125 341.3875 325.10938 341.9344Q325.45312 342.46564 325.45312 343.0594Q325.45312 343.60626 325.15625 344.09064Q324.85938 344.575 324.25 344.8719Q325.03125 345.10626 325.4375 345.66876Q325.85938 346.21564 325.85938 346.96564Q325.85938 347.5594 325.60938 348.09064Q325.35938 348.60626 324.98438 348.8875Q324.60938 349.16876 324.03125 349.3094Q323.46875 349.45 322.65625 349.45L319.375 349.45ZM320.51562 344.46564L322.375 344.46564Q323.125 344.46564 323.45312 344.3719Q323.89062 344.2469 324.10938 343.95Q324.32812 343.6375 324.32812 343.1844Q324.32812 342.7625 324.125 342.4344Q323.92188 342.10626 323.53125 341.9969Q323.15625 341.8719 322.23438 341.8719L320.51562 341.8719L320.51562 344.46564ZM320.51562 348.4344L322.65625 348.4344Q323.20312 348.4344 323.42188 348.3875Q323.82812 348.325 324.07812 348.16876Q324.34375 347.9969 324.51562 347.6844Q324.6875 347.3719 324.6875 346.96564Q324.6875 346.48126 324.4375 346.1219Q324.20312 345.7625 323.76562 345.6219Q323.32812 345.48126 322.5 345.48126L320.51562 345.48126L320.51562 348.4344ZM326.90625 346.34064Q326.90625 344.60626 327.85938 343.77814Q328.65625 343.09064 329.8125 343.09064Q331.09375 343.09064 331.90625 343.9344Q332.73438 344.7625 332.73438 346.2469Q332.73438 347.45 332.375 348.1375Q332.01562 348.825 331.3125 349.21564Q330.625 349.59064 329.8125 349.59064Q328.51562 349.59064 327.70312 348.7625Q326.90625 347.91876 326.90625 346.34064ZM327.98438 346.34064Q327.98438 347.52814 328.5 348.1219Q329.03125 348.71564 329.8125 348.71564Q330.60938 348.71564 331.125 348.1219Q331.64062 347.52814 331.64062 346.3094Q331.64062 345.15314 331.10938 344.5594Q330.59375 343.96564 329.8125 343.96564Q329.03125 343.96564 328.5 344.5594Q327.98438 345.1375 327.98438 346.34064ZM334.29688 342.075L334.29688 340.85626L335.35938 340.85626L335.35938 342.075L334.29688 342.075ZM334.29688 349.45L334.29688 343.23126L335.35938 343.23126L335.35938 349.45L334.29688 349.45ZM341.32812 349.45L341.32812 348.66876Q340.73438 349.59064 339.59375 349.59064Q338.84375 349.59064 338.21875 349.1844Q337.59375 348.7625 337.25 348.02814Q336.90625 347.29376 336.90625 346.34064Q336.90625 345.41876 337.21875 344.65314Q337.53125 343.8875 338.15625 343.4969Q338.78125 343.09064 339.54688 343.09064Q340.10938 343.09064 340.54688 343.325Q340.98438 343.5594 341.26562 343.9344L341.26562 340.85626L342.3125 340.85626L342.3125 349.45L341.32812 349.45ZM338.0 346.34064Q338.0 347.54376 338.5 348.1375Q339.0 348.71564 339.6875 348.71564Q340.375 348.71564 340.85938 348.15314Q341.34375 347.59064 341.34375 346.4344Q341.34375 345.15314 340.84375 344.5594Q340.35938 343.96564 339.64062 343.96564Q338.9375 343.96564 338.46875 344.54376Q338.0 345.10626 338.0 346.34064ZM346.875 347.59064L347.90625 347.4344Q348.0 348.0594 348.39062 348.3875Q348.79688 348.71564 349.53125 348.71564Q350.25 348.71564 350.59375 348.4344Q350.95312 348.1375 350.95312 347.73126Q350.95312 347.3719 350.64062 347.16876Q350.42188 347.02814 349.5625 346.8094Q348.40625 346.5125 347.95312 346.3094Q347.51562 346.09064 347.28125 345.71564Q347.04688 345.34064 347.04688 344.8719Q347.04688 344.46564 347.23438 344.10626Q347.42188 343.7469 347.75 343.5125Q348.0 343.34064 348.42188 343.21564Q348.84375 343.09064 349.34375 343.09064Q350.0625 343.09064 350.60938 343.3094Q351.17188 343.5125 351.4375 343.8719Q351.70312 344.23126 351.79688 344.825L350.76562 344.96564Q350.70312 344.4969 350.35938 344.23126Q350.03125 343.95 349.40625 343.95Q348.6875 343.95 348.375 344.2Q348.0625 344.4344 348.0625 344.7625Q348.0625 344.96564 348.1875 345.1219Q348.32812 345.29376 348.59375 345.40314Q348.75 345.46564 349.53125 345.66876Q350.65625 345.98126 351.09375 346.16876Q351.53125 346.35626 351.78125 346.71564Q352.03125 347.075 352.03125 347.6219Q352.03125 348.15314 351.71875 348.6219Q351.42188 349.075 350.84375 349.34064Q350.26562 349.59064 349.53125 349.59064Q348.3125 349.59064 347.67188 349.09064Q347.04688 348.575 346.875 347.59064ZM358.54688 347.45L359.64062 347.575Q359.39062 348.52814 358.6875 349.0594Q357.98438 349.59064 356.90625 349.59064Q355.54688 349.59064 354.73438 348.7469Q353.9375 347.90314 353.9375 346.3875Q353.9375 344.825 354.75 343.96564Q355.5625 343.09064 356.84375 343.09064Q358.09375 343.09064 358.875 343.9344Q359.67188 344.77814 359.67188 346.325Q359.67188 346.41876 359.67188 346.60626L355.03125 346.60626Q355.09375 347.6375 355.60938 348.1844Q356.125 348.71564 356.90625 348.71564Q357.48438 348.71564 357.89062 348.41876Q358.3125 348.10626 358.54688 347.45ZM355.09375 345.7469L358.5625 345.7469Q358.5 344.95 358.17188 344.5594Q357.65625 343.95 356.85938 343.95Q356.125 343.95 355.625 344.4344Q355.14062 344.91876 355.09375 345.7469ZM365.35938 348.6844Q364.76562 349.1844 364.21875 349.3875Q363.6875 349.59064 363.0625 349.59064Q362.03125 349.59064 361.48438 349.09064Q360.9375 348.59064 360.9375 347.8094Q360.9375 347.35626 361.14062 346.98126Q361.34375 346.59064 361.6875 346.3719Q362.03125 346.1375 362.45312 346.02814Q362.75 345.9344 363.39062 345.85626Q364.65625 345.71564 365.26562 345.4969Q365.26562 345.27814 365.26562 345.23126Q365.26562 344.575 364.96875 344.3094Q364.5625 343.96564 363.76562 343.96564Q363.03125 343.96564 362.67188 344.23126Q362.3125 344.48126 362.14062 345.1375L361.10938 344.9969Q361.25 344.34064 361.57812 343.9344Q361.90625 343.52814 362.51562 343.3094Q363.125 343.09064 363.92188 343.09064Q364.71875 343.09064 365.21875 343.27814Q365.71875 343.46564 365.95312 343.7469Q366.1875 344.02814 366.28125 344.46564Q366.32812 344.73126 366.32812 345.4344L366.32812 346.84064Q366.32812 348.3094 366.39062 348.7Q366.46875 349.09064 366.67188 349.45L365.5625 349.45Q365.40625 349.1219 365.35938 348.6844ZM365.26562 346.325Q364.6875 346.5594 363.54688 346.73126Q362.89062 346.825 362.625 346.95Q362.35938 347.0594 362.20312 347.27814Q362.0625 347.4969 362.0625 347.77814Q362.0625 348.2 362.375 348.48126Q362.70312 348.7625 363.3125 348.7625Q363.92188 348.7625 364.39062 348.4969Q364.875 348.23126 365.09375 347.7625Q365.26562 347.40314 365.26562 346.71564L365.26562 346.325ZM368.28125 349.45L368.28125 343.23126L369.23438 343.23126L369.23438 344.16876Q369.59375 343.5125 369.89062 343.3094Q370.20312 343.09064 370.57812 343.09064Q371.10938 343.09064 371.65625 343.41876L371.29688 344.40314Q370.90625 344.16876 370.53125 344.16876Q370.17188 344.16876 369.89062 344.3875Q369.625 344.59064 369.51562 344.96564Q369.32812 345.52814 369.32812 346.1844L369.32812 349.45L368.28125 349.45ZM376.35938 347.16876L377.39062 347.3094Q377.21875 348.3719 376.51562 348.98126Q375.8125 349.59064 374.79688 349.59064Q373.51562 349.59064 372.73438 348.7625Q371.96875 347.91876 371.96875 346.35626Q371.96875 345.35626 372.29688 344.60626Q372.64062 343.84064 373.3125 343.46564Q374.0 343.09064 374.8125 343.09064Q375.8125 343.09064 376.45312 343.60626Q377.10938 344.10626 377.29688 345.0594L376.26562 345.21564Q376.125 344.59064 375.75 344.27814Q375.375 343.95 374.84375 343.95Q374.04688 343.95 373.54688 344.52814Q373.04688 345.09064 373.04688 346.325Q373.04688 347.59064 373.53125 348.15314Q374.01562 348.71564 374.78125 348.71564Q375.40625 348.71564 375.8125 348.34064Q376.23438 347.96564 376.35938 347.16876ZM378.29688 349.45L378.29688 340.85626L379.34375 340.85626L379.34375 343.9344Q380.07812 343.09064 381.20312 343.09064Q381.90625 343.09064 382.40625 343.3719Q382.92188 343.6375 383.14062 344.1219Q383.35938 344.59064 383.35938 345.5125L383.35938 349.45L382.3125 349.45L382.3125 345.5125Q382.3125 344.71564 381.96875 344.35626Q381.625 343.9969 381.0 343.9969Q380.53125 343.9969 380.10938 344.2469Q379.70312 344.48126 379.51562 344.90314Q379.34375 345.3094 379.34375 346.04376L379.34375 349.45L378.29688 349.45ZM392.32812 349.45L392.32812 348.66876Q391.73438 349.59064 390.59375 349.59064Q389.84375 349.59064 389.21875 349.1844Q388.59375 348.7625 388.25 348.02814Q387.90625 347.29376 387.90625 346.34064Q387.90625 345.41876 388.21875 344.65314Q388.53125 343.8875 389.15625 343.4969Q389.78125 343.09064 390.54688 343.09064Q391.10938 343.09064 391.54688 343.325Q391.98438 343.5594 392.26562 343.9344L392.26562 340.85626L393.3125 340.85626L393.3125 349.45L392.32812 349.45ZM389.0 346.34064Q389.0 347.54376 389.5 348.1375Q390.0 348.71564 390.6875 348.71564Q391.375 348.71564 391.85938 348.15314Q392.34375 347.59064 392.34375 346.4344Q392.34375 345.15314 391.84375 344.5594Q391.35938 343.96564 390.64062 343.96564Q389.9375 343.96564 389.46875 344.54376Q389.0 345.10626 389.0 346.34064ZM395.29688 342.075L395.29688 340.85626L396.35938 340.85626L396.35938 342.075L395.29688 342.075ZM395.29688 349.45L395.29688 343.23126L396.35938 343.23126L396.35938 349.45L395.29688 349.45ZM397.875 347.59064L398.90625 347.4344Q399.0 348.0594 399.39062 348.3875Q399.79688 348.71564 400.53125 348.71564Q401.25 348.71564 401.59375 348.4344Q401.95312 348.1375 401.95312 347.73126Q401.95312 347.3719 401.64062 347.16876Q401.42188 347.02814 400.5625 346.8094Q399.40625 346.5125 398.95312 346.3094Q398.51562 346.09064 398.28125 345.71564Q398.04688 345.34064 398.04688 344.8719Q398.04688 344.46564 398.23438 344.10626Q398.42188 343.7469 398.75 343.5125Q399.0 343.34064 399.42188 343.21564Q399.84375 343.09064 400.34375 343.09064Q401.0625 343.09064 401.60938 343.3094Q402.17188 343.5125 402.4375 343.8719Q402.70312 344.23126 402.79688 344.825L401.76562 344.96564Q401.70312 344.4969 401.35938 344.23126Q401.03125 343.95 400.40625 343.95Q399.6875 343.95 399.375 344.2Q399.0625 344.4344 399.0625 344.7625Q399.0625 344.96564 399.1875 345.1219Q399.32812 345.29376 399.59375 345.40314Q399.75 345.46564 400.53125 345.66876Q401.65625 345.98126 402.09375 346.16876Q402.53125 346.35626 402.78125 346.71564Q403.03125 347.075 403.03125 347.6219Q403.03125 348.15314 402.71875 348.6219Q402.42188 349.075 401.84375 349.34064Q401.26562 349.59064 400.53125 349.59064Q399.3125 349.59064 398.67188 349.09064Q398.04688 348.575 397.875 347.59064ZM407.59375 348.5125L407.75 349.4344Q407.29688 349.52814 406.95312 349.52814Q406.375 349.52814 406.0625 349.35626Q405.75 349.16876 405.60938 348.8719Q405.48438 348.575 405.48438 347.6219L405.48438 344.04376L404.71875 344.04376L404.71875 343.23126L405.48438 343.23126L405.48438 341.6844L406.53125 341.0594L406.53125 343.23126L407.59375 343.23126L407.59375 344.04376L406.53125 344.04376L406.53125 347.6844Q406.53125 348.1375 406.57812 348.2625Q406.64062 348.3875 406.76562 348.46564Q406.89062 348.54376 407.125 348.54376Q407.3125 348.54376 407.59375 348.5125ZM412.35938 348.6844Q411.76562 349.1844 411.21875 349.3875Q410.6875 349.59064 410.0625 349.59064Q409.03125 349.59064 408.48438 349.09064Q407.9375 348.59064 407.9375 347.8094Q407.9375 347.35626 408.14062 346.98126Q408.34375 346.59064 408.6875 346.3719Q409.03125 346.1375 409.45312 346.02814Q409.75 345.9344 410.39062 345.85626Q411.65625 345.71564 412.26562 345.4969Q412.26562 345.27814 412.26562 345.23126Q412.26562 344.575 411.96875 344.3094Q411.5625 343.96564 410.76562 343.96564Q410.03125 343.96564 409.67188 344.23126Q409.3125 344.48126 409.14062 345.1375L408.10938 344.9969Q408.25 344.34064 408.57812 343.9344Q408.90625 343.52814 409.51562 343.3094Q410.125 343.09064 410.92188 343.09064Q411.71875 343.09064 412.21875 343.27814Q412.71875 343.46564 412.95312 343.7469Q413.1875 344.02814 413.28125 344.46564Q413.32812 344.73126 413.32812 345.4344L413.32812 346.84064Q413.32812 348.3094 413.39062 348.7Q413.46875 349.09064 413.67188 349.45L412.5625 349.45Q412.40625 349.1219 412.35938 348.6844ZM412.26562 346.325Q411.6875 346.5594 410.54688 346.73126Q409.89062 346.825 409.625 346.95Q409.35938 347.0594 409.20312 347.27814Q409.0625 347.4969 409.0625 347.77814Q409.0625 348.2 409.375 348.48126Q409.70312 348.7625 410.3125 348.7625Q410.92188 348.7625 411.39062 348.4969Q411.875 348.23126 412.09375 347.7625Q412.26562 347.40314 412.26562 346.71564L412.26562 346.325ZM415.29688 349.45L415.29688 343.23126L416.23438 343.23126L416.23438 344.10626Q416.92188 343.09064 418.21875 343.09064Q418.78125 343.09064 419.25 343.29376Q419.73438 343.4969 419.96875 343.825Q420.20312 344.15314 420.29688 344.59064Q420.34375 344.8875 420.34375 345.6219L420.34375 349.45L419.29688 349.45L419.29688 345.66876Q419.29688 345.0125 419.17188 344.7Q419.04688 344.3875 418.73438 344.2Q418.42188 343.9969 418.0 343.9969Q417.32812 343.9969 416.82812 344.4344Q416.34375 344.85626 416.34375 346.04376L416.34375 349.45L415.29688 349.45ZM426.35938 347.16876L427.39062 347.3094Q427.21875 348.3719 426.51562 348.98126Q425.8125 349.59064 424.79688 349.59064Q423.51562 349.59064 422.73438 348.7625Q421.96875 347.91876 421.96875 346.35626Q421.96875 345.35626 422.29688 344.60626Q422.64062 343.84064 423.3125 343.46564Q424.0 343.09064 424.8125 343.09064Q425.8125 343.09064 426.45312 343.60626Q427.10938 344.10626 427.29688 345.0594L426.26562 345.21564Q426.125 344.59064 425.75 344.27814Q425.375 343.95 424.84375 343.95Q424.04688 343.95 423.54688 344.52814Q423.04688 345.09064 423.04688 346.325Q423.04688 347.59064 423.53125 348.15314Q424.01562 348.71564 424.78125 348.71564Q425.40625 348.71564 425.8125 348.34064Q426.23438 347.96564 426.35938 347.16876ZM432.54688 347.45L433.64062 347.575Q433.39062 348.52814 432.6875 349.0594Q431.98438 349.59064 430.90625 349.59064Q429.54688 349.59064 428.73438 348.7469Q427.9375 347.90314 427.9375 346.3875Q427.9375 344.825 428.75 343.96564Q429.5625 343.09064 430.84375 343.09064Q432.09375 343.09064 432.875 343.9344Q433.67188 344.77814 433.67188 346.325Q433.67188 346.41876 433.67188 346.60626L429.03125 346.60626Q429.09375 347.6375 429.60938 348.1844Q430.125 348.71564 430.90625 348.71564Q431.48438 348.71564 431.89062 348.41876Q432.3125 348.10626 432.54688 347.45ZM429.09375 345.7469L432.5625 345.7469Q432.5 344.95 432.17188 344.5594Q431.65625 343.95 430.85938 343.95Q430.125 343.95 429.625 344.4344Q429.14062 344.91876 429.09375 345.7469ZM435.98438 351.98126L435.23438 351.98126Q436.98438 349.16876 436.98438 346.34064Q436.98438 345.2469 436.73438 344.15314Q436.53125 343.27814 436.17188 342.46564Q435.9375 341.95 435.23438 340.71564L435.98438 340.71564Q437.07812 342.1844 437.60938 343.66876Q438.0625 344.95 438.0625 346.34064Q438.0625 347.91876 437.45312 349.40314Q436.84375 350.8719 435.98438 351.98126Z" fill-rule="nonzero"/><path fill="#000000" d="M29.550013 222.69896L20.956263 219.40208L20.956263 218.18333L29.550013 214.66771L29.550013 215.94896L26.940638 216.96458L26.940638 220.54271L29.550013 221.49583L29.550013 222.69896ZM26.018763 220.21458L26.018763 217.30833L23.643763 218.19896Q22.565638 218.62083 21.862513 218.80833Q22.690638 218.98021 23.503138 219.27708L26.018763 220.21458ZM29.550013 213.16771L23.331263 215.52708L23.331263 214.41771L27.050013 213.07396Q27.659388 212.87083 28.300013 212.68333Q27.815638 212.54271 27.128138 212.29271L23.331263 210.90208L23.331263 209.82396L29.550013 212.18333L29.550013 213.16771ZM27.550013 205.63646L27.675013 204.54271Q28.628138 204.79271 29.159388 205.49583Q29.690638 206.19896 29.690638 207.27708Q29.690638 208.63646 28.846888 209.44896Q28.003138 210.24583 26.487513 210.24583Q24.925013 210.24583 24.065638 209.43333Q23.190638 208.62083 23.190638 207.33958Q23.190638 206.08958 24.034388 205.30833Q24.878138 204.51146 26.425013 204.51146Q26.518763 204.51146 26.706263 204.51146L26.706263 209.15208Q27.737513 209.08958 28.284388 208.57396Q28.815638 208.05833 28.815638 207.27708Q28.815638 206.69896 28.518763 206.29271Q28.206263 205.87083 27.550013 205.63646ZM25.846888 209.08958L25.846888 205.62083Q25.050013 205.68333 24.659388 206.01146Q24.050013 206.52708 24.050013 207.32396Q24.050013 208.05833 24.534388 208.55833Q25.018763 209.04271 25.846888 209.08958ZM29.550013 202.90208L23.331263 202.90208L23.331263 201.94896L24.268763 201.94896Q23.612513 201.58958 23.409388 201.29271Q23.190638 200.98021 23.190638 200.60521Q23.190638 200.07396 23.518763 199.52708L24.503138 199.88646Q24.268763 200.27708 24.268763 200.65208Q24.268763 201.01146 24.487513 201.29271Q24.690638 201.55833 25.065638 201.66771Q25.628138 201.85521 26.284388 201.85521L29.550013 201.85521L29.550013 202.90208ZM28.784388 194.82396Q29.284388 195.41771 29.487513 195.96458Q29.690638 196.49583 29.690638 197.12083Q29.690638 198.15208 29.190638 198.69896Q28.690638 199.24583 27.909388 199.24583Q27.456263 199.24583 27.081263 199.04271Q26.690638 198.83958 26.471888 198.49583Q26.237513 198.15208 26.128138 197.73021Q26.034388 197.43333 25.956263 196.79271Q25.815638 195.52708 25.596888 194.91771Q25.378138 194.91771 25.331263 194.91771Q24.675013 194.91771 24.409388 195.21458Q24.065638 195.62083 24.065638 196.41771Q24.065638 197.15208 24.331263 197.51146Q24.581263 197.87083 25.237513 198.04271L25.096888 199.07396Q24.440638 198.93333 24.034388 198.60521Q23.628138 198.27708 23.409388 197.66771Q23.190638 197.05833 23.190638 196.26146Q23.190638 195.46458 23.378138 194.96458Q23.565638 194.46458 23.846888 194.23021Q24.128138 193.99583 24.565638 193.90208Q24.831263 193.85521 25.534388 193.85521L26.940638 193.85521Q28.409388 193.85521 28.800013 193.79271Q29.190638 193.71458 29.550013 193.51146L29.550013 194.62083Q29.221888 194.77708 28.784388 194.82396ZM26.425013 194.91771Q26.659388 195.49583 26.831263 196.63646Q26.925013 197.29271 27.050013 197.55833Q27.159388 197.82396 27.378138 197.98021Q27.596888 198.12083 27.878138 198.12083Q28.300013 198.12083 28.581263 197.80833Q28.862513 197.48021 28.862513 196.87083Q28.862513 196.26146 28.596888 195.79271Q28.331263 195.30833 27.862513 195.08958Q27.503138 194.91771 26.815638 194.91771L26.425013 194.91771ZM30.065638 192.08958L30.221888 191.05833Q30.690638 190.99583 30.909388 190.69896Q31.206263 190.30833 31.206263 189.63646Q31.206263 188.90208 30.909388 188.51146Q30.612513 188.10521 30.096888 187.96458Q29.768763 187.87083 28.737513 187.88646Q29.550013 188.57396 29.550013 189.60521Q29.550013 190.88646 28.628138 191.58958Q27.690638 192.29271 26.409388 192.29271Q25.518763 192.29271 24.768763 191.98021Q24.003138 191.65208 23.596888 191.04271Q23.190638 190.43333 23.190638 189.60521Q23.190638 188.49583 24.081263 187.77708L23.331263 187.77708L23.331263 186.80833L28.706263 186.80833Q30.159388 186.80833 30.768763 187.10521Q31.378138 187.40208 31.721888 188.04271Q32.08126 188.68333 32.08126 189.62083Q32.08126 190.73021 31.581263 191.41771Q31.081263 192.10521 30.065638 192.08958ZM26.331263 191.21458Q27.550013 191.21458 28.112513 190.73021Q28.675013 190.24583 28.675013 189.51146Q28.675013 188.77708 28.112513 188.29271Q27.550013 187.79271 26.362513 187.79271Q25.221888 187.79271 24.643763 188.30833Q24.065638 188.80833 24.065638 189.52708Q24.065638 190.23021 24.643763 190.73021Q25.206263 191.21458 26.331263 191.21458ZM27.550013 180.63646L27.675013 179.54271Q28.628138 179.79271 29.159388 180.49583Q29.690638 181.19896 29.690638 182.27708Q29.690638 183.63646 28.846888 184.44896Q28.003138 185.24583 26.487513 185.24583Q24.925013 185.24583 24.065638 184.43333Q23.190638 183.62083 23.190638 182.33958Q23.190638 181.08958 24.034388 180.30833Q24.878138 179.51146 26.425013 179.51146Q26.518763 179.51146 26.706263 179.51146L26.706263 184.15208Q27.737513 184.08958 28.284388 183.57396Q28.815638 183.05833 28.815638 182.27708Q28.815638 181.69896 28.518763 181.29271Q28.206263 180.87083 27.550013 180.63646ZM25.846888 184.08958L25.846888 180.62083Q25.050013 180.68333 24.659388 181.01146Q24.050013 181.52708 24.050013 182.32396Q24.050013 183.05833 24.534388 183.55833Q25.018763 184.04271 25.846888 184.08958ZM29.550013 174.69896L20.956263 174.69896L20.956263 168.90208L21.971888 168.90208L21.971888 173.55833L24.628138 173.55833L24.628138 169.52708L25.643763 169.52708L25.643763 173.55833L29.550013 173.55833L29.550013 174.69896ZM29.550013 167.76146L20.956263 167.76146L20.956263 164.51146Q20.956263 163.66771 21.034388 163.21458Q21.143763 162.57396 21.440638 162.15208Q21.737513 161.71458 22.268763 161.46458Q22.800013 161.19896 23.440638 161.19896Q24.534388 161.19896 25.300013 161.90208Q26.050013 162.58958 26.050013 164.41771L26.050013 166.62083L29.550013 166.62083L29.550013 167.76146ZM25.050013 166.62083L25.050013 164.40208Q25.050013 163.29271 24.643763 162.83958Q24.221888 162.37083 23.471888 162.37083Q22.940638 162.37083 22.565638 162.65208Q22.175013 162.91771 22.050013 163.35521Q21.971888 163.65208 21.971888 164.41771L21.971888 166.62083L25.050013 166.62083ZM26.784388 160.13646L26.690638 159.07396Q27.346888 158.99583 27.753138 158.71458Q28.159388 158.43333 28.425013 157.85521Q28.675013 157.26146 28.675013 156.52708Q28.675013 155.88646 28.487513 155.38646Q28.284388 154.88646 27.956263 154.65208Q27.612513 154.40208 27.221888 154.40208Q26.815638 154.40208 26.518763 154.63646Q26.206263 154.87083 26.003138 155.40208Q25.862513 155.76146 25.581263 156.94896Q25.300013 158.12083 25.050013 158.58958Q24.721888 159.21458 24.253138 159.51146Q23.768763 159.80833 23.175013 159.80833Q22.534388 159.80833 21.971888 159.44896Q21.393763 159.07396 21.112513 158.37083Q20.815638 157.65208 20.815638 156.79271Q20.815638 155.83958 21.128138 155.10521Q21.425013 154.37083 22.034388 153.98021Q22.628138 153.58958 23.378138 153.55833L23.456263 154.65208Q22.643763 154.74583 22.237513 155.26146Q21.815638 155.76146 21.815638 156.74583Q21.815638 157.77708 22.190638 158.24583Q22.565638 158.71458 23.096888 158.71458Q23.565638 158.71458 23.862513 158.38646Q24.159388 158.05833 24.471888 156.68333Q24.784388 155.29271 25.018763 154.77708Q25.378138 154.02708 25.909388 153.66771Q26.425013 153.30833 27.128138 153.30833Q27.815638 153.30833 28.425013 153.69896Q29.018763 154.08958 29.362513 154.82396Q29.690638 155.55833 29.690638 156.48021Q29.690638 157.65208 29.362513 158.44896Q29.018763 159.23021 28.331263 159.68333Q27.643763 160.12083 26.784388 160.13646Z" fill-rule="nonzero"/><path fill="#000000" d="M72.05 300.21564Q72.05 298.6844 72.3625 297.7625Q72.675 296.825 73.28438 296.325Q73.90938 295.825 74.84688 295.825Q75.53438 295.825 76.05 296.10626Q76.58125 296.3875 76.925 296.91876Q77.26875 297.4344 77.45625 298.1844Q77.64375 298.9344 77.64375 300.21564Q77.64375 301.73126 77.33125 302.65314Q77.03438 303.575 76.40938 304.09064Q75.8 304.59064 74.84688 304.59064Q73.6125 304.59064 72.89375 303.7Q72.05 302.6375 72.05 300.21564ZM73.12813 300.21564Q73.12813 302.325 73.62813 303.02814Q74.12813 303.73126 74.84688 303.73126Q75.58125 303.73126 76.06563 303.02814Q76.56563 302.325 76.56563 300.21564Q76.56563 298.09064 76.06563 297.40314Q75.58125 296.7 74.83125 296.7Q74.1125 296.7 73.675 297.3094Q73.12813 298.09064 73.12813 300.21564Z" fill-rule="nonzero"/><path fill="#000000" d="M63.596874 255.72772L63.596874 256.74335L57.909374 256.74335Q57.909374 256.36835 58.034374 256.00897Q58.253124 255.43085 58.721874 254.86835Q59.20625 254.30585 60.1125 253.57147Q61.51875 252.41522 62.003124 251.74335Q62.503124 251.07147 62.503124 250.47772Q62.503124 249.85272 62.05 249.43085Q61.596874 248.99335 60.878124 248.99335Q60.1125 248.99335 59.659374 249.44647Q59.20625 249.8996 59.190624 250.7121L58.1125 250.60272Q58.221874 249.38397 58.940624 248.75897Q59.675 248.11835 60.909374 248.11835Q62.14375 248.11835 62.8625 248.80585Q63.58125 249.49335 63.58125 250.50897Q63.58125 251.0246 63.3625 251.5246Q63.159374 252.00897 62.659374 252.57147Q62.175 253.11835 61.05 254.07147Q60.096874 254.86835 59.815624 255.16522Q59.55 255.44647 59.378124 255.72772L63.596874 255.72772ZM65.05 254.49335L66.15938 254.3996Q66.28438 255.2121 66.72188 255.61835Q67.175 256.0246 67.81563 256.0246Q68.56563 256.0246 69.09688 255.44647Q69.62813 254.86835 69.62813 253.93085Q69.62813 253.0246 69.1125 252.50897Q68.6125 251.97772 67.78438 251.97772Q67.28438 251.97772 66.8625 252.2121Q66.45625 252.44647 66.22188 252.80585L65.2375 252.68085L66.06563 248.2746L70.34688 248.2746L70.34688 249.2746L66.90938 249.2746L66.45625 251.5871Q67.22188 251.04022 68.06563 251.04022Q69.19063 251.04022 69.95625 251.82147Q70.7375 252.60272 70.7375 253.8371Q70.7375 254.99335 70.06563 255.85272Q69.2375 256.88397 67.81563 256.88397Q66.64375 256.88397 65.89375 256.22772Q65.15938 255.57147 65.05 254.49335ZM72.05 252.50897Q72.05 250.97772 72.3625 250.05585Q72.675 249.11835 73.28438 248.61835Q73.90938 248.11835 74.84688 248.11835Q75.53438 248.11835 76.05 248.3996Q76.58125 248.68085 76.925 249.2121Q77.26875 249.72772 77.45625 250.47772Q77.64375 251.22772 77.64375 252.50897Q77.64375 254.0246 77.33125 254.94647Q77.03438 255.86835 76.40938 256.38397Q75.8 256.88397 74.84688 256.88397Q73.6125 256.88397 72.89375 255.99335Q72.05 254.93085 72.05 252.50897ZM73.12813 252.50897Q73.12813 254.61835 73.62813 255.32147Q74.12813 256.0246 74.84688 256.0246Q75.58125 256.0246 76.06563 255.32147Q76.56563 254.61835 76.56563 252.50897Q76.56563 250.38397 76.06563 249.69647Q75.58125 248.99335 74.83125 248.99335Q74.1125 248.99335 73.675 249.60272Q73.12813 250.38397 73.12813 252.50897Z" fill-rule="nonzero"/><path fill="#000000" d="M58.05 206.78667L59.159374 206.69292Q59.284374 207.50542 59.721874 207.91167Q60.175 208.31792 60.815624 208.31792Q61.565624 208.31792 62.096874 207.73979Q62.628124 207.16167 62.628124 206.22417Q62.628124 205.31792 62.1125 204.80229Q61.6125 204.27104 60.784374 204.27104Q60.284374 204.27104 59.8625 204.50542Q59.45625 204.73979 59.221874 205.09917L58.2375 204.97417L59.065624 200.56792L63.346874 200.56792L63.346874 201.56792L59.909374 201.56792L59.45625 203.88042Q60.221874 203.33354 61.065624 203.33354Q62.190624 203.33354 62.95625 204.11479Q63.7375 204.89604 63.7375 206.13042Q63.7375 207.28667 63.065624 208.14604Q62.2375 209.17729 60.815624 209.17729Q59.64375 209.17729 58.89375 208.52104Q58.159374 207.86479 58.05 206.78667ZM65.05 204.80229Q65.05 203.27104 65.3625 202.34917Q65.675 201.41167 66.28438 200.91167Q66.90938 200.41167 67.84688 200.41167Q68.53438 200.41167 69.05 200.69292Q69.58125 200.97417 69.925 201.50542Q70.26875 202.02104 70.45625 202.77104Q70.64375 203.52104 70.64375 204.80229Q70.64375 206.31792 70.33125 207.23979Q70.03438 208.16167 69.40938 208.67729Q68.8 209.17729 67.84688 209.17729Q66.6125 209.17729 65.89375 208.28667Q65.05 207.22417 65.05 204.80229ZM66.12813 204.80229Q66.12813 206.91167 66.62813 207.61479Q67.12813 208.31792 67.84688 208.31792Q68.58125 208.31792 69.06563 207.61479Q69.56563 206.91167 69.56563 204.80229Q69.56563 202.67729 69.06563 201.98979Q68.58125 201.28667 67.83125 201.28667Q67.1125 201.28667 66.675 201.89604Q66.12813 202.67729 66.12813 204.80229ZM72.05 204.80229Q72.05 203.27104 72.3625 202.34917Q72.675 201.41167 73.28438 200.91167Q73.90938 200.41167 74.84688 200.41167Q75.53438 200.41167 76.05 200.69292Q76.58125 200.97417 76.925 201.50542Q77.26875 202.02104 77.45625 202.77104Q77.64375 203.52104 77.64375 204.80229Q77.64375 206.31792 77.33125 207.23979Q77.03438 208.16167 76.40938 208.67729Q75.8 209.17729 74.84688 209.17729Q73.6125 209.17729 72.89375 208.28667Q72.05 207.22417 72.05 204.80229ZM73.12813 204.80229Q73.12813 206.91167 73.62813 207.61479Q74.12813 208.31792 74.84688 208.31792Q75.58125 208.31792 76.06563 207.61479Q76.56563 206.91167 76.56563 204.80229Q76.56563 202.67729 76.06563 201.98979Q75.58125 201.28667 74.83125 201.28667Q74.1125 201.28667 73.675 201.89604Q73.12813 202.67729 73.12813 204.80229Z" fill-rule="nonzero"/><path fill="#000000" d="M58.1125 153.86125L58.1125 152.84563L63.675 152.84563L63.675 153.67375Q62.8625 154.54875 62.05 156.00188Q61.253124 157.43938 60.815624 158.97063Q60.4875 160.04875 60.409374 161.33L59.315624 161.33Q59.33125 160.31438 59.70625 158.87688Q60.096874 157.43938 60.8 156.11125Q61.51875 154.78313 62.33125 153.86125L58.1125 153.86125ZM65.05 159.08L66.15938 158.98625Q66.28438 159.79875 66.72188 160.205Q67.175 160.61125 67.81563 160.61125Q68.56563 160.61125 69.09688 160.03313Q69.62813 159.455 69.62813 158.5175Q69.62813 157.61125 69.1125 157.09563Q68.6125 156.56438 67.78438 156.56438Q67.28438 156.56438 66.8625 156.79875Q66.45625 157.03313 66.22188 157.3925L65.2375 157.2675L66.06563 152.86125L70.34688 152.86125L70.34688 153.86125L66.90938 153.86125L66.45625 156.17375Q67.22188 155.62688 68.06563 155.62688Q69.19063 155.62688 69.95625 156.40813Q70.7375 157.18938 70.7375 158.42375Q70.7375 159.58 70.06563 160.43938Q69.2375 161.47063 67.81563 161.47063Q66.64375 161.47063 65.89375 160.81438Q65.15938 160.15813 65.05 159.08ZM72.05 157.09563Q72.05 155.56438 72.3625 154.6425Q72.675 153.705 73.28438 153.205Q73.90938 152.705 74.84688 152.705Q75.53438 152.705 76.05 152.98625Q76.58125 153.2675 76.925 153.79875Q77.26875 154.31438 77.45625 155.06438Q77.64375 155.81438 77.64375 157.09563Q77.64375 158.61125 77.33125 159.53313Q77.03438 160.455 76.40938 160.97063Q75.8 161.47063 74.84688 161.47063Q73.6125 161.47063 72.89375 160.58Q72.05 159.5175 72.05 157.09563ZM73.12813 157.09563Q73.12813 159.205 73.62813 159.90813Q74.12813 160.61125 74.84688 160.61125Q75.58125 160.61125 76.06563 159.90813Q76.56563 159.205 76.56563 157.09563Q76.56563 154.97063 76.06563 154.28313Q75.58125 153.58 74.83125 153.58Q74.1125 153.58 73.675 154.18938Q73.12813 154.97063 73.12813 157.09563Z" fill-rule="nonzero"/><path fill="#000000" d="M55.01875 113.62334L53.971874 113.62334L53.971874 106.90459Q53.58125 107.26396 52.95625 107.63896Q52.346874 107.99834 51.8625 108.17021L51.8625 107.15459Q52.7375 106.73271 53.39375 106.15459Q54.065624 105.56084 54.346874 104.99834L55.01875 104.99834L55.01875 113.62334ZM58.05 109.38896Q58.05 107.85771 58.3625 106.93584Q58.675 105.99834 59.284374 105.49834Q59.909374 104.99834 60.846874 104.99834Q61.534374 104.99834 62.05 105.27959Q62.58125 105.56084 62.925 106.09209Q63.26875 106.60771 63.45625 107.35771Q63.64375 108.10771 63.64375 109.38896Q63.64375 110.90459 63.33125 111.82646Q63.034374 112.74834 62.409374 113.26396Q61.8 113.76396 60.846874 113.76396Q59.6125 113.76396 58.89375 112.87334Q58.05 111.81084 58.05 109.38896ZM59.128124 109.38896Q59.128124 111.49834 59.628124 112.20146Q60.128124 112.90459 60.846874 112.90459Q61.58125 112.90459 62.065624 112.20146Q62.565624 111.49834 62.565624 109.38896Q62.565624 107.26396 62.065624 106.57646Q61.58125 105.87334 60.83125 105.87334Q60.1125 105.87334 59.675 106.48271Q59.128124 107.26396 59.128124 109.38896ZM65.05 109.38896Q65.05 107.85771 65.3625 106.93584Q65.675 105.99834 66.28438 105.49834Q66.90938 104.99834 67.84688 104.99834Q68.53438 104.99834 69.05 105.27959Q69.58125 105.56084 69.925 106.09209Q70.26875 106.60771 70.45625 107.35771Q70.64375 108.10771 70.64375 109.38896Q70.64375 110.90459 70.33125 111.82646Q70.03438 112.74834 69.40938 113.26396Q68.8 113.76396 67.84688 113.76396Q66.6125 113.76396 65.89375 112.87334Q65.05 111.81084 65.05 109.38896ZM66.12813 109.38896Q66.12813 111.49834 66.62813 112.20146Q67.12813 112.90459 67.84688 112.90459Q68.58125 112.90459 69.06563 112.20146Q69.56563 111.49834 69.56563 109.38896Q69.56563 107.26396 69.06563 106.57646Q68.58125 105.87334 67.83125 105.87334Q67.1125 105.87334 66.675 106.48271Q66.12813 107.26396 66.12813 109.38896ZM72.05 109.38896Q72.05 107.85771 72.3625 106.93584Q72.675 105.99834 73.28438 105.49834Q73.90938 104.99834 74.84688 104.99834Q75.53438 104.99834 76.05 105.27959Q76.58125 105.56084 76.925 106.09209Q77.26875 106.60771 77.45625 107.35771Q77.64375 108.10771 77.64375 109.38896Q77.64375 110.90459 77.33125 111.82646Q77.03438 112.74834 76.40938 113.26396Q75.8 113.76396 74.84688 113.76396Q73.6125 113.76396 72.89375 112.87334Q72.05 111.81084 72.05 109.38896ZM73.12813 109.38896Q73.12813 111.49834 73.62813 112.20146Q74.12813 112.90459 74.84688 112.90459Q75.58125 112.90459 76.06563 112.20146Q76.56563 111.49834 76.56563 109.38896Q76.56563 107.26396 76.06563 106.57646Q75.58125 105.87334 74.83125 105.87334Q74.1125 105.87334 73.675 106.48271Q73.12813 107.26396 73.12813 109.38896Z" fill-rule="nonzero"/><path fill="#000000" d="M55.01875 65.916664L53.971874 65.916664L53.971874 59.197914Q53.58125 59.55729 52.95625 59.93229Q52.346874 60.291664 51.8625 60.46354L51.8625 59.447914Q52.7375 59.02604 53.39375 58.447914Q54.065624 57.854164 54.346874 57.291664L55.01875 57.291664L55.01875 65.916664ZM63.596874 64.90104L63.596874 65.916664L57.909374 65.916664Q57.909374 65.541664 58.034374 65.18229Q58.253124 64.604164 58.721874 64.041664Q59.20625 63.479164 60.1125 62.74479Q61.51875 61.58854 62.003124 60.916664Q62.503124 60.24479 62.503124 59.65104Q62.503124 59.02604 62.05 58.604164Q61.596874 58.166664 60.878124 58.166664Q60.1125 58.166664 59.659374 58.61979Q59.20625 59.072914 59.190624 59.885414L58.1125 59.77604Q58.221874 58.55729 58.940624 57.93229Q59.675 57.291664 60.909374 57.291664Q62.14375 57.291664 62.8625 57.979164Q63.58125 58.666664 63.58125 59.68229Q63.58125 60.197914 63.3625 60.697914Q63.159374 61.18229 62.659374 61.74479Q62.175 62.291664 61.05 63.24479Q60.096874 64.041664 59.815624 64.33854Q59.55 64.61979 59.378124 64.90104L63.596874 64.90104ZM65.05 63.666664L66.15938 63.572914Q66.28438 64.385414 66.72188 64.791664Q67.175 65.197914 67.81563 65.197914Q68.56563 65.197914 69.09688 64.61979Q69.62813 64.041664 69.62813 63.104164Q69.62813 62.197914 69.1125 61.68229Q68.6125 61.15104 67.78438 61.15104Q67.28438 61.15104 66.8625 61.385414Q66.45625 61.61979 66.22188 61.979164L65.2375 61.854164L66.06563 57.447914L70.34688 57.447914L70.34688 58.447914L66.90938 58.447914L66.45625 60.760414Q67.22188 60.21354 68.06563 60.21354Q69.19063 60.21354 69.95625 60.99479Q70.7375 61.77604 70.7375 63.010414Q70.7375 64.166664 70.06563 65.02604Q69.2375 66.05729 67.81563 66.05729Q66.64375 66.05729 65.89375 65.40104Q65.15938 64.74479 65.05 63.666664ZM72.05 61.68229Q72.05 60.15104 72.3625 59.229164Q72.675 58.291664 73.28438 57.791664Q73.90938 57.291664 74.84688 57.291664Q75.53438 57.291664 76.05 57.572914Q76.58125 57.854164 76.925 58.385414Q77.26875 58.90104 77.45625 59.65104Q77.64375 60.40104 77.64375 61.68229Q77.64375 63.197914 77.33125 64.11979Q77.03438 65.041664 76.40938 65.55729Q75.8 66.05729 74.84688 66.05729Q73.6125 66.05729 72.89375 65.166664Q72.05 64.104164 72.05 61.68229ZM73.12813 61.68229Q73.12813 63.791664 73.62813 64.49479Q74.12813 65.197914 74.84688 65.197914Q75.58125 65.197914 76.06563 64.49479Q76.56563 63.791664 76.56563 61.68229Q76.56563 59.55729 76.06563 58.86979Q75.58125 58.166664 74.83125 58.166664Q74.1125 58.166664 73.675 58.77604Q73.12813 59.55729 73.12813 61.68229Z" fill-rule="nonzero"/><path fill="#000000" d="M199.3001 316.4344L199.3001 317.45L193.6126 317.45Q193.6126 317.075 193.7376 316.71564Q193.95634 316.1375 194.4251 315.575Q194.90947 315.0125 195.81572 314.27814Q197.22197 313.1219 197.70634 312.45Q198.20634 311.77814 198.20634 311.1844Q198.20634 310.5594 197.75322 310.1375Q197.3001 309.7 196.58134 309.7Q195.81572 309.7 195.3626 310.15314Q194.90947 310.60626 194.89384 311.41876L193.81572 311.3094Q193.9251 310.09064 194.64384 309.46564Q195.37822 308.825 196.6126 308.825Q197.84697 308.825 198.56572 309.5125Q199.28447 310.2 199.28447 311.21564Q199.28447 311.73126 199.06572 312.23126Q198.8626 312.71564 198.3626 313.27814Q197.87822 313.825 196.75322 314.77814Q195.8001 315.575 195.51884 315.8719Q195.25322 316.15314 195.08134 316.4344L199.3001 316.4344Z" fill-rule="nonzero"/><path fill="#000000" d="M325.36047 317.45L325.36047 315.3875L321.64172 315.3875L321.64172 314.41876L325.5636 308.85626L326.42297 308.85626L326.42297 314.41876L327.57922 314.41876L327.57922 315.3875L326.42297 315.3875L326.42297 317.45L325.36047 317.45ZM325.36047 314.41876L325.36047 310.5594L322.67297 314.41876L325.36047 314.41876Z" fill-rule="nonzero"/><path fill="#000000" d="M455.6865 310.96564L454.63962 311.04376Q454.499 310.41876 454.249 310.1375Q453.8115 309.6844 453.1865 309.6844Q452.6865 309.6844 452.29587 309.96564Q451.8115 310.34064 451.51462 311.04376Q451.23337 311.73126 451.21774 313.0125Q451.59274 312.4344 452.13962 312.15314Q452.70212 311.8719 453.3115 311.8719Q454.35837 311.8719 455.09274 312.65314Q455.84274 313.4344 455.84274 314.65314Q455.84274 315.46564 455.48337 316.16876Q455.13962 316.85626 454.53024 317.23126Q453.92087 317.59064 453.15524 317.59064Q451.82712 317.59064 450.999 316.6219Q450.17087 315.65314 450.17087 313.4344Q450.17087 310.9344 451.09274 309.8094Q451.88962 308.825 453.249 308.825Q454.26462 308.825 454.90524 309.40314Q455.5615 309.96564 455.6865 310.96564ZM451.38962 314.66876Q451.38962 315.21564 451.60837 315.71564Q451.84274 316.2 452.249 316.46564Q452.67087 316.73126 453.13962 316.73126Q453.79587 316.73126 454.28024 316.2Q454.76462 315.65314 454.76462 314.73126Q454.76462 313.84064 454.28024 313.325Q453.8115 312.8094 453.09274 312.8094Q452.374 312.8094 451.874 313.325Q451.38962 313.84064 451.38962 314.66876Z" fill-rule="nonzero"/><path fill="#000000" d="M580.075 312.79376Q579.41876 312.54376 579.09064 312.10626Q578.77814 311.65314 578.77814 311.04376Q578.77814 310.10626 579.45 309.46564Q580.1375 308.825 581.2469 308.825Q582.3719 308.825 583.0594 309.48126Q583.7469 310.1375 583.7469 311.075Q583.7469 311.66876 583.4344 312.10626Q583.1219 312.54376 582.48126 312.79376Q583.27814 313.04376 583.6844 313.6219Q584.09064 314.2 584.09064 314.9969Q584.09064 316.09064 583.3094 316.84064Q582.54376 317.59064 581.2625 317.59064Q579.9969 317.59064 579.21564 316.84064Q578.4344 316.09064 578.4344 314.96564Q578.4344 314.1219 578.85626 313.5594Q579.29376 312.9969 580.075 312.79376ZM579.85626 310.9969Q579.85626 311.60626 580.2469 311.9969Q580.65314 312.3875 581.27814 312.3875Q581.8875 312.3875 582.27814 312.0125Q582.66876 311.6219 582.66876 311.0594Q582.66876 310.48126 582.2625 310.09064Q581.85626 309.6844 581.2625 309.6844Q580.65314 309.6844 580.2469 310.075Q579.85626 310.46564 579.85626 310.9969ZM579.52814 314.96564Q579.52814 315.41876 579.73126 315.84064Q579.95 316.2625 580.3719 316.4969Q580.79376 316.73126 581.27814 316.73126Q582.02814 316.73126 582.5125 316.2469Q583.0125 315.7625 583.0125 315.0125Q583.0125 314.2469 582.5125 313.7469Q582.0125 313.2469 581.2469 313.2469Q580.4969 313.2469 580.0125 313.7469Q579.52814 314.23126 579.52814 314.96564Z" fill-rule="nonzero"/><path fill="#757575" d="M192.26562 32.534374L194.15625 33.003124Q193.5625 35.346874 192.01562 36.58125Q190.46875 37.8 188.21875 37.8Q185.90625 37.8 184.45312 36.8625Q183.01562 35.909374 182.25 34.128124Q181.5 32.33125 181.5 30.284374Q181.5 28.05 182.34375 26.39375Q183.20312 24.721874 184.78125 23.8625Q186.35938 22.9875 188.25 22.9875Q190.40625 22.9875 191.85938 24.08125Q193.32812 25.175 193.90625 27.159374L192.04688 27.596874Q191.54688 26.034374 190.59375 25.33125Q189.65625 24.6125 188.21875 24.6125Q186.5625 24.6125 185.45312 25.409374Q184.34375 26.190624 183.89062 27.534374Q183.45312 28.8625 183.45312 30.26875Q183.45312 32.096874 183.98438 33.471874Q184.51562 34.83125 185.64062 35.503124Q186.76562 36.175 188.0625 36.175Q189.65625 36.175 190.76562 35.253124Q191.875 34.33125 192.26562 32.534374ZM202.92188 34.20625L204.73438 34.440624Q204.3125 36.01875 203.14062 36.909374Q201.98438 37.784374 200.17188 37.784374Q197.90625 37.784374 196.5625 36.39375Q195.23438 34.9875 195.23438 32.45625Q195.23438 29.83125 196.57812 28.39375Q197.92188 26.940624 200.07812 26.940624Q202.15625 26.940624 203.46875 28.3625Q204.79688 29.76875 204.79688 32.346874Q204.79688 32.503124 204.78125 32.815624L197.04688 32.815624Q197.14062 34.51875 198.01562 35.425Q198.89062 36.33125 200.1875 36.33125Q201.15625 36.33125 201.82812 35.83125Q202.51562 35.315624 202.92188 34.20625ZM197.14062 31.3625L202.9375 31.3625Q202.82812 30.065624 202.28125 29.409374Q201.4375 28.39375 200.09375 28.39375Q198.89062 28.39375 198.0625 29.20625Q197.23438 30.003124 197.14062 31.3625ZM206.78125 37.55L206.78125 23.2375L208.53125 23.2375L208.53125 37.55L206.78125 37.55ZM210.78125 37.55L210.78125 23.2375L212.53125 23.2375L212.53125 37.55L210.78125 37.55ZM222.73438 37.55L219.5625 27.175L221.375 27.175L223.03125 33.159374L223.64062 35.39375Q223.6875 35.221874 224.17188 33.253124L225.82812 27.175L227.64062 27.175L229.1875 33.190624L229.70312 35.175L230.29688 33.175L232.07812 27.175L233.78125 27.175L230.54688 37.55L228.71875 37.55L227.0625 31.33125L226.67188 29.565624L224.5625 37.55L222.73438 37.55ZM235.82812 25.253124L235.82812 23.2375L237.59375 23.2375L237.59375 25.253124L235.82812 25.253124ZM235.82812 37.55L235.82812 27.175L237.59375 27.175L237.59375 37.55L235.82812 37.55ZM246.54688 37.55L246.54688 36.2375Q245.5625 37.784374 243.64062 37.784374Q242.40625 37.784374 241.35938 37.096874Q240.32812 36.409374 239.75 35.190624Q239.1875 33.971874 239.1875 32.378124Q239.1875 30.815624 239.70312 29.55Q240.21875 28.284374 241.25 27.6125Q242.29688 26.940624 243.5625 26.940624Q244.5 26.940624 245.23438 27.346874Q245.96875 27.7375 246.4375 28.3625L246.4375 23.2375L248.17188 23.2375L248.17188 37.55L246.54688 37.55ZM240.98438 32.378124Q240.98438 34.3625 241.82812 35.346874Q242.67188 36.33125 243.8125 36.33125Q244.96875 36.33125 245.76562 35.39375Q246.57812 34.45625 246.57812 32.51875Q246.57812 30.39375 245.75 29.39375Q244.9375 28.39375 243.73438 28.39375Q242.5625 28.39375 241.76562 29.3625Q240.98438 30.315624 240.98438 32.378124ZM254.65625 35.971874L254.90625 37.534374Q254.17188 37.690624 253.57812 37.690624Q252.625 37.690624 252.09375 37.39375Q251.57812 37.08125 251.35938 36.596874Q251.14062 36.096874 251.14062 34.51875L251.14062 28.55L249.85938 28.55L249.85938 27.175L251.14062 27.175L251.14062 24.6125L252.89062 23.55L252.89062 27.175L254.65625 27.175L254.65625 28.55L252.89062 28.55L252.89062 34.6125Q252.89062 35.3625 252.98438 35.58125Q253.07812 35.784374 253.28125 35.925Q253.5 36.05 253.89062 36.05Q254.17188 36.05 254.65625 35.971874ZM256.8125 37.55L256.8125 23.2375L258.57812 23.2375L258.57812 28.3625Q259.8125 26.940624 261.6875 26.940624Q262.82812 26.940624 263.67188 27.39375Q264.53125 27.846874 264.89062 28.659374Q265.26562 29.45625 265.26562 30.971874L265.26562 37.55L263.51562 37.55L263.51562 30.971874Q263.51562 29.659374 262.9375 29.065624Q262.35938 28.45625 261.32812 28.45625Q260.54688 28.45625 259.84375 28.8625Q259.15625 29.26875 258.85938 29.971874Q258.57812 30.659374 258.57812 31.878124L258.57812 37.55L256.8125 37.55ZM275.70312 37.55L271.75 27.175L273.60938 27.175L275.84375 33.39375Q276.20312 34.39375 276.5 35.471874Q276.73438 34.659374 277.15625 33.503124L279.45312 27.175L281.26562 27.175L277.34375 37.55L275.70312 37.55ZM281.10938 34.45625L282.85938 34.175Q283.0 35.221874 283.67188 35.784374Q284.34375 36.33125 285.54688 36.33125Q286.75 36.33125 287.32812 35.846874Q287.92188 35.346874 287.92188 34.690624Q287.92188 34.096874 287.40625 33.753124Q287.04688 33.51875 285.60938 33.159374Q283.67188 32.659374 282.92188 32.315624Q282.1875 31.95625 281.79688 31.33125Q281.40625 30.690624 281.40625 29.925Q281.40625 29.2375 281.71875 28.64375Q282.04688 28.05 282.59375 27.659374Q283.0 27.3625 283.70312 27.159374Q284.42188 26.940624 285.23438 26.940624Q286.45312 26.940624 287.375 27.3Q288.29688 27.64375 288.73438 28.253124Q289.17188 28.846874 289.34375 29.846874L287.625 30.08125Q287.5 29.284374 286.9375 28.846874Q286.375 28.39375 285.35938 28.39375Q284.14062 28.39375 283.625 28.8Q283.10938 29.190624 283.10938 29.721874Q283.10938 30.065624 283.32812 30.346874Q283.53125 30.628124 284.0 30.815624Q284.26562 30.909374 285.54688 31.253124Q287.42188 31.753124 288.15625 32.08125Q288.89062 32.39375 289.3125 33.003124Q289.73438 33.596874 289.73438 34.503124Q289.73438 35.378124 289.21875 36.159374Q288.70312 36.940624 287.73438 37.3625Q286.76562 37.784374 285.54688 37.784374Q283.53125 37.784374 282.46875 36.940624Q281.40625 36.096874 281.10938 34.45625ZM292.3125 37.55L292.3125 35.55L294.3125 35.55L294.3125 37.55L292.3125 37.55ZM302.46875 37.55L307.96875 23.2375L310.01562 23.2375L315.875 37.55L313.71875 37.55L312.04688 33.20625L306.0625 33.20625L304.48438 37.55L302.46875 37.55ZM306.60938 31.675L311.45312 31.675L309.96875 27.70625Q309.28125 25.89375 308.95312 24.7375Q308.67188 26.1125 308.17188 27.471874L306.60938 31.675ZM319.70312 37.55L315.75 27.175L317.60938 27.175L319.84375 33.39375Q320.20312 34.39375 320.5 35.471874Q320.73438 34.659374 321.15625 33.503124L323.45312 27.175L325.26562 27.175L321.34375 37.55L319.70312 37.55ZM332.92188 34.20625L334.73438 34.440624Q334.3125 36.01875 333.14062 36.909374Q331.98438 37.784374 330.17188 37.784374Q327.90625 37.784374 326.5625 36.39375Q325.23438 34.9875 325.23438 32.45625Q325.23438 29.83125 326.57812 28.39375Q327.92188 26.940624 330.07812 26.940624Q332.15625 26.940624 333.46875 28.3625Q334.79688 29.76875 334.79688 32.346874Q334.79688 32.503124 334.78125 32.815624L327.04688 32.815624Q327.14062 34.51875 328.01562 35.425Q328.89062 36.33125 330.1875 36.33125Q331.15625 36.33125 331.82812 35.83125Q332.51562 35.315624 332.92188 34.20625ZM327.14062 31.3625L332.9375 31.3625Q332.82812 30.065624 332.28125 29.409374Q331.4375 28.39375 330.09375 28.39375Q328.89062 28.39375 328.0625 29.20625Q327.23438 30.003124 327.14062 31.3625ZM336.79688 37.55L336.79688 27.175L338.375 27.175L338.375 28.753124Q338.98438 27.64375 339.5 27.3Q340.01562 26.940624 340.625 26.940624Q341.51562 26.940624 342.4375 27.503124L341.82812 29.14375Q341.1875 28.753124 340.54688 28.753124Q339.96875 28.753124 339.5 29.1125Q339.04688 29.45625 338.84375 30.065624Q338.5625 31.003124 338.5625 32.1125L338.5625 37.55L336.79688 37.55ZM350.59375 36.26875Q349.60938 37.096874 348.70312 37.440624Q347.79688 37.784374 346.76562 37.784374Q345.0625 37.784374 344.14062 36.95625Q343.21875 36.1125 343.21875 34.815624Q343.21875 34.05 343.5625 33.425Q343.92188 32.8 344.48438 32.425Q345.04688 32.034374 345.75 31.83125Q346.26562 31.70625 347.3125 31.565624Q349.4375 31.315624 350.4375 30.971874Q350.45312 30.6125 350.45312 30.503124Q350.45312 29.440624 349.95312 28.9875Q349.28125 28.39375 347.95312 28.39375Q346.70312 28.39375 346.10938 28.83125Q345.53125 29.26875 345.25 30.378124L343.53125 30.14375Q343.76562 29.034374 344.29688 28.3625Q344.82812 27.675 345.84375 27.315624Q346.85938 26.940624 348.20312 26.940624Q349.53125 26.940624 350.35938 27.253124Q351.1875 27.565624 351.57812 28.05Q351.96875 28.51875 352.125 29.2375Q352.21875 29.690624 352.21875 30.8625L352.21875 33.20625Q352.21875 35.659374 352.32812 36.315624Q352.4375 36.95625 352.78125 37.55L350.9375 37.55Q350.67188 37.003124 350.59375 36.26875ZM350.4375 32.346874Q349.48438 32.7375 347.5625 33.003124Q346.48438 33.159374 346.03125 33.3625Q345.59375 33.55 345.34375 33.925Q345.09375 34.3 345.09375 34.76875Q345.09375 35.471874 345.625 35.940624Q346.15625 36.409374 347.1875 36.409374Q348.20312 36.409374 348.98438 35.971874Q349.78125 35.51875 350.15625 34.753124Q350.4375 34.14375 350.4375 32.9875L350.4375 32.346874ZM354.5 38.409374L356.20312 38.659374Q356.3125 39.45625 356.79688 39.815624Q357.45312 40.3 358.59375 40.3Q359.8125 40.3 360.46875 39.815624Q361.14062 39.33125 361.375 38.45625Q361.51562 37.909374 361.5 36.190624Q360.34375 37.55 358.625 37.55Q356.48438 37.55 355.3125 36.003124Q354.14062 34.45625 354.14062 32.3Q354.14062 30.815624 354.67188 29.565624Q355.21875 28.315624 356.23438 27.628124Q357.26562 26.940624 358.64062 26.940624Q360.46875 26.940624 361.67188 28.425L361.67188 27.175L363.28125 27.175L363.28125 36.14375Q363.28125 38.565624 362.78125 39.565624Q362.29688 40.58125 361.21875 41.159374Q360.15625 41.753124 358.59375 41.753124Q356.75 41.753124 355.59375 40.925Q354.45312 40.096874 354.5 38.409374ZM355.95312 32.175Q355.95312 34.221874 356.76562 35.159374Q357.57812 36.096874 358.79688 36.096874Q360.0 36.096874 360.8125 35.159374Q361.64062 34.221874 361.64062 32.2375Q361.64062 30.33125 360.79688 29.3625Q359.95312 28.39375 358.76562 28.39375Q357.59375 28.39375 356.76562 29.346874Q355.95312 30.3 355.95312 32.175ZM372.92188 34.20625L374.73438 34.440624Q374.3125 36.01875 373.14062 36.909374Q371.98438 37.784374 370.17188 37.784374Q367.90625 37.784374 366.5625 36.39375Q365.23438 34.9875 365.23438 32.45625Q365.23438 29.83125 366.57812 28.39375Q367.92188 26.940624 370.07812 26.940624Q372.15625 26.940624 373.46875 28.3625Q374.79688 29.76875 374.79688 32.346874Q374.79688 32.503124 374.78125 32.815624L367.04688 32.815624Q367.14062 34.51875 368.01562 35.425Q368.89062 36.33125 370.1875 36.33125Q371.15625 36.33125 371.82812 35.83125Q372.51562 35.315624 372.92188 34.20625ZM367.14062 31.3625L372.9375 31.3625Q372.82812 30.065624 372.28125 29.409374Q371.4375 28.39375 370.09375 28.39375Q368.89062 28.39375 368.0625 29.20625Q367.23438 30.003124 367.14062 31.3625ZM383.14062 37.55L383.14062 23.2375L392.79688 23.2375L392.79688 24.925L385.03125 24.925L385.03125 29.3625L391.75 29.3625L391.75 31.05L385.03125 31.05L385.03125 37.55L383.14062 37.55ZM395.04688 37.55L395.04688 23.2375L400.4375 23.2375Q401.875 23.2375 402.625 23.3625Q403.67188 23.55 404.39062 24.05Q405.10938 24.534374 405.53125 25.425Q405.96875 26.315624 405.96875 27.378124Q405.96875 29.20625 404.79688 30.471874Q403.64062 31.721874 400.60938 31.721874L396.9375 31.721874L396.9375 37.55L395.04688 37.55ZM396.9375 30.034374L400.64062 30.034374Q402.46875 30.034374 403.23438 29.3625Q404.01562 28.675 404.01562 27.425Q404.01562 26.534374 403.5625 25.89375Q403.10938 25.253124 402.375 25.05Q401.89062 24.925 400.59375 24.925L396.9375 24.925L396.9375 30.034374ZM407.40625 32.95625L409.1875 32.8Q409.3125 33.8625 409.76562 34.55Q410.23438 35.2375 411.20312 35.675Q412.1875 36.096874 413.42188 36.096874Q414.5 36.096874 415.32812 35.784374Q416.15625 35.45625 416.5625 34.89375Q416.96875 34.33125 416.96875 33.659374Q416.96875 32.9875 416.57812 32.4875Q416.1875 31.9875 415.29688 31.64375Q414.71875 31.409374 412.73438 30.940624Q410.76562 30.471874 409.98438 30.05Q408.95312 29.51875 408.45312 28.721874Q407.95312 27.925 407.95312 26.940624Q407.95312 25.846874 408.5625 24.909374Q409.17188 23.971874 410.35938 23.4875Q411.54688 22.9875 412.98438 22.9875Q414.57812 22.9875 415.79688 23.503124Q417.01562 24.01875 417.65625 25.01875Q418.3125 26.003124 418.35938 27.26875L416.54688 27.409374Q416.40625 26.05 415.5625 25.3625Q414.71875 24.659374 413.0625 24.659374Q411.34375 24.659374 410.54688 25.3Q409.76562 25.925 409.76562 26.8Q409.76562 27.58125 410.32812 28.08125Q410.875 28.58125 413.1875 29.096874Q415.5 29.6125 416.35938 30.003124Q417.60938 30.58125 418.20312 31.471874Q418.79688 32.346874 418.79688 33.503124Q418.79688 34.64375 418.14062 35.659374Q417.48438 36.675 416.25 37.2375Q415.03125 37.8 413.5 37.8Q411.5625 37.8 410.25 37.2375Q408.9375 36.659374 408.1875 35.51875Q407.4375 34.378124 407.40625 32.95625Z" fill-rule="nonzero"/></svg>