<svg version="1.1" viewBox="0.0 0.0 600.0 371.0" fill="none" stroke="none" stroke-linecap="square" stroke-miterlimit="10" width="600" height="371" xmlns:xlink="http://www.w3.org/1999/xlink" xmlns="http://www.w3.org/2000/svg"><path fill="#ffffff" d="M0 0L600.0 0L600.0 371.0L0 371.0L0 0Z" fill-rule="nonzero"/><path stroke="#333333" stroke-width="1.0" stroke-linecap="butt" d="M84.5 300.5L581.5 300.5" fill-rule="nonzero"/><path stroke="#cccccc" stroke-width="1.0" stroke-linecap="butt" d="M84.5 258.5L581.5 258.5" fill-rule="nonzero"/><path stroke="#cccccc" stroke-width="1.0" stroke-linecap="butt" d="M84.5 215.5L581.5 215.5" fill-rule="nonzero"/><path stroke="#cccccc" stroke-width="1.0" stroke-linecap="butt" d="M84.5 173.5L581.5 173.5" fill-rule="nonzero"/><path stroke="#cccccc" stroke-width="1.0" stroke-linecap="butt" d="M84.5 130.5L581.5 130.5" fill-rule="nonzero"/><path stroke="#cccccc" stroke-width="1.0" stroke-linecap="butt" d="M84.5 88.5L581.5 88.5" fill-rule="nonzero"/><clipPath id="id_0"><path d="M84.55 88.28333L581.45 88.28333L581.45 300.45L84.55 300.45L84.55 88.28333Z" clip-rule="nonzero"/></clipPath><path stroke="#4285f4" stroke-width="2.0" stroke-linecap="butt" clip-path="url(#id_0)" d="M134.24 239.7194L233.62 269.99985L333.0 288.72144L432.38 298.2265L531.76 299.83896" fill-rule="nonzero"/><path stroke="#ea4335" stroke-width="2.0" stroke-linecap="butt" clip-path="url(#id_0)" d="M134.24 115.05028L233.62 133.042L333.0 170.19664L432.38 223.71356L531.76 258.33917" fill-rule="nonzero"/><path stroke="#fbbc04" stroke-width="2.0" stroke-linecap="butt" clip-path="url(#id_0)" d="M134.24 111.01063L233.62 113.96399L333.0 129.47762L432.38 159.09608L531.76 201.34271" fill-rule="nonzero"/><path fill="#000000" fill-opacity="0.0" clip-path="url(#id_0)" d="M137.24 239.7194C137.24 241.37627 135.89685 242.7194 134.24 242.7194C132.58315 242.7194 131.24 241.37627 131.24 239.7194C131.24 238.06256 132.58315 236.7194 134.24 236.7194C135.89685 236.7194 137.24 238.06256 137.24 239.7194Z" fill-rule="nonzero"/><path fill="#000000" fill-opacity="0.0" clip-path="url(#id_0)" d="M236.62 269.99985C236.62 271.6567 235.27686 272.99985 233.62 272.99985C231.96315 272.99985 230.62 271.6567 230.62 269.99985C230.62 268.343 231.96315 266.99985 233.62 266.99985C235.27686 266.99985 236.62 268.343 236.62 269.99985Z" fill-rule="nonzero"/><path fill="#000000" fill-opacity="0.0" clip-path="url(#id_0)" d="M336.0 288.72144C336.0 290.3783 334.65686 291.72144 333.0 291.72144C331.34314 291.72144 330.0 290.3783 330.0 288.72144C330.0 287.06458 331.34314 285.72144 333.0 285.72144C334.65686 285.72144 336.0 287.06458 336.0 288.72144Z" fill-rule="nonzero"/><path fill="#000000" fill-opacity="0.0" clip-path="url(#id_0)" d="M435.38 298.2265C435.38 299.88336 434.03687 301.2265 432.38 301.2265C430.72314 301.2265 429.38 299.88336 429.38 298.2265C429.38 296.56964 430.72314 295.2265 432.38 295.2265C434.03687 295.2265 435.38 296.56964 435.38 298.2265Z" fill-rule="nonzero"/><path fill="#000000" fill-opacity="0.0" clip-path="url(#id_0)" d="M534.76 299.83896C534.76 301.49582 533.4169 302.83896 531.76 302.83896C530.10315 302.83896 528.76 301.49582 528.76 299.83896C528.76 298.1821 530.10315 296.83896 531.76 296.83896C533.4169 296.83896 534.76 298.1821 534.76 299.83896Z" fill-rule="nonzero"/><path fill="#ea4335" clip-path="url(#id_0)" d="M134.24 115.05028C134.24 115.05028 134.24 115.05028 134.24 115.05028C134.24 115.05028 134.24 115.05028 134.24 115.05028C134.24 115.05028 134.24 115.05028 134.24 115.05028C134.24 115.05028 134.24 115.05028 134.24 115.05028Z" fill-rule="nonzero"/><path fill="#ea4335" clip-path="url(#id_0)" d="M233.62 133.042C233.62 133.042 233.62 133.042 233.62 133.042C233.62 133.042 233.62 133.042 233.62 133.042C233.62 133.042 233.62 133.042 233.62 133.042C233.62 133.042 233.62 133.042 233.62 133.042Z" fill-rule="nonzero"/><path fill="#ea4335" clip-path="url(#id_0)" d="M333.0 170.19664C333.0 170.19664 333.0 170.19664 333.0 170.19664C333.0 170.19664 333.0 170.19664 333.0 170.19664C333.0 170.19664 333.0 170.19664 333.0 170.19664C333.0 170.19664 333.0 170.19664 333.0 170.19664Z" fill-rule="nonzero"/><path fill="#ea4335" clip-path="url(#id_0)" d="M432.38 223.71356C432.38 223.71356 432.38 223.71356 432.38 223.71356C432.38 223.71356 432.38 223.71356 432.38 223.71356C432.38 223.71356 432.38 223.71356 432.38 223.71356C432.38 223.71356 432.38 223.71356 432.38 223.71356Z" fill-rule="nonzero"/><path fill="#ea4335" clip-path="url(#id_0)" d="M531.76 258.33917C531.76 258.33917 531.76 258.33917 531.76 258.33917C531.76 258.33917 531.76 258.33917 531.76 258.33917C531.76 258.33917 531.76 258.33917 531.76 258.33917C531.76 258.33917 531.76 258.33917 531.76 258.33917Z" fill-rule="nonzero"/><path fill="#000000" fill-opacity="0.0" clip-path="url(#id_0)" d="M137.24 111.01063C137.24 112.66748 135.89685 114.01063 134.24 114.01063C132.58315 114.01063 131.24 112.66748 131.24 111.01063C131.24 109.353775 132.58315 108.01063 134.24 108.01063C135.89685 108.01063 137.24 109.353775 137.24 111.01063Z" fill-rule="nonzero"/><path fill="#000000" fill-opacity="0.0" clip-path="url(#id_0)" d="M236.62 113.96399C236.62 115.62084 235.27686 116.96399 233.62 116.96399C231.96315 116.96399 230.62 115.62084 230.62 113.96399C230.62 112.30713 231.96315 110.96399 233.62 110.96399C235.27686 110.96399 236.62 112.30713 236.62 113.96399Z" fill-rule="nonzero"/><path fill="#000000" fill-opacity="0.0" clip-path="url(#id_0)" d="M336.0 129.47762C336.0 131.13446 334.65686 132.47762 333.0 132.47762C331.34314 132.47762 330.0 131.13446 330.0 129.47762C330.0 127.82076 331.34314 126.477615 333.0 126.477615C334.65686 126.477615 336.0 127.82076 336.0 129.47762Z" fill-rule="nonzero"/><path fill="#000000" fill-opacity="0.0" clip-path="url(#id_0)" d="M435.38 159.09608C435.38 160.75293 434.03687 162.09608 432.38 162.09608C430.72314 162.09608 429.38 160.75293 429.38 159.09608C429.38 157.43922 430.72314 156.09608 432.38 156.09608C434.03687 156.09608 435.38 157.43922 435.38 159.09608Z" fill-rule="nonzero"/><path fill="#000000" fill-opacity="0.0" clip-path="url(#id_0)" d="M534.76 201.34271C534.76 202.99956 533.4169 204.34271 531.76 204.34271C530.10315 204.34271 528.76 202.99956 528.76 201.34271C528.76 199.68585 530.10315 198.34271 531.76 198.34271C533.4169 198.34271 534.76 199.68585 534.76 201.34271Z" fill-rule="nonzero"/><path fill="#000000" d="M287.42188 349.45L287.42188 340.85626L288.57812 340.85626L293.09375 347.60626L293.09375 340.85626L294.1875 340.85626L294.1875 349.45L293.01562 349.45L288.5 342.7L288.5 349.45L287.42188 349.45ZM300.375 349.45L300.375 348.52814Q299.64062 349.59064 298.39062 349.59064Q297.84375 349.59064 297.35938 349.3875Q296.89062 349.16876 296.65625 348.85626Q296.42188 348.52814 296.32812 348.0594Q296.26562 347.7625 296.26562 347.075L296.26562 343.23126L297.32812 343.23126L297.32812 346.6844Q297.32812 347.4969 297.39062 347.79376Q297.48438 348.2 297.79688 348.45Q298.125 348.6844 298.60938 348.6844Q299.07812 348.6844 299.48438 348.45Q299.90625 348.2 300.07812 347.77814Q300.26562 347.35626 300.26562 346.5594L300.26562 343.23126L301.3125 343.23126L301.3125 349.45L300.375 349.45ZM303.29688 349.45L303.29688 343.23126L304.23438 343.23126L304.23438 344.10626Q304.53125 343.6375 305.01562 343.3719Q305.5 343.09064 306.125 343.09064Q306.8125 343.09064 307.25 343.3719Q307.70312 343.65314 307.875 344.16876Q308.625 343.09064 309.79688 343.09064Q310.73438 343.09064 311.21875 343.60626Q311.71875 344.10626 311.71875 345.1844L311.71875 349.45L310.67188 349.45L310.67188 345.52814Q310.67188 344.90314 310.5625 344.6219Q310.46875 344.34064 310.20312 344.16876Q309.9375 343.9969 309.5625 343.9969Q308.90625 343.9969 308.46875 344.4344Q308.04688 344.8719 308.04688 345.84064L308.04688 349.45L306.98438 349.45L306.98438 345.40314Q306.98438 344.7 306.71875 344.35626Q306.46875 343.9969 305.89062 343.9969Q305.4375 343.9969 305.0625 344.23126Q304.6875 344.46564 304.51562 344.91876Q304.34375 345.3719 304.34375 346.21564L304.34375 349.45L303.29688 349.45ZM315.26562 349.45L314.28125 349.45L314.28125 340.85626L315.34375 340.85626L315.34375 343.91876Q316.01562 343.09064 317.04688 343.09064Q317.625 343.09064 318.125 343.325Q318.64062 343.54376 318.96875 343.96564Q319.3125 344.3875 319.5 344.98126Q319.6875 345.575 319.6875 346.2469Q319.6875 347.84064 318.89062 348.71564Q318.09375 349.59064 317.0 349.59064Q315.89062 349.59064 315.26562 348.66876L315.26562 349.45ZM315.25 346.29376Q315.25 347.40314 315.5625 347.90314Q316.0625 348.71564 316.90625 348.71564Q317.59375 348.71564 318.09375 348.1219Q318.60938 347.52814 318.60938 346.325Q318.60938 345.10626 318.125 344.52814Q317.64062 343.95 316.95312 343.95Q316.26562 343.95 315.75 344.5594Q315.25 345.15314 315.25 346.29376ZM325.54688 347.45L326.64062 347.575Q326.39062 348.52814 325.6875 349.0594Q324.98438 349.59064 323.90625 349.59064Q322.54688 349.59064 321.73438 348.7469Q320.9375 347.90314 320.9375 346.3875Q320.9375 344.825 321.75 343.96564Q322.5625 343.09064 323.84375 343.09064Q325.09375 343.09064 325.875 343.9344Q326.67188 344.77814 326.67188 346.325Q326.67188 346.41876 326.67188 346.60626L322.03125 346.60626Q322.09375 347.6375 322.60938 348.1844Q323.125 348.71564 323.90625 348.71564Q324.48438 348.71564 324.89062 348.41876Q325.3125 348.10626 325.54688 347.45ZM322.09375 345.7469L325.5625 345.7469Q325.5 344.95 325.17188 344.5594Q324.65625 343.95 323.85938 343.95Q323.125 343.95 322.625 344.4344Q322.14062 344.91876 322.09375 345.7469ZM328.28125 349.45L328.28125 343.23126L329.23438 343.23126L329.23438 344.16876Q329.59375 343.5125 329.89062 343.3094Q330.20312 343.09064 330.57812 343.09064Q331.10938 343.09064 331.65625 343.41876L331.29688 344.40314Q330.90625 344.16876 330.53125 344.16876Q330.17188 344.16876 329.89062 344.3875Q329.625 344.59064 329.51562 344.96564Q329.32812 345.52814 329.32812 346.1844L329.32812 349.45L328.28125 349.45ZM334.90625 346.34064Q334.90625 344.60626 335.85938 343.77814Q336.65625 343.09064 337.8125 343.09064Q339.09375 343.09064 339.90625 343.9344Q340.73438 344.7625 340.73438 346.2469Q340.73438 347.45 340.375 348.1375Q340.01562 348.825 339.3125 349.21564Q338.625 349.59064 337.8125 349.59064Q336.51562 349.59064 335.70312 348.7625Q334.90625 347.91876 334.90625 346.34064ZM335.98438 346.34064Q335.98438 347.52814 336.5 348.1219Q337.03125 348.71564 337.8125 348.71564Q338.60938 348.71564 339.125 348.1219Q339.64062 347.52814 339.64062 346.3094Q339.64062 345.15314 339.10938 344.5594Q338.59375 343.96564 337.8125 343.96564Q337.03125 343.96564 336.5 344.5594Q335.98438 345.1375 335.98438 346.34064ZM342.54688 349.45L342.54688 344.04376L341.60938 344.04376L341.60938 343.23126L342.54688 343.23126L342.54688 342.5594Q342.54688 341.9344 342.65625 341.6375Q342.8125 341.21564 343.1875 340.96564Q343.57812 340.71564 344.26562 340.71564Q344.71875 340.71564 345.25 340.825L345.09375 341.73126Q344.76562 341.6844 344.46875 341.6844Q343.98438 341.6844 343.78125 341.8875Q343.59375 342.09064 343.59375 342.65314L343.59375 343.23126L344.8125 343.23126L344.8125 344.04376L343.59375 344.04376L343.59375 349.45L342.54688 349.45ZM348.375 349.45L348.375 340.85626L351.60938 340.85626Q352.59375 340.85626 353.1875 341.1219Q353.78125 341.3875 354.10938 341.9344Q354.45312 342.46564 354.45312 343.0594Q354.45312 343.60626 354.15625 344.09064Q353.85938 344.575 353.25 344.8719Q354.03125 345.10626 354.4375 345.66876Q354.85938 346.21564 354.85938 346.96564Q354.85938 347.5594 354.60938 348.09064Q354.35938 348.60626 353.98438 348.8875Q353.60938 349.16876 353.03125 349.3094Q352.46875 349.45 351.65625 349.45L348.375 349.45ZM349.51562 344.46564L351.375 344.46564Q352.125 344.46564 352.45312 344.3719Q352.89062 344.2469 353.10938 343.95Q353.32812 343.6375 353.32812 343.1844Q353.32812 342.7625 353.125 342.4344Q352.92188 342.10626 352.53125 341.9969Q352.15625 341.8719 351.23438 341.8719L349.51562 341.8719L349.51562 344.46564ZM349.51562 348.4344L351.65625 348.4344Q352.20312 348.4344 352.42188 348.3875Q352.82812 348.325 353.07812 348.16876Q353.34375 347.9969 353.51562 347.6844Q353.6875 347.3719 353.6875 346.96564Q353.6875 346.48126 353.4375 346.1219Q353.20312 345.7625 352.76562 345.6219Q352.32812 345.48126 351.5 345.48126L349.51562 345.48126L349.51562 348.4344ZM355.90625 346.34064Q355.90625 344.60626 356.85938 343.77814Q357.65625 343.09064 358.8125 343.09064Q360.09375 343.09064 360.90625 343.9344Q361.73438 344.7625 361.73438 346.2469Q361.73438 347.45 361.375 348.1375Q361.01562 348.825 360.3125 349.21564Q359.625 349.59064 358.8125 349.59064Q357.51562 349.59064 356.70312 348.7625Q355.90625 347.91876 355.90625 346.34064ZM356.98438 346.34064Q356.98438 347.52814 357.5 348.1219Q358.03125 348.71564 358.8125 348.71564Q359.60938 348.71564 360.125 348.1219Q360.64062 347.52814 360.64062 346.3094Q360.64062 345.15314 360.10938 344.5594Q359.59375 343.96564 358.8125 343.96564Q358.03125 343.96564 357.5 344.5594Q356.98438 345.1375 356.98438 346.34064ZM363.29688 342.075L363.29688 340.85626L364.35938 340.85626L364.35938 342.075L363.29688 342.075ZM363.29688 349.45L363.29688 343.23126L364.35938 343.23126L364.35938 349.45L363.29688 349.45ZM370.32812 349.45L370.32812 348.66876Q369.73438 349.59064 368.59375 349.59064Q367.84375 349.59064 367.21875 349.1844Q366.59375 348.7625 366.25 348.02814Q365.90625 347.29376 365.90625 346.34064Q365.90625 345.41876 366.21875 344.65314Q366.53125 343.8875 367.15625 343.4969Q367.78125 343.09064 368.54688 343.09064Q369.10938 343.09064 369.54688 343.325Q369.98438 343.5594 370.26562 343.9344L370.26562 340.85626L371.3125 340.85626L371.3125 349.45L370.32812 349.45ZM367.0 346.34064Q367.0 347.54376 367.5 348.1375Q368.0 348.71564 368.6875 348.71564Q369.375 348.71564 369.85938 348.15314Q370.34375 347.59064 370.34375 346.4344Q370.34375 345.15314 369.84375 344.5594Q369.35938 343.96564 368.64062 343.96564Q367.9375 343.96564 367.46875 344.54376Q367.0 345.10626 367.0 346.34064ZM372.875 347.59064L373.90625 347.4344Q374.0 348.0594 374.39062 348.3875Q374.79688 348.71564 375.53125 348.71564Q376.25 348.71564 376.59375 348.4344Q376.95312 348.1375 376.95312 347.73126Q376.95312 347.3719 376.64062 347.16876Q376.42188 347.02814 375.5625 346.8094Q374.40625 346.5125 373.95312 346.3094Q373.51562 346.09064 373.28125 345.71564Q373.04688 345.34064 373.04688 344.8719Q373.04688 344.46564 373.23438 344.10626Q373.42188 343.7469 373.75 343.5125Q374.0 343.34064 374.42188 343.21564Q374.84375 343.09064 375.34375 343.09064Q376.0625 343.09064 376.60938 343.3094Q377.17188 343.5125 377.4375 343.8719Q377.70312 344.23126 377.79688 344.825L376.76562 344.96564Q376.70312 344.4969 376.35938 344.23126Q376.03125 343.95 375.40625 343.95Q374.6875 343.95 374.375 344.2Q374.0625 344.4344 374.0625 344.7625Q374.0625 344.96564 374.1875 345.1219Q374.32812 345.29376 374.59375 345.40314Q374.75 345.46564 375.53125 345.66876Q376.65625 345.98126 377.09375 346.16876Q377.53125 346.35626 377.78125 346.71564Q378.03125 347.075 378.03125 347.6219Q378.03125 348.15314 377.71875 348.6219Q377.42188 349.075 376.84375 349.34064Q376.26562 349.59064 375.53125 349.59064Q374.3125 349.59064 373.67188 349.09064Q373.04688 348.575 372.875 347.59064Z" fill-rule="nonzero"/><path fill="#000000" d="M29.550013 235.8823L20.956263 232.58542L20.956263 231.36667L29.550013 227.85104L29.550013 229.1323L26.940638 230.14792L26.940638 233.72604L29.550013 234.67917L29.550013 235.8823ZM26.018763 233.39792L26.018763 230.49167L23.643763 231.3823Q22.565638 231.80417 21.862513 231.99167Q22.690638 232.16354 23.503138 232.46042L26.018763 233.39792ZM29.550013 226.35104L23.331263 228.71042L23.331263 227.60104L27.050013 226.2573Q27.659388 226.05417 28.300013 225.86667Q27.815638 225.72604 27.128138 225.47604L23.331263 224.08542L23.331263 223.0073L29.550013 225.36667L29.550013 226.35104ZM27.550013 218.8198L27.675013 217.72604Q28.628138 217.97604 29.159388 218.67917Q29.690638 219.3823 29.690638 220.46042Q29.690638 221.8198 28.846888 222.6323Q28.003138 223.42917 26.487513 223.42917Q24.925013 223.42917 24.065638 222.61667Q23.190638 221.80417 23.190638 220.52292Q23.190638 219.27292 24.034388 218.49167Q24.878138 217.6948 26.425013 217.6948Q26.518763 217.6948 26.706263 217.6948L26.706263 222.33542Q27.737513 222.27292 28.284388 221.7573Q28.815638 221.24167 28.815638 220.46042Q28.815638 219.8823 28.518763 219.47604Q28.206263 219.05417 27.550013 218.8198ZM25.846888 222.27292L25.846888 218.80417Q25.050013 218.86667 24.659388 219.1948Q24.050013 219.71042 24.050013 220.5073Q24.050013 221.24167 24.534388 221.74167Q25.018763 222.22604 25.846888 222.27292ZM29.550013 216.08542L23.331263 216.08542L23.331263 215.1323L24.268763 215.1323Q23.612513 214.77292 23.409388 214.47604Q23.190638 214.16354 23.190638 213.78854Q23.190638 213.2573 23.518763 212.71042L24.503138 213.0698Q24.268763 213.46042 24.268763 213.83542Q24.268763 214.1948 24.487513 214.47604Q24.690638 214.74167 25.065638 214.85104Q25.628138 215.03854 26.284388 215.03854L29.550013 215.03854L29.550013 216.08542ZM28.784388 208.0073Q29.284388 208.60104 29.487513 209.14792Q29.690638 209.67917 29.690638 210.30417Q29.690638 211.33542 29.190638 211.8823Q28.690638 212.42917 27.909388 212.42917Q27.456263 212.42917 27.081263 212.22604Q26.690638 212.02292 26.471888 211.67917Q26.237513 211.33542 26.128138 210.91354Q26.034388 210.61667 25.956263 209.97604Q25.815638 208.71042 25.596888 208.10104Q25.378138 208.10104 25.331263 208.10104Q24.675013 208.10104 24.409388 208.39792Q24.065638 208.80417 24.065638 209.60104Q24.065638 210.33542 24.331263 210.6948Q24.581263 211.05417 25.237513 211.22604L25.096888 212.2573Q24.440638 212.11667 24.034388 211.78854Q23.628138 211.46042 23.409388 210.85104Q23.190638 210.24167 23.190638 209.4448Q23.190638 208.64792 23.378138 208.14792Q23.565638 207.64792 23.846888 207.41354Q24.128138 207.17917 24.565638 207.08542Q24.831263 207.03854 25.534388 207.03854L26.940638 207.03854Q28.409388 207.03854 28.800013 206.97604Q29.190638 206.89792 29.550013 206.6948L29.550013 207.80417Q29.221888 207.96042 28.784388 208.0073ZM26.425013 208.10104Q26.659388 208.67917 26.831263 209.8198Q26.925013 210.47604 27.050013 210.74167Q27.159388 211.0073 27.378138 211.16354Q27.596888 211.30417 27.878138 211.30417Q28.300013 211.30417 28.581263 210.99167Q28.862513 210.66354 28.862513 210.05417Q28.862513 209.4448 28.596888 208.97604Q28.331263 208.49167 27.862513 208.27292Q27.503138 208.10104 26.815638 208.10104L26.425013 208.10104ZM30.065638 205.27292L30.221888 204.24167Q30.690638 204.17917 30.909388 203.8823Q31.206263 203.49167 31.206263 202.8198Q31.206263 202.08542 30.909388 201.6948Q30.612513 201.28854 30.096888 201.14792Q29.768763 201.05417 28.737513 201.0698Q29.550013 201.7573 29.550013 202.78854Q29.550013 204.0698 28.628138 204.77292Q27.690638 205.47604 26.409388 205.47604Q25.518763 205.47604 24.768763 205.16354Q24.003138 204.83542 23.596888 204.22604Q23.190638 203.61667 23.190638 202.78854Q23.190638 201.67917 24.081263 200.96042L23.331263 200.96042L23.331263 199.99167L28.706263 199.99167Q30.159388 199.99167 30.768763 200.28854Q31.378138 200.58542 31.721888 201.22604Q32.08126 201.86667 32.08126 202.80417Q32.08126 203.91354 31.581263 204.60104Q31.081263 205.28854 30.065638 205.27292ZM26.331263 204.39792Q27.550013 204.39792 28.112513 203.91354Q28.675013 203.42917 28.675013 202.6948Q28.675013 201.96042 28.112513 201.47604Q27.550013 200.97604 26.362513 200.97604Q25.221888 200.97604 24.643763 201.49167Q24.065638 201.99167 24.065638 202.71042Q24.065638 203.41354 24.643763 203.91354Q25.206263 204.39792 26.331263 204.39792ZM27.550013 193.8198L27.675013 192.72604Q28.628138 192.97604 29.159388 193.67917Q29.690638 194.3823 29.690638 195.46042Q29.690638 196.8198 28.846888 197.6323Q28.003138 198.42917 26.487513 198.42917Q24.925013 198.42917 24.065638 197.61667Q23.190638 196.80417 23.190638 195.52292Q23.190638 194.27292 24.034388 193.49167Q24.878138 192.6948 26.425013 192.6948Q26.518763 192.6948 26.706263 192.6948L26.706263 197.33542Q27.737513 197.27292 28.284388 196.7573Q28.815638 196.24167 28.815638 195.46042Q28.815638 194.8823 28.518763 194.47604Q28.206263 194.05417 27.550013 193.8198ZM25.846888 197.27292L25.846888 193.80417Q25.050013 193.86667 24.659388 194.1948Q24.050013 194.71042 24.050013 195.5073Q24.050013 196.24167 24.534388 196.74167Q25.018763 197.22604 25.846888 197.27292ZM29.550013 187.8823L20.956263 187.8823L20.956263 182.08542L21.971888 182.08542L21.971888 186.74167L24.628138 186.74167L24.628138 182.71042L25.643763 182.71042L25.643763 186.74167L29.550013 186.74167L29.550013 187.8823ZM29.550013 180.9448L20.956263 180.9448L20.956263 177.6948Q20.956263 176.85104 21.034388 176.39792Q21.143763 175.7573 21.440638 175.33542Q21.737513 174.89792 22.268763 174.64792Q22.800013 174.3823 23.440638 174.3823Q24.534388 174.3823 25.300013 175.08542Q26.050013 175.77292 26.050013 177.60104L26.050013 179.80417L29.550013 179.80417L29.550013 180.9448ZM25.050013 179.80417L25.050013 177.58542Q25.050013 176.47604 24.643763 176.02292Q24.221888 175.55417 23.471888 175.55417Q22.940638 175.55417 22.565638 175.83542Q22.175013 176.10104 22.050013 176.53854Q21.971888 176.83542 21.971888 177.60104L21.971888 179.80417L25.050013 179.80417ZM26.784388 173.3198L26.690638 172.2573Q27.346888 172.17917 27.753138 171.89792Q28.159388 171.61667 28.425013 171.03854Q28.675013 170.4448 28.675013 169.71042Q28.675013 169.0698 28.487513 168.5698Q28.284388 168.0698 27.956263 167.83542Q27.612513 167.58542 27.221888 167.58542Q26.815638 167.58542 26.518763 167.8198Q26.206263 168.05417 26.003138 168.58542Q25.862513 168.9448 25.581263 170.1323Q25.300013 171.30417 25.050013 171.77292Q24.721888 172.39792 24.253138 172.6948Q23.768763 172.99167 23.175013 172.99167Q22.534388 172.99167 21.971888 172.6323Q21.393763 172.2573 21.112513 171.55417Q20.815638 170.83542 20.815638 169.97604Q20.815638 169.02292 21.128138 168.28854Q21.425013 167.55417 22.034388 167.16354Q22.628138 166.77292 23.378138 166.74167L23.456263 167.83542Q22.643763 167.92917 22.237513 168.4448Q21.815638 168.9448 21.815638 169.92917Q21.815638 170.96042 22.190638 171.42917Q22.565638 171.89792 23.096888 171.89792Q23.565638 171.89792 23.862513 171.5698Q24.159388 171.24167 24.471888 169.86667Q24.784388 168.47604 25.018763 167.96042Q25.378138 167.21042 25.909388 166.85104Q26.425013 166.49167 27.128138 166.49167Q27.815638 166.49167 28.425013 166.8823Q29.018763 167.27292 29.362513 168.0073Q29.690638 168.74167 29.690638 169.66354Q29.690638 170.83542 29.362513 171.6323Q29.018763 172.41354 28.331263 172.86667Q27.643763 173.30417 26.784388 173.3198Z" fill-rule="nonzero"/><path fill="#000000" d="M72.05 300.21564Q72.05 298.6844 72.3625 297.7625Q72.675 296.825 73.28438 296.325Q73.90938 295.825 74.84688 295.825Q75.53438 295.825 76.05 296.10626Q76.58125 296.3875 76.925 296.91876Q77.26875 297.4344 77.45625 298.1844Q77.64375 298.9344 77.64375 300.21564Q77.64375 301.73126 77.33125 302.65314Q77.03438 303.575 76.40938 304.09064Q75.8 304.59064 74.84688 304.59064Q73.6125 304.59064 72.89375 303.7Q72.05 302.6375 72.05 300.21564ZM73.12813 300.21564Q73.12813 302.325 73.62813 303.02814Q74.12813 303.73126 74.84688 303.73126Q75.58125 303.73126 76.06563 303.02814Q76.56563 302.325 76.56563 300.21564Q76.56563 298.09064 76.06563 297.40314Q75.58125 296.7 74.83125 296.7Q74.1125 296.7 73.675 297.3094Q73.12813 298.09064 73.12813 300.21564Z" fill-rule="nonzero"/><path fill="#000000" d="M63.596874 261.00104L63.596874 262.01666L57.909374 262.01666Q57.909374 261.64166 58.034374 261.2823Q58.253124 260.70416 58.721874 260.14166Q59.20625 259.57916 60.1125 258.8448Q61.51875 257.68854 62.003124 257.01666Q62.503124 256.3448 62.503124 255.75104Q62.503124 255.12604 62.05 254.70416Q61.596874 254.26666 60.878124 254.26666Q60.1125 254.26666 59.659374 254.71979Q59.20625 255.17291 59.190624 255.98541L58.1125 255.87604Q58.221874 254.65729 58.940624 254.03229Q59.675 253.39166 60.909374 253.39166Q62.14375 253.39166 62.8625 254.07916Q63.58125 254.76666 63.58125 255.78229Q63.58125 256.2979 63.3625 256.7979Q63.159374 257.2823 62.659374 257.8448Q62.175 258.39166 61.05 259.3448Q60.096874 260.14166 59.815624 260.43854Q59.55 260.7198 59.378124 261.00104L63.596874 261.00104ZM65.05 259.76666L66.15938 259.6729Q66.28438 260.4854 66.72188 260.89166Q67.175 261.2979 67.81563 261.2979Q68.56563 261.2979 69.09688 260.7198Q69.62813 260.14166 69.62813 259.20416Q69.62813 258.2979 69.1125 257.7823Q68.6125 257.25104 67.78438 257.25104Q67.28438 257.25104 66.8625 257.4854Q66.45625 257.7198 66.22188 258.07916L65.2375 257.95416L66.06563 253.54791L70.34688 253.54791L70.34688 254.54791L66.90938 254.54791L66.45625 256.8604Q67.22188 256.31354 68.06563 256.31354Q69.19063 256.31354 69.95625 257.0948Q70.7375 257.87604 70.7375 259.1104Q70.7375 260.26666 70.06563 261.12604Q69.2375 262.1573 67.81563 262.1573Q66.64375 262.1573 65.89375 261.50104Q65.15938 260.8448 65.05 259.76666ZM72.05 257.7823Q72.05 256.25104 72.3625 255.32916Q72.675 254.39166 73.28438 253.89166Q73.90938 253.39166 74.84688 253.39166Q75.53438 253.39166 76.05 253.67291Q76.58125 253.95416 76.925 254.48541Q77.26875 255.00104 77.45625 255.75104Q77.64375 256.50104 77.64375 257.7823Q77.64375 259.2979 77.33125 260.2198Q77.03438 261.14166 76.40938 261.6573Q75.8 262.1573 74.84688 262.1573Q73.6125 262.1573 72.89375 261.26666Q72.05 260.20416 72.05 257.7823ZM73.12813 257.7823Q73.12813 259.89166 73.62813 260.5948Q74.12813 261.2979 74.84688 261.2979Q75.58125 261.2979 76.06563 260.5948Q76.56563 259.89166 76.56563 257.7823Q76.56563 255.65729 76.06563 254.96979Q75.58125 254.26666 74.83125 254.26666Q74.1125 254.26666 73.675 254.87604Q73.12813 255.65729 73.12813 257.7823Z" fill-rule="nonzero"/><path fill="#000000" d="M58.05 217.33333L59.159374 217.23958Q59.284374 218.05208 59.721874 218.45833Q60.175 218.86458 60.815624 218.86458Q61.565624 218.86458 62.096874 218.28645Q62.628124 217.70833 62.628124 216.77083Q62.628124 215.86458 62.1125 215.34895Q61.6125 214.8177 60.784374 214.8177Q60.284374 214.8177 59.8625 215.05208Q59.45625 215.28645 59.221874 215.64583L58.2375 215.52083L59.065624 211.11458L63.346874 211.11458L63.346874 212.11458L59.909374 212.11458L59.45625 214.42708Q60.221874 213.8802 61.065624 213.8802Q62.190624 213.8802 62.95625 214.66145Q63.7375 215.4427 63.7375 216.67708Q63.7375 217.83333 63.065624 218.6927Q62.2375 219.72395 60.815624 219.72395Q59.64375 219.72395 58.89375 219.0677Q58.159374 218.41145 58.05 217.33333ZM65.05 215.34895Q65.05 213.8177 65.3625 212.89583Q65.675 211.95833 66.28438 211.45833Q66.90938 210.95833 67.84688 210.95833Q68.53438 210.95833 69.05 211.23958Q69.58125 211.52083 69.925 212.05208Q70.26875 212.5677 70.45625 213.3177Q70.64375 214.0677 70.64375 215.34895Q70.64375 216.86458 70.33125 217.78645Q70.03438 218.70833 69.40938 219.22395Q68.8 219.72395 67.84688 219.72395Q66.6125 219.72395 65.89375 218.83333Q65.05 217.77083 65.05 215.34895ZM66.12813 215.34895Q66.12813 217.45833 66.62813 218.16145Q67.12813 218.86458 67.84688 218.86458Q68.58125 218.86458 69.06563 218.16145Q69.56563 217.45833 69.56563 215.34895Q69.56563 213.22395 69.06563 212.53645Q68.58125 211.83333 67.83125 211.83333Q67.1125 211.83333 66.675 212.4427Q66.12813 213.22395 66.12813 215.34895ZM72.05 215.34895Q72.05 213.8177 72.3625 212.89583Q72.675 211.95833 73.28438 211.45833Q73.90938 210.95833 74.84688 210.95833Q75.53438 210.95833 76.05 211.23958Q76.58125 211.52083 76.925 212.05208Q77.26875 212.5677 77.45625 213.3177Q77.64375 214.0677 77.64375 215.34895Q77.64375 216.86458 77.33125 217.78645Q77.03438 218.70833 76.40938 219.22395Q75.8 219.72395 74.84688 219.72395Q73.6125 219.72395 72.89375 218.83333Q72.05 217.77083 72.05 215.34895ZM73.12813 215.34895Q73.12813 217.45833 73.62813 218.16145Q74.12813 218.86458 74.84688 218.86458Q75.58125 218.86458 76.06563 218.16145Q76.56563 217.45833 76.56563 215.34895Q76.56563 213.22395 76.06563 212.53645Q75.58125 211.83333 74.83125 211.83333Q74.1125 211.83333 73.675 212.4427Q73.12813 213.22395 73.12813 215.34895Z" fill-rule="nonzero"/><path fill="#000000" d="M58.1125 169.68124L58.1125 168.66562L63.675 168.66562L63.675 169.49374Q62.8625 170.36874 62.05 171.82187Q61.253124 173.25937 60.815624 174.79062Q60.4875 175.86874 60.409374 177.15L59.315624 177.15Q59.33125 176.13437 59.70625 174.69687Q60.096874 173.25937 60.8 171.93124Q61.51875 170.60312 62.33125 169.68124L58.1125 169.68124ZM65.05 174.9L66.15938 174.80624Q66.28438 175.61874 66.72188 176.025Q67.175 176.43124 67.81563 176.43124Q68.56563 176.43124 69.09688 175.85312Q69.62813 175.275 69.62813 174.3375Q69.62813 173.43124 69.1125 172.91562Q68.6125 172.38437 67.78438 172.38437Q67.28438 172.38437 66.8625 172.61874Q66.45625 172.85312 66.22188 173.2125L65.2375 173.0875L66.06563 168.68124L70.34688 168.68124L70.34688 169.68124L66.90938 169.68124L66.45625 171.99374Q67.22188 171.44687 68.06563 171.44687Q69.19063 171.44687 69.95625 172.22812Q70.7375 173.00937 70.7375 174.24374Q70.7375 175.4 70.06563 176.25937Q69.2375 177.29062 67.81563 177.29062Q66.64375 177.29062 65.89375 176.63437Q65.15938 175.97812 65.05 174.9ZM72.05 172.91562Q72.05 171.38437 72.3625 170.4625Q72.675 169.525 73.28438 169.025Q73.90938 168.525 74.84688 168.525Q75.53438 168.525 76.05 168.80624Q76.58125 169.0875 76.925 169.61874Q77.26875 170.13437 77.45625 170.88437Q77.64375 171.63437 77.64375 172.91562Q77.64375 174.43124 77.33125 175.35312Q77.03438 176.275 76.40938 176.79062Q75.8 177.29062 74.84688 177.29062Q73.6125 177.29062 72.89375 176.4Q72.05 175.3375 72.05 172.91562ZM73.12813 172.91562Q73.12813 175.025 73.62813 175.72812Q74.12813 176.43124 74.84688 176.43124Q75.58125 176.43124 76.06563 175.72812Q76.56563 175.025 76.56563 172.91562Q76.56563 170.79062 76.06563 170.10312Q75.58125 169.4 74.83125 169.4Q74.1125 169.4 73.675 170.00937Q73.12813 170.79062 73.12813 172.91562Z" fill-rule="nonzero"/><path fill="#000000" d="M55.01875 134.71666L53.971874 134.71666L53.971874 127.99791Q53.58125 128.35728 52.95625 128.73228Q52.346874 129.09166 51.8625 129.26353L51.8625 128.24791Q52.7375 127.826035 53.39375 127.24791Q54.065624 126.65416 54.346874 126.09166L55.01875 126.09166L55.01875 134.71666ZM58.05 130.48228Q58.05 128.95103 58.3625 128.02916Q58.675 127.09166 59.284374 126.59166Q59.909374 126.09166 60.846874 126.09166Q61.534374 126.09166 62.05 126.37291Q62.58125 126.65416 62.925 127.18541Q63.26875 127.701035 63.45625 128.45103Q63.64375 129.20103 63.64375 130.48228Q63.64375 131.99791 63.33125 132.91978Q63.034374 133.84166 62.409374 134.35728Q61.8 134.85728 60.846874 134.85728Q59.6125 134.85728 58.89375 133.96666Q58.05 132.90416 58.05 130.48228ZM59.128124 130.48228Q59.128124 132.59166 59.628124 133.29478Q60.128124 133.99791 60.846874 133.99791Q61.58125 133.99791 62.065624 133.29478Q62.565624 132.59166 62.565624 130.48228Q62.565624 128.35728 62.065624 127.669785Q61.58125 126.96666 60.83125 126.96666Q60.1125 126.96666 59.675 127.576035Q59.128124 128.35728 59.128124 130.48228ZM65.05 130.48228Q65.05 128.95103 65.3625 128.02916Q65.675 127.09166 66.28438 126.59166Q66.90938 126.09166 67.84688 126.09166Q68.53438 126.09166 69.05 126.37291Q69.58125 126.65416 69.925 127.18541Q70.26875 127.701035 70.45625 128.45103Q70.64375 129.20103 70.64375 130.48228Q70.64375 131.99791 70.33125 132.91978Q70.03438 133.84166 69.40938 134.35728Q68.8 134.85728 67.84688 134.85728Q66.6125 134.85728 65.89375 133.96666Q65.05 132.90416 65.05 130.48228ZM66.12813 130.48228Q66.12813 132.59166 66.62813 133.29478Q67.12813 133.99791 67.84688 133.99791Q68.58125 133.99791 69.06563 133.29478Q69.56563 132.59166 69.56563 130.48228Q69.56563 128.35728 69.06563 127.669785Q68.58125 126.96666 67.83125 126.96666Q67.1125 126.96666 66.675 127.576035Q66.12813 128.35728 66.12813 130.48228ZM72.05 130.48228Q72.05 128.95103 72.3625 128.02916Q72.675 127.09166 73.28438 126.59166Q73.90938 126.09166 74.84688 126.09166Q75.53438 126.09166 76.05 126.37291Q76.58125 126.65416 76.925 127.18541Q77.26875 127.701035 77.45625 128.45103Q77.64375 129.20103 77.64375 130.48228Q77.64375 131.99791 77.33125 132.91978Q77.03438 133.84166 76.40938 134.35728Q75.8 134.85728 74.84688 134.85728Q73.6125 134.85728 72.89375 133.96666Q72.05 132.90416 72.05 130.48228ZM73.12813 130.48228Q73.12813 132.59166 73.62813 133.29478Q74.12813 133.99791 74.84688 133.99791Q75.58125 133.99791 76.06563 133.29478Q76.56563 132.59166 76.56563 130.48228Q76.56563 128.35728 76.06563 127.669785Q75.58125 126.96666 74.83125 126.96666Q74.1125 126.96666 73.675 127.576035Q73.12813 128.35728 73.12813 130.48228Z" fill-rule="nonzero"/><path fill="#000000" d="M55.01875 92.28333L53.971874 92.28333L53.971874 85.56458Q53.58125 85.92396 52.95625 86.29896Q52.346874 86.65833 51.8625 86.83021L51.8625 85.81458Q52.7375 85.39271 53.39375 84.81458Q54.065624 84.22083 54.346874 83.65833L55.01875 83.65833L55.01875 92.28333ZM63.596874 91.26771L63.596874 92.28333L57.909374 92.28333Q57.909374 91.90833 58.034374 91.54896Q58.253124 90.97083 58.721874 90.40833Q59.20625 89.84583 60.1125 89.11146Q61.51875 87.95521 62.003124 87.28333Q62.503124 86.61146 62.503124 86.01771Q62.503124 85.39271 62.05 84.97083Q61.596874 84.53333 60.878124 84.53333Q60.1125 84.53333 59.659374 84.98646Q59.20625 85.43958 59.190624 86.25208L58.1125 86.14271Q58.221874 84.92396 58.940624 84.29896Q59.675 83.65833 60.909374 83.65833Q62.14375 83.65833 62.8625 84.34583Q63.58125 85.03333 63.58125 86.04896Q63.58125 86.56458 63.3625 87.06458Q63.159374 87.54896 62.659374 88.11146Q62.175 88.65833 61.05 89.61146Q60.096874 90.40833 59.815624 90.70521Q59.55 90.98646 59.378124 91.26771L63.596874 91.26771ZM65.05 90.03333L66.15938 89.93958Q66.28438 90.75208 66.72188 91.15833Q67.175 91.56458 67.81563 91.56458Q68.56563 91.56458 69.09688 90.98646Q69.62813 90.40833 69.62813 89.47083Q69.62813 88.56458 69.1125 88.04896Q68.6125 87.51771 67.78438 87.51771Q67.28438 87.51771 66.8625 87.75208Q66.45625 87.98646 66.22188 88.34583L65.2375 88.22083L66.06563 83.81458L70.34688 83.81458L70.34688 84.81458L66.90938 84.81458L66.45625 87.12708Q67.22188 86.58021 68.06563 86.58021Q69.19063 86.58021 69.95625 87.36146Q70.7375 88.14271 70.7375 89.37708Q70.7375 90.53333 70.06563 91.39271Q69.2375 92.42396 67.81563 92.42396Q66.64375 92.42396 65.89375 91.76771Q65.15938 91.11146 65.05 90.03333ZM72.05 88.04896Q72.05 86.51771 72.3625 85.59583Q72.675 84.65833 73.28438 84.15833Q73.90938 83.65833 74.84688 83.65833Q75.53438 83.65833 76.05 83.93958Q76.58125 84.22083 76.925 84.75208Q77.26875 85.26771 77.45625 86.01771Q77.64375 86.76771 77.64375 88.04896Q77.64375 89.56458 77.33125 90.48646Q77.03438 91.40833 76.40938 91.92396Q75.8 92.42396 74.84688 92.42396Q73.6125 92.42396 72.89375 91.53333Q72.05 90.47083 72.05 88.04896ZM73.12813 88.04896Q73.12813 90.15833 73.62813 90.86146Q74.12813 91.56458 74.84688 91.56458Q75.58125 91.56458 76.06563 90.86146Q76.56563 90.15833 76.56563 88.04896Q76.56563 85.92396 76.06563 85.23646Q75.58125 84.53333 74.83125 84.53333Q74.1125 84.53333 73.675 85.14271Q73.12813 85.92396 73.12813 88.04896Z" fill-rule="nonzero"/><path fill="#000000" d="M120.74 315.2L121.84937 315.10626Q121.97437 315.91876 122.41187 316.325Q122.865 316.73126 123.50562 316.73126Q124.25562 316.73126 124.78687 316.15314Q125.31812 315.575 125.31812 314.6375Q125.31812 313.73126 124.8025 313.21564Q124.3025 312.6844 123.47437 312.6844Q122.97437 312.6844 122.5525 312.91876Q122.14625 313.15314 121.91187 313.5125L120.9275 313.3875L121.75562 308.98126L126.03687 308.98126L126.03687 309.98126L122.59937 309.98126L122.14625 312.29376Q122.91187 311.7469 123.75562 311.7469Q124.88062 311.7469 125.64625 312.52814Q126.4275 313.3094 126.4275 314.54376Q126.4275 315.7 125.75562 316.5594Q124.9275 317.59064 123.50562 317.59064Q122.33375 317.59064 121.58375 316.9344Q120.84937 316.27814 120.74 315.2ZM127.74 313.21564Q127.74 311.6844 128.05249 310.7625Q128.36499 309.825 128.97437 309.325Q129.59937 308.825 130.53687 308.825Q131.22437 308.825 131.73999 309.10626Q132.27124 309.3875 132.61499 309.91876Q132.95874 310.4344 133.14624 311.1844Q133.33374 311.9344 133.33374 313.21564Q133.33374 314.73126 133.02124 315.65314Q132.72437 316.575 132.09937 317.09064Q131.48999 317.59064 130.53687 317.59064Q129.30249 317.59064 128.58374 316.7Q127.74 315.6375 127.74 313.21564ZM128.81812 313.21564Q128.81812 315.325 129.31812 316.02814Q129.81812 316.73126 130.53687 316.73126Q131.27124 316.73126 131.75562 316.02814Q132.25562 315.325 132.25562 313.21564Q132.25562 311.09064 131.75562 310.40314Q131.27124 309.7 130.52124 309.7Q129.80249 309.7 129.36499 310.3094Q128.81812 311.09064 128.81812 313.21564ZM134.73999 313.21564Q134.73999 311.6844 135.05249 310.7625Q135.36499 309.825 135.97437 309.325Q136.59937 308.825 137.53687 308.825Q138.22437 308.825 138.73999 309.10626Q139.27124 309.3875 139.61499 309.91876Q139.95874 310.4344 140.14624 311.1844Q140.33374 311.9344 140.33374 313.21564Q140.33374 314.73126 140.02124 315.65314Q139.72437 316.575 139.09937 317.09064Q138.48999 317.59064 137.53687 317.59064Q136.30249 317.59064 135.58374 316.7Q134.73999 315.6375 134.73999 313.21564ZM135.81812 313.21564Q135.81812 315.325 136.31812 316.02814Q136.81812 316.73126 137.53687 316.73126Q138.27124 316.73126 138.75562 316.02814Q139.25562 315.325 139.25562 313.21564Q139.25562 311.09064 138.75562 310.40314Q138.27124 309.7 137.52124 309.7Q136.80249 309.7 136.36499 310.3094Q135.81812 311.09064 135.81812 313.21564ZM141.73999 313.21564Q141.73999 311.6844 142.05249 310.7625Q142.36499 309.825 142.97437 309.325Q143.59937 308.825 144.53687 308.825Q145.22437 308.825 145.73999 309.10626Q146.27124 309.3875 146.61499 309.91876Q146.95874 310.4344 147.14624 311.1844Q147.33374 311.9344 147.33374 313.21564Q147.33374 314.73126 147.02124 315.65314Q146.72437 316.575 146.09937 317.09064Q145.48999 317.59064 144.53687 317.59064Q143.30249 317.59064 142.58374 316.7Q141.73999 315.6375 141.73999 313.21564ZM142.81812 313.21564Q142.81812 315.325 143.31812 316.02814Q143.81812 316.73126 144.53687 316.73126Q145.27124 316.73126 145.75562 316.02814Q146.25562 315.325 146.25562 313.21564Q146.25562 311.09064 145.75562 310.40314Q145.27124 309.7 144.52124 309.7Q143.80249 309.7 143.36499 310.3094Q142.81812 311.09064 142.81812 313.21564Z" fill-rule="nonzero"/><path fill="#000000" d="M220.58875 317.45L219.54187 317.45L219.54187 310.73126Q219.15125 311.09064 218.52625 311.46564Q217.91687 311.825 217.4325 311.9969L217.4325 310.98126Q218.3075 310.5594 218.96375 309.98126Q219.63562 309.3875 219.91687 308.825L220.58875 308.825L220.58875 317.45ZM223.62 313.21564Q223.62 311.6844 223.9325 310.7625Q224.245 309.825 224.85437 309.325Q225.47937 308.825 226.41687 308.825Q227.10437 308.825 227.62 309.10626Q228.15125 309.3875 228.495 309.91876Q228.83875 310.4344 229.02625 311.1844Q229.21375 311.9344 229.21375 313.21564Q229.21375 314.73126 228.90125 315.65314Q228.60437 316.575 227.97937 317.09064Q227.37 317.59064 226.41687 317.59064Q225.1825 317.59064 224.46375 316.7Q223.62 315.6375 223.62 313.21564ZM224.69812 313.21564Q224.69812 315.325 225.19812 316.02814Q225.69812 316.73126 226.41687 316.73126Q227.15125 316.73126 227.63562 316.02814Q228.13562 315.325 228.13562 313.21564Q228.13562 311.09064 227.63562 310.40314Q227.15125 309.7 226.40125 309.7Q225.6825 309.7 225.245 310.3094Q224.69812 311.09064 224.69812 313.21564ZM230.62 313.21564Q230.62 311.6844 230.9325 310.7625Q231.245 309.825 231.85437 309.325Q232.47937 308.825 233.41687 308.825Q234.10437 308.825 234.62 309.10626Q235.15125 309.3875 235.495 309.91876Q235.83875 310.4344 236.02625 311.1844Q236.21375 311.9344 236.21375 313.21564Q236.21375 314.73126 235.90125 315.65314Q235.60437 316.575 234.97937 317.09064Q234.37 317.59064 233.41687 317.59064Q232.1825 317.59064 231.46375 316.7Q230.62 315.6375 230.62 313.21564ZM231.69812 313.21564Q231.69812 315.325 232.19812 316.02814Q232.69812 316.73126 233.41687 316.73126Q234.15125 316.73126 234.63562 316.02814Q235.13562 315.325 235.13562 313.21564Q235.13562 311.09064 234.63562 310.40314Q234.15125 309.7 233.40125 309.7Q232.6825 309.7 232.245 310.3094Q231.69812 311.09064 231.69812 313.21564ZM237.62 313.21564Q237.62 311.6844 237.9325 310.7625Q238.245 309.825 238.85437 309.325Q239.47937 308.825 240.41687 308.825Q241.10437 308.825 241.62 309.10626Q242.15125 309.3875 242.495 309.91876Q242.83875 310.4344 243.02625 311.1844Q243.21375 311.9344 243.21375 313.21564Q243.21375 314.73126 242.90125 315.65314Q242.60437 316.575 241.97937 317.09064Q241.37 317.59064 240.41687 317.59064Q239.1825 317.59064 238.46375 316.7Q237.62 315.6375 237.62 313.21564ZM238.69812 313.21564Q238.69812 315.325 239.19812 316.02814Q239.69812 316.73126 240.41687 316.73126Q241.15125 316.73126 241.63562 316.02814Q242.13562 315.325 242.13562 313.21564Q242.13562 311.09064 241.63562 310.40314Q241.15125 309.7 240.40125 309.7Q239.6825 309.7 239.245 310.3094Q238.69812 311.09064 238.69812 313.21564ZM244.62 313.21564Q244.62 311.6844 244.9325 310.7625Q245.245 309.825 245.85437 309.325Q246.47937 308.825 247.41687 308.825Q248.10437 308.825 248.62 309.10626Q249.15125 309.3875 249.495 309.91876Q249.83875 310.4344 250.02625 311.1844Q250.21375 311.9344 250.21375 313.21564Q250.21375 314.73126 249.90125 315.65314Q249.60437 316.575 248.97937 317.09064Q248.37 317.59064 247.41687 317.59064Q246.1825 317.59064 245.46375 316.7Q244.62 315.6375 244.62 313.21564ZM245.69812 313.21564Q245.69812 315.325 246.19812 316.02814Q246.69812 316.73126 247.41687 316.73126Q248.15125 316.73126 248.63562 316.02814Q249.13562 315.325 249.13562 313.21564Q249.13562 311.09064 248.63562 310.40314Q248.15125 309.7 247.40125 309.7Q246.6825 309.7 246.245 310.3094Q245.69812 311.09064 245.69812 313.21564Z" fill-rule="nonzero"/><path fill="#000000" d="M321.54688 316.4344L321.54688 317.45L315.85938 317.45Q315.85938 317.075 315.98438 316.71564Q316.20312 316.1375 316.67188 315.575Q317.15625 315.0125 318.0625 314.27814Q319.46875 313.1219 319.95312 312.45Q320.45312 311.77814 320.45312 311.1844Q320.45312 310.5594 320.0 310.1375Q319.54688 309.7 318.82812 309.7Q318.0625 309.7 317.60938 310.15314Q317.15625 310.60626 317.14062 311.41876L316.0625 311.3094Q316.17188 310.09064 316.89062 309.46564Q317.625 308.825 318.85938 308.825Q320.09375 308.825 320.8125 309.5125Q321.53125 310.2 321.53125 311.21564Q321.53125 311.73126 321.3125 312.23126Q321.10938 312.71564 320.60938 313.27814Q320.125 313.825 319.0 314.77814Q318.04688 315.575 317.76562 315.8719Q317.5 316.15314 317.32812 316.4344L321.54688 316.4344ZM323.0 313.21564Q323.0 311.6844 323.3125 310.7625Q323.625 309.825 324.23438 309.325Q324.85938 308.825 325.79688 308.825Q326.48438 308.825 327.0 309.10626Q327.53125 309.3875 327.875 309.91876Q328.21875 310.4344 328.40625 311.1844Q328.59375 311.9344 328.59375 313.21564Q328.59375 314.73126 328.28125 315.65314Q327.98438 316.575 327.35938 317.09064Q326.75 317.59064 325.79688 317.59064Q324.5625 317.59064 323.84375 316.7Q323.0 315.6375 323.0 313.21564ZM324.07812 313.21564Q324.07812 315.325 324.57812 316.02814Q325.07812 316.73126 325.79688 316.73126Q326.53125 316.73126 327.01562 316.02814Q327.51562 315.325 327.51562 313.21564Q327.51562 311.09064 327.01562 310.40314Q326.53125 309.7 325.78125 309.7Q325.0625 309.7 324.625 310.3094Q324.07812 311.09064 324.07812 313.21564ZM330.0 313.21564Q330.0 311.6844 330.3125 310.7625Q330.625 309.825 331.23438 309.325Q331.85938 308.825 332.79688 308.825Q333.48438 308.825 334.0 309.10626Q334.53125 309.3875 334.875 309.91876Q335.21875 310.4344 335.40625 311.1844Q335.59375 311.9344 335.59375 313.21564Q335.59375 314.73126 335.28125 315.65314Q334.98438 316.575 334.35938 317.09064Q333.75 317.59064 332.79688 317.59064Q331.5625 317.59064 330.84375 316.7Q330.0 315.6375 330.0 313.21564ZM331.07812 313.21564Q331.07812 315.325 331.57812 316.02814Q332.07812 316.73126 332.79688 316.73126Q333.53125 316.73126 334.01562 316.02814Q334.51562 315.325 334.51562 313.21564Q334.51562 311.09064 334.01562 310.40314Q333.53125 309.7 332.78125 309.7Q332.0625 309.7 331.625 310.3094Q331.07812 311.09064 331.07812 313.21564ZM337.0 313.21564Q337.0 311.6844 337.3125 310.7625Q337.625 309.825 338.23438 309.325Q338.85938 308.825 339.79688 308.825Q340.48438 308.825 341.0 309.10626Q341.53125 309.3875 341.875 309.91876Q342.21875 310.4344 342.40625 311.1844Q342.59375 311.9344 342.59375 313.21564Q342.59375 314.73126 342.28125 315.65314Q341.98438 316.575 341.35938 317.09064Q340.75 317.59064 339.79688 317.59064Q338.5625 317.59064 337.84375 316.7Q337.0 315.6375 337.0 313.21564ZM338.07812 313.21564Q338.07812 315.325 338.57812 316.02814Q339.07812 316.73126 339.79688 316.73126Q340.53125 316.73126 341.01562 316.02814Q341.51562 315.325 341.51562 313.21564Q341.51562 311.09064 341.01562 310.40314Q340.53125 309.7 339.78125 309.7Q339.0625 309.7 338.625 310.3094Q338.07812 311.09064 338.07812 313.21564ZM344.0 313.21564Q344.0 311.6844 344.3125 310.7625Q344.625 309.825 345.23438 309.325Q345.85938 308.825 346.79688 308.825Q347.48438 308.825 348.0 309.10626Q348.53125 309.3875 348.875 309.91876Q349.21875 310.4344 349.40625 311.1844Q349.59375 311.9344 349.59375 313.21564Q349.59375 314.73126 349.28125 315.65314Q348.98438 316.575 348.35938 317.09064Q347.75 317.59064 346.79688 317.59064Q345.5625 317.59064 344.84375 316.7Q344.0 315.6375 344.0 313.21564ZM345.07812 313.21564Q345.07812 315.325 345.57812 316.02814Q346.07812 316.73126 346.79688 316.73126Q347.53125 316.73126 348.01562 316.02814Q348.51562 315.325 348.51562 313.21564Q348.51562 311.09064 348.01562 310.40314Q347.53125 309.7 346.78125 309.7Q346.0625 309.7 345.625 310.3094Q345.07812 311.09064 345.07812 313.21564Z" fill-rule="nonzero"/><path fill="#000000" d="M415.38 315.2L416.48938 315.10626Q416.61438 315.91876 417.05188 316.325Q417.505 316.73126 418.14563 316.73126Q418.89563 316.73126 419.42688 316.15314Q419.95813 315.575 419.95813 314.6375Q419.95813 313.73126 419.4425 313.21564Q418.9425 312.6844 418.11438 312.6844Q417.61438 312.6844 417.1925 312.91876Q416.78625 313.15314 416.55188 313.5125L415.5675 313.3875L416.39563 308.98126L420.67688 308.98126L420.67688 309.98126L417.23938 309.98126L416.78625 312.29376Q417.55188 311.7469 418.39563 311.7469Q419.52063 311.7469 420.28625 312.52814Q421.0675 313.3094 421.0675 314.54376Q421.0675 315.7 420.39563 316.5594Q419.5675 317.59064 418.14563 317.59064Q416.97375 317.59064 416.22375 316.9344Q415.48938 316.27814 415.38 315.2ZM422.38 313.21564Q422.38 311.6844 422.6925 310.7625Q423.005 309.825 423.61438 309.325Q424.23938 308.825 425.17688 308.825Q425.86438 308.825 426.38 309.10626Q426.91125 309.3875 427.255 309.91876Q427.59875 310.4344 427.78625 311.1844Q427.97375 311.9344 427.97375 313.21564Q427.97375 314.73126 427.66125 315.65314Q427.36438 316.575 426.73938 317.09064Q426.13 317.59064 425.17688 317.59064Q423.9425 317.59064 423.22375 316.7Q422.38 315.6375 422.38 313.21564ZM423.45813 313.21564Q423.45813 315.325 423.95813 316.02814Q424.45813 316.73126 425.17688 316.73126Q425.91125 316.73126 426.39563 316.02814Q426.89563 315.325 426.89563 313.21564Q426.89563 311.09064 426.39563 310.40314Q425.91125 309.7 425.16125 309.7Q424.4425 309.7 424.005 310.3094Q423.45813 311.09064 423.45813 313.21564ZM429.38 313.21564Q429.38 311.6844 429.6925 310.7625Q430.005 309.825 430.61438 309.325Q431.23938 308.825 432.17688 308.825Q432.86438 308.825 433.38 309.10626Q433.91125 309.3875 434.255 309.91876Q434.59875 310.4344 434.78625 311.1844Q434.97375 311.9344 434.97375 313.21564Q434.97375 314.73126 434.66125 315.65314Q434.36438 316.575 433.73938 317.09064Q433.13 317.59064 432.17688 317.59064Q430.9425 317.59064 430.22375 316.7Q429.38 315.6375 429.38 313.21564ZM430.45813 313.21564Q430.45813 315.325 430.95813 316.02814Q431.45813 316.73126 432.17688 316.73126Q432.91125 316.73126 433.39563 316.02814Q433.89563 315.325 433.89563 313.21564Q433.89563 311.09064 433.39563 310.40314Q432.91125 309.7 432.16125 309.7Q431.4425 309.7 431.005 310.3094Q430.45813 311.09064 430.45813 313.21564ZM436.38 313.21564Q436.38 311.6844 436.6925 310.7625Q437.005 309.825 437.61438 309.325Q438.23938 308.825 439.17688 308.825Q439.86438 308.825 440.38 309.10626Q440.91125 309.3875 441.255 309.91876Q441.59875 310.4344 441.78625 311.1844Q441.97375 311.9344 441.97375 313.21564Q441.97375 314.73126 441.66125 315.65314Q441.36438 316.575 440.73938 317.09064Q440.13 317.59064 439.17688 317.59064Q437.9425 317.59064 437.22375 316.7Q436.38 315.6375 436.38 313.21564ZM437.45813 313.21564Q437.45813 315.325 437.95813 316.02814Q438.45813 316.73126 439.17688 316.73126Q439.91125 316.73126 440.39563 316.02814Q440.89563 315.325 440.89563 313.21564Q440.89563 311.09064 440.39563 310.40314Q439.91125 309.7 439.16125 309.7Q438.4425 309.7 438.005 310.3094Q437.45813 311.09064 437.45813 313.21564ZM443.38 313.21564Q443.38 311.6844 443.6925 310.7625Q444.005 309.825 444.61438 309.325Q445.23938 308.825 446.17688 308.825Q446.86438 308.825 447.38 309.10626Q447.91125 309.3875 448.255 309.91876Q448.59875 310.4344 448.78625 311.1844Q448.97375 311.9344 448.97375 313.21564Q448.97375 314.73126 448.66125 315.65314Q448.36438 316.575 447.73938 317.09064Q447.13 317.59064 446.17688 317.59064Q444.9425 317.59064 444.22375 316.7Q443.38 315.6375 443.38 313.21564ZM444.45813 313.21564Q444.45813 315.325 444.95813 316.02814Q445.45813 316.73126 446.17688 316.73126Q446.91125 316.73126 447.39563 316.02814Q447.89563 315.325 447.89563 313.21564Q447.89563 311.09064 447.39563 310.40314Q446.91125 309.7 446.16125 309.7Q445.4425 309.7 445.005 310.3094Q444.45813 311.09064 444.45813 313.21564Z" fill-rule="nonzero"/><path fill="#000000" d="M515.22876 317.45L514.1819 317.45L514.1819 310.73126Q513.79126 311.09064 513.16626 311.46564Q512.5569 311.825 512.0725 311.9969L512.0725 310.98126Q512.9475 310.5594 513.60376 309.98126Q514.27563 309.3875 514.5569 308.825L515.22876 308.825L515.22876 317.45ZM518.26 313.21564Q518.26 311.6844 518.5725 310.7625Q518.885 309.825 519.4944 309.325Q520.1194 308.825 521.0569 308.825Q521.7444 308.825 522.26 309.10626Q522.79126 309.3875 523.135 309.91876Q523.47876 310.4344 523.66626 311.1844Q523.85376 311.9344 523.85376 313.21564Q523.85376 314.73126 523.54126 315.65314Q523.2444 316.575 522.6194 317.09064Q522.01 317.59064 521.0569 317.59064Q519.8225 317.59064 519.10376 316.7Q518.26 315.6375 518.26 313.21564ZM519.33813 313.21564Q519.33813 315.325 519.83813 316.02814Q520.33813 316.73126 521.0569 316.73126Q521.79126 316.73126 522.27563 316.02814Q522.77563 315.325 522.77563 313.21564Q522.77563 311.09064 522.27563 310.40314Q521.79126 309.7 521.04126 309.7Q520.3225 309.7 519.885 310.3094Q519.33813 311.09064 519.33813 313.21564ZM525.26 313.21564Q525.26 311.6844 525.5725 310.7625Q525.885 309.825 526.4944 309.325Q527.1194 308.825 528.0569 308.825Q528.7444 308.825 529.26 309.10626Q529.79126 309.3875 530.135 309.91876Q530.47876 310.4344 530.66626 311.1844Q530.85376 311.9344 530.85376 313.21564Q530.85376 314.73126 530.54126 315.65314Q530.2444 316.575 529.6194 317.09064Q529.01 317.59064 528.0569 317.59064Q526.8225 317.59064 526.10376 316.7Q525.26 315.6375 525.26 313.21564ZM526.33813 313.21564Q526.33813 315.325 526.83813 316.02814Q527.33813 316.73126 528.0569 316.73126Q528.79126 316.73126 529.27563 316.02814Q529.77563 315.325 529.77563 313.21564Q529.77563 311.09064 529.27563 310.40314Q528.79126 309.7 528.04126 309.7Q527.3225 309.7 526.885 310.3094Q526.33813 311.09064 526.33813 313.21564ZM532.26 313.21564Q532.26 311.6844 532.5725 310.7625Q532.885 309.825 533.4944 309.325Q534.1194 308.825 535.0569 308.825Q535.7444 308.825 536.26 309.10626Q536.79126 309.3875 537.135 309.91876Q537.47876 310.4344 537.66626 311.1844Q537.85376 311.9344 537.85376 313.21564Q537.85376 314.73126 537.54126 315.65314Q537.2444 316.575 536.6194 317.09064Q536.01 317.59064 535.0569 317.59064Q533.8225 317.59064 533.10376 316.7Q532.26 315.6375 532.26 313.21564ZM533.33813 313.21564Q533.33813 315.325 533.83813 316.02814Q534.33813 316.73126 535.0569 316.73126Q535.79126 316.73126 536.27563 316.02814Q536.77563 315.325 536.77563 313.21564Q536.77563 311.09064 536.27563 310.40314Q535.79126 309.7 535.04126 309.7Q534.3225 309.7 533.885 310.3094Q533.33813 311.09064 533.33813 313.21564ZM539.26 313.21564Q539.26 311.6844 539.5725 310.7625Q539.885 309.825 540.4944 309.325Q541.1194 308.825 542.0569 308.825Q542.7444 308.825 543.26 309.10626Q543.79126 309.3875 544.135 309.91876Q544.47876 310.4344 544.66626 311.1844Q544.85376 311.9344 544.85376 313.21564Q544.85376 314.73126 544.54126 315.65314Q544.2444 316.575 543.6194 317.09064Q543.01 317.59064 542.0569 317.59064Q540.8225 317.59064 540.10376 316.7Q539.26 315.6375 539.26 313.21564ZM540.33813 313.21564Q540.33813 315.325 540.83813 316.02814Q541.33813 316.73126 542.0569 316.73126Q542.79126 316.73126 543.27563 316.02814Q543.77563 315.325 543.77563 313.21564Q543.77563 311.09064 543.27563 310.40314Q542.79126 309.7 542.04126 309.7Q541.3225 309.7 540.885 310.3094Q540.33813 311.09064 540.33813 313.21564ZM546.26 313.21564Q546.26 311.6844 546.5725 310.7625Q546.885 309.825 547.4944 309.325Q548.1194 308.825 549.0569 308.825Q549.7444 308.825 550.26 309.10626Q550.79126 309.3875 551.135 309.91876Q551.47876 310.4344 551.66626 311.1844Q551.85376 311.9344 551.85376 313.21564Q551.85376 314.73126 551.54126 315.65314Q551.2444 316.575 550.6194 317.09064Q550.01 317.59064 549.0569 317.59064Q547.8225 317.59064 547.10376 316.7Q546.26 315.6375 546.26 313.21564ZM547.33813 313.21564Q547.33813 315.325 547.83813 316.02814Q548.33813 316.73126 549.0569 316.73126Q549.79126 316.73126 550.27563 316.02814Q550.77563 315.325 550.77563 313.21564Q550.77563 311.09064 550.27563 310.40314Q549.79126 309.7 549.04126 309.7Q548.3225 309.7 547.885 310.3094Q547.33813 311.09064 547.33813 313.21564Z" fill-rule="nonzero"/><path stroke="#4285f4" stroke-width="4.0" stroke-linecap="butt" d="M187.0 61.916668L199.0 61.916668" fill-rule="nonzero"/><path fill="#1a1a1a" d="M207.92188 65.916664L207.92188 57.322914L209.07812 57.322914L213.59375 64.072914L213.59375 57.322914L214.6875 57.322914L214.6875 65.916664L213.51562 65.916664L209.0 59.166664L209.0 65.916664L207.92188 65.916664ZM220.85938 65.15104Q220.26562 65.65104 219.71875 65.854164Q219.1875 66.05729 218.5625 66.05729Q217.53125 66.05729 216.98438 65.55729Q216.4375 65.05729 216.4375 64.27604Q216.4375 63.822914 216.64062 63.447914Q216.84375 63.05729 217.1875 62.83854Q217.53125 62.604164 217.95312 62.49479Q218.25 62.40104 218.89062 62.322914Q220.15625 62.18229 220.76562 61.96354Q220.76562 61.74479 220.76562 61.697914Q220.76562 61.041664 220.46875 60.77604Q220.0625 60.43229 219.26562 60.43229Q218.53125 60.43229 218.17188 60.697914Q217.8125 60.947914 217.64062 61.604164L216.60938 61.46354Q216.75 60.80729 217.07812 60.40104Q217.40625 59.99479 218.01562 59.77604Q218.625 59.55729 219.42188 59.55729Q220.21875 59.55729 220.71875 59.74479Q221.21875 59.93229 221.45312 60.21354Q221.6875 60.49479 221.78125 60.93229Q221.82812 61.197914 221.82812 61.90104L221.82812 63.30729Q221.82812 64.77604 221.89062 65.166664Q221.96875 65.55729 222.17188 65.916664L221.0625 65.916664Q220.90625 65.58854 220.85938 65.15104ZM220.76562 62.791664Q220.1875 63.02604 219.04688 63.197914Q218.39062 63.291664 218.125 63.416664Q217.85938 63.52604 217.70312 63.74479Q217.5625 63.96354 217.5625 64.24479Q217.5625 64.666664 217.875 64.947914Q218.20312 65.229164 218.8125 65.229164Q219.42188 65.229164 219.89062 64.96354Q220.375 64.697914 220.59375 64.229164Q220.76562 63.86979 220.76562 63.18229L220.76562 62.791664ZM223.79688 58.541664L223.79688 57.322914L224.85938 57.322914L224.85938 58.541664L223.79688 58.541664ZM223.79688 65.916664L223.79688 59.697914L224.85938 59.697914L224.85938 65.916664L223.79688 65.916664ZM228.51562 65.916664L226.15625 59.697914L227.26562 59.697914L228.60938 63.416664Q228.8125 64.02604 229.0 64.666664Q229.14062 64.18229 229.39062 63.49479L230.78125 59.697914L231.85938 59.697914L229.5 65.916664L228.51562 65.916664ZM236.04688 63.916664L237.14062 64.041664Q236.89062 64.99479 236.1875 65.52604Q235.48438 66.05729 234.40625 66.05729Q233.04688 66.05729 232.23438 65.21354Q231.4375 64.36979 231.4375 62.854164Q231.4375 61.291664 232.25 60.43229Q233.0625 59.55729 234.34375 59.55729Q235.59375 59.55729 236.375 60.40104Q237.17188 61.24479 237.17188 62.791664Q237.17188 62.885414 237.17188 63.072914L232.53125 63.072914Q232.59375 64.104164 233.10938 64.65104Q233.625 65.18229 234.40625 65.18229Q234.98438 65.18229 235.39062 64.885414Q235.8125 64.572914 236.04688 63.916664ZM232.59375 62.21354L236.0625 62.21354Q236.0 61.416664 235.67188 61.02604Q235.15625 60.416664 234.35938 60.416664Q233.625 60.416664 233.125 60.90104Q232.64062 61.385414 232.59375 62.21354Z" fill-rule="nonzero"/><path stroke="#ea4335" stroke-width="4.0" stroke-linecap="butt" d="M254.0 61.916668L266.0 61.916668" fill-rule="nonzero"/><path fill="#1a1a1a" d="M274.54688 63.15104L275.60938 63.05729Q275.6875 63.71354 275.96875 64.11979Q276.25 64.52604 276.82812 64.791664Q277.42188 65.041664 278.15625 65.041664Q278.79688 65.041664 279.29688 64.854164Q279.79688 64.65104 280.03125 64.322914Q280.28125 63.979164 280.28125 63.58854Q280.28125 63.18229 280.04688 62.885414Q279.8125 62.572914 279.28125 62.36979Q278.92188 62.229164 277.73438 61.947914Q276.5625 61.666664 276.09375 61.416664Q275.46875 61.08854 275.17188 60.61979Q274.875 60.135414 274.875 59.541664Q274.875 58.90104 275.23438 58.33854Q275.60938 57.760414 276.3125 57.479164Q277.03125 57.18229 277.89062 57.18229Q278.84375 57.18229 279.57812 57.49479Q280.3125 57.791664 280.70312 58.40104Q281.09375 58.99479 281.125 59.74479L280.03125 59.822914Q279.9375 59.010414 279.42188 58.604164Q278.92188 58.18229 277.9375 58.18229Q276.90625 58.18229 276.4375 58.55729Q275.96875 58.93229 275.96875 59.46354Q275.96875 59.93229 276.29688 60.229164Q276.625 60.52604 278.0 60.83854Q279.39062 61.15104 279.90625 61.385414Q280.65625 61.74479 281.01562 62.27604Q281.375 62.791664 281.375 63.49479Q281.375 64.18229 280.98438 64.791664Q280.59375 65.385414 279.85938 65.729164Q279.125 66.05729 278.20312 66.05729Q277.03125 66.05729 276.23438 65.729164Q275.45312 65.385414 275.0 64.697914Q274.5625 64.010414 274.54688 63.15104ZM286.85938 63.635414L287.89062 63.77604Q287.71875 64.83854 287.01562 65.447914Q286.3125 66.05729 285.29688 66.05729Q284.01562 66.05729 283.23438 65.229164Q282.46875 64.385414 282.46875 62.822914Q282.46875 61.822914 282.79688 61.072914Q283.14062 60.30729 283.8125 59.93229Q284.5 59.55729 285.3125 59.55729Q286.3125 59.55729 286.95312 60.072914Q287.60938 60.572914 287.79688 61.52604L286.76562 61.68229Q286.625 61.05729 286.25 60.74479Q285.875 60.416664 285.34375 60.416664Q284.54688 60.416664 284.04688 60.99479Q283.54688 61.55729 283.54688 62.791664Q283.54688 64.05729 284.03125 64.61979Q284.51562 65.18229 285.28125 65.18229Q285.90625 65.18229 286.3125 64.80729Q286.73438 64.43229 286.85938 63.635414ZM292.85938 65.15104Q292.26562 65.65104 291.71875 65.854164Q291.1875 66.05729 290.5625 66.05729Q289.53125 66.05729 288.98438 65.55729Q288.4375 65.05729 288.4375 64.27604Q288.4375 63.822914 288.64062 63.447914Q288.84375 63.05729 289.1875 62.83854Q289.53125 62.604164 289.95312 62.49479Q290.25 62.40104 290.89062 62.322914Q292.15625 62.18229 292.76562 61.96354Q292.76562 61.74479 292.76562 61.697914Q292.76562 61.041664 292.46875 60.77604Q292.0625 60.43229 291.26562 60.43229Q290.53125 60.43229 290.17188 60.697914Q289.8125 60.947914 289.64062 61.604164L288.60938 61.46354Q288.75 60.80729 289.07812 60.40104Q289.40625 59.99479 290.01562 59.77604Q290.625 59.55729 291.42188 59.55729Q292.21875 59.55729 292.71875 59.74479Q293.21875 59.93229 293.45312 60.21354Q293.6875 60.49479 293.78125 60.93229Q293.82812 61.197914 293.82812 61.90104L293.82812 63.30729Q293.82812 64.77604 293.89062 65.166664Q293.96875 65.55729 294.17188 65.916664L293.0625 65.916664Q292.90625 65.58854 292.85938 65.15104ZM292.76562 62.791664Q292.1875 63.02604 291.04688 63.197914Q290.39062 63.291664 290.125 63.416664Q289.85938 63.52604 289.70312 63.74479Q289.5625 63.96354 289.5625 64.24479Q289.5625 64.666664 289.875 64.947914Q290.20312 65.229164 290.8125 65.229164Q291.42188 65.229164 291.89062 64.96354Q292.375 64.697914 292.59375 64.229164Q292.76562 63.86979 292.76562 63.18229L292.76562 62.791664ZM298.09375 64.979164L298.25 65.90104Q297.79688 65.99479 297.45312 65.99479Q296.875 65.99479 296.5625 65.822914Q296.25 65.635414 296.10938 65.33854Q295.98438 65.041664 295.98438 64.08854L295.98438 60.510414L295.21875 60.510414L295.21875 59.697914L295.98438 59.697914L295.98438 58.15104L297.03125 57.52604L297.03125 59.697914L298.09375 59.697914L298.09375 60.510414L297.03125 60.510414L297.03125 64.15104Q297.03125 64.604164 297.07812 64.729164Q297.14062 64.854164 297.26562 64.93229Q297.39062 65.010414 297.625 65.010414Q297.8125 65.010414 298.09375 64.979164ZM301.09375 64.979164L301.25 65.90104Q300.79688 65.99479 300.45312 65.99479Q299.875 65.99479 299.5625 65.822914Q299.25 65.635414 299.10938 65.33854Q298.98438 65.041664 298.98438 64.08854L298.98438 60.510414L298.21875 60.510414L298.21875 59.697914L298.98438 59.697914L298.98438 58.15104L300.03125 57.52604L300.03125 59.697914L301.09375 59.697914L301.09375 60.510414L300.03125 60.510414L300.03125 64.15104Q300.03125 64.604164 300.07812 64.729164Q300.14062 64.854164 300.26562 64.93229Q300.39062 65.010414 300.625 65.010414Q300.8125 65.010414 301.09375 64.979164ZM306.04688 63.916664L307.14062 64.041664Q306.89062 64.99479 306.1875 65.52604Q305.48438 66.05729 304.40625 66.05729Q303.04688 66.05729 302.23438 65.21354Q301.4375 64.36979 301.4375 62.854164Q301.4375 61.291664 302.25 60.43229Q303.0625 59.55729 304.34375 59.55729Q305.59375 59.55729 306.375 60.40104Q307.17188 61.24479 307.17188 62.791664Q307.17188 62.885414 307.17188 63.072914L302.53125 63.072914Q302.59375 64.104164 303.10938 64.65104Q303.625 65.18229 304.40625 65.18229Q304.98438 65.18229 305.39062 64.885414Q305.8125 64.572914 306.04688 63.916664ZM302.59375 62.21354L306.0625 62.21354Q306.0 61.416664 305.67188 61.02604Q305.15625 60.416664 304.35938 60.416664Q303.625 60.416664 303.125 60.90104Q302.64062 61.385414 302.59375 62.21354ZM308.78125 65.916664L308.78125 59.697914L309.73438 59.697914L309.73438 60.635414Q310.09375 59.979164 310.39062 59.77604Q310.70312 59.55729 311.07812 59.55729Q311.60938 59.55729 312.15625 59.885414L311.79688 60.86979Q311.40625 60.635414 311.03125 60.635414Q310.67188 60.635414 310.39062 60.854164Q310.125 61.05729 310.01562 61.43229Q309.82812 61.99479 309.82812 62.65104L309.82812 65.916664L308.78125 65.916664ZM317.04688 63.916664L318.14062 64.041664Q317.89062 64.99479 317.1875 65.52604Q316.48438 66.05729 315.40625 66.05729Q314.04688 66.05729 313.23438 65.21354Q312.4375 64.36979 312.4375 62.854164Q312.4375 61.291664 313.25 60.43229Q314.0625 59.55729 315.34375 59.55729Q316.59375 59.55729 317.375 60.40104Q318.17188 61.24479 318.17188 62.791664Q318.17188 62.885414 318.17188 63.072914L313.53125 63.072914Q313.59375 64.104164 314.10938 64.65104Q314.625 65.18229 315.40625 65.18229Q315.98438 65.18229 316.39062 64.885414Q316.8125 64.572914 317.04688 63.916664ZM313.59375 62.21354L317.0625 62.21354Q317.0 61.416664 316.67188 61.02604Q316.15625 60.416664 315.35938 60.416664Q314.625 60.416664 314.125 60.90104Q313.64062 61.385414 313.59375 62.21354ZM323.82812 65.916664L323.82812 65.135414Q323.23438 66.05729 322.09375 66.05729Q321.34375 66.05729 320.71875 65.65104Q320.09375 65.229164 319.75 64.49479Q319.40625 63.760414 319.40625 62.80729Q319.40625 61.885414 319.71875 61.11979Q320.03125 60.354164 320.65625 59.96354Q321.28125 59.55729 322.04688 59.55729Q322.60938 59.55729 323.04688 59.791664Q323.48438 60.02604 323.76562 60.40104L323.76562 57.322914L324.8125 57.322914L324.8125 65.916664L323.82812 65.916664ZM320.5 62.80729Q320.5 64.010414 321.0 64.604164Q321.5 65.18229 322.1875 65.18229Q322.875 65.18229 323.35938 64.61979Q323.84375 64.05729 323.84375 62.90104Q323.84375 61.61979 323.34375 61.02604Q322.85938 60.43229 322.14062 60.43229Q321.4375 60.43229 320.96875 61.010414Q320.5 61.572914 320.5 62.80729Z" fill-rule="nonzero"/><path stroke="#fbbc04" stroke-width="4.0" stroke-linecap="butt" d="M342.0 61.916668L354.0 61.916668" fill-rule="nonzero"/><path fill="#1a1a1a" d="M369.0625 62.90104L370.1875 63.197914Q369.82812 64.58854 368.90625 65.322914Q367.98438 66.05729 366.64062 66.05729Q365.25 66.05729 364.375 65.49479Q363.5 64.93229 363.04688 63.86979Q362.59375 62.791664 362.59375 61.55729Q362.59375 60.21354 363.10938 59.21354Q363.625 58.21354 364.5625 57.697914Q365.51562 57.18229 366.65625 57.18229Q367.9375 57.18229 368.8125 57.83854Q369.70312 58.49479 370.04688 59.68229L368.92188 59.947914Q368.625 59.010414 368.04688 58.58854Q367.48438 58.15104 366.625 58.15104Q365.64062 58.15104 364.96875 58.635414Q364.3125 59.104164 364.03125 59.90104Q363.76562 60.697914 363.76562 61.55729Q363.76562 62.65104 364.07812 63.46354Q364.40625 64.27604 365.07812 64.68229Q365.75 65.08854 366.54688 65.08854Q367.5 65.08854 368.15625 64.541664Q368.82812 63.99479 369.0625 62.90104ZM371.40625 62.80729Q371.40625 61.072914 372.35938 60.24479Q373.15625 59.55729 374.3125 59.55729Q375.59375 59.55729 376.40625 60.40104Q377.23438 61.229164 377.23438 62.71354Q377.23438 63.916664 376.875 64.604164Q376.51562 65.291664 375.8125 65.68229Q375.125 66.05729 374.3125 66.05729Q373.01562 66.05729 372.20312 65.229164Q371.40625 64.385414 371.40625 62.80729ZM372.48438 62.80729Q372.48438 63.99479 373.0 64.58854Q373.53125 65.18229 374.3125 65.18229Q375.10938 65.18229 375.625 64.58854Q376.14062 63.99479 376.14062 62.77604Q376.14062 61.61979 375.60938 61.02604Q375.09375 60.43229 374.3125 60.43229Q373.53125 60.43229 373.0 61.02604Q372.48438 61.604164 372.48438 62.80729ZM378.79688 65.916664L378.79688 57.322914L379.84375 57.322914L379.84375 60.40104Q380.57812 59.55729 381.70312 59.55729Q382.40625 59.55729 382.90625 59.83854Q383.42188 60.104164 383.64062 60.58854Q383.85938 61.05729 383.85938 61.979164L383.85938 65.916664L382.8125 65.916664L382.8125 61.979164Q382.8125 61.18229 382.46875 60.822914Q382.125 60.46354 381.5 60.46354Q381.03125 60.46354 380.60938 60.71354Q380.20312 60.947914 380.01562 61.36979Q379.84375 61.77604 379.84375 62.510414L379.84375 65.916664L378.79688 65.916664ZM390.04688 63.916664L391.14062 64.041664Q390.89062 64.99479 390.1875 65.52604Q389.48438 66.05729 388.40625 66.05729Q387.04688 66.05729 386.23438 65.21354Q385.4375 64.36979 385.4375 62.854164Q385.4375 61.291664 386.25 60.43229Q387.0625 59.55729 388.34375 59.55729Q389.59375 59.55729 390.375 60.40104Q391.17188 61.24479 391.17188 62.791664Q391.17188 62.885414 391.17188 63.072914L386.53125 63.072914Q386.59375 64.104164 387.10938 64.65104Q387.625 65.18229 388.40625 65.18229Q388.98438 65.18229 389.39062 64.885414Q389.8125 64.572914 390.04688 63.916664ZM386.59375 62.21354L390.0625 62.21354Q390.0 61.416664 389.67188 61.02604Q389.15625 60.416664 388.35938 60.416664Q387.625 60.416664 387.125 60.90104Q386.64062 61.385414 386.59375 62.21354ZM392.78125 65.916664L392.78125 59.697914L393.73438 59.697914L393.73438 60.635414Q394.09375 59.979164 394.39062 59.77604Q394.70312 59.55729 395.07812 59.55729Q395.60938 59.55729 396.15625 59.885414L395.79688 60.86979Q395.40625 60.635414 395.03125 60.635414Q394.67188 60.635414 394.39062 60.854164Q394.125 61.05729 394.01562 61.43229Q393.82812 61.99479 393.82812 62.65104L393.82812 65.916664L392.78125 65.916664ZM401.04688 63.916664L402.14062 64.041664Q401.89062 64.99479 401.1875 65.52604Q400.48438 66.05729 399.40625 66.05729Q398.04688 66.05729 397.23438 65.21354Q396.4375 64.36979 396.4375 62.854164Q396.4375 61.291664 397.25 60.43229Q398.0625 59.55729 399.34375 59.55729Q400.59375 59.55729 401.375 60.40104Q402.17188 61.24479 402.17188 62.791664Q402.17188 62.885414 402.17188 63.072914L397.53125 63.072914Q397.59375 64.104164 398.10938 64.65104Q398.625 65.18229 399.40625 65.18229Q399.98438 65.18229 400.39062 64.885414Q400.8125 64.572914 401.04688 63.916664ZM397.59375 62.21354L401.0625 62.21354Q401.0 61.416664 400.67188 61.02604Q400.15625 60.416664 399.35938 60.416664Q398.625 60.416664 398.125 60.90104Q397.64062 61.385414 397.59375 62.21354ZM403.79688 65.916664L403.79688 59.697914L404.73438 59.697914L404.73438 60.572914Q405.42188 59.55729 406.71875 59.55729Q407.28125 59.55729 407.75 59.760414Q408.23438 59.96354 408.46875 60.291664Q408.70312 60.61979 408.79688 61.05729Q408.84375 61.354164 408.84375 62.08854L408.84375 65.916664L407.79688 65.916664L407.79688 62.135414Q407.79688 61.479164 407.67188 61.166664Q407.54688 60.854164 407.23438 60.666664Q406.92188 60.46354 406.5 60.46354Q405.82812 60.46354 405.32812 60.90104Q404.84375 61.322914 404.84375 62.510414L404.84375 65.916664L403.79688 65.916664ZM413.09375 64.979164L413.25 65.90104Q412.79688 65.99479 412.45312 65.99479Q411.875 65.99479 411.5625 65.822914Q411.25 65.635414 411.10938 65.33854Q410.98438 65.041664 410.98438 64.08854L410.98438 60.510414L410.21875 60.510414L410.21875 59.697914L410.98438 59.697914L410.98438 58.15104L412.03125 57.52604L412.03125 59.697914L413.09375 59.697914L413.09375 60.510414L412.03125 60.510414L412.03125 64.15104Q412.03125 64.604164 412.07812 64.729164Q412.14062 64.854164 412.26562 64.93229Q412.39062 65.010414 412.625 65.010414Q412.8125 65.010414 413.09375 64.979164Z" fill-rule="nonzero"/><path fill="#757575" d="M151.53125 37.55L151.53125 23.2375L153.46875 23.2375L160.98438 34.471874L160.98438 23.2375L162.79688 23.2375L162.79688 37.55L160.85938 37.55L153.34375 26.3L153.34375 37.55L151.53125 37.55ZM171.10938 37.55L171.10938 36.01875Q169.90625 37.784374 167.82812 37.784374Q166.90625 37.784374 166.10938 37.440624Q165.3125 37.08125 164.92188 36.55Q164.54688 36.01875 164.39062 35.2375Q164.28125 34.721874 164.28125 33.596874L164.28125 27.175L166.03125 27.175L166.03125 32.925Q166.03125 34.3 166.14062 34.784374Q166.3125 35.471874 166.84375 35.878124Q167.39062 36.26875 168.17188 36.26875Q168.96875 36.26875 169.65625 35.8625Q170.35938 35.45625 170.64062 34.76875Q170.9375 34.065624 170.9375 32.7375L170.9375 27.175L172.6875 27.175L172.6875 37.55L171.10938 37.55ZM174.3125 37.55L174.3125 27.175L175.89062 27.175L175.89062 28.628124Q176.375 27.878124 177.1875 27.409374Q178.0 26.940624 179.03125 26.940624Q180.1875 26.940624 180.92188 27.425Q181.65625 27.89375 181.96875 28.753124Q183.20312 26.940624 185.17188 26.940624Q186.71875 26.940624 187.54688 27.8Q188.375 28.659374 188.375 30.425L188.375 37.55L186.625 37.55L186.625 31.01875Q186.625 29.95625 186.45312 29.503124Q186.28125 29.034374 185.82812 28.753124Q185.39062 28.471874 184.78125 28.471874Q183.6875 28.471874 182.95312 29.20625Q182.23438 29.925 182.23438 31.51875L182.23438 37.55L180.48438 37.55L180.48438 30.815624Q180.48438 29.64375 180.04688 29.065624Q179.625 28.471874 178.64062 28.471874Q177.90625 28.471874 177.26562 28.8625Q176.64062 29.253124 176.35938 30.003124Q176.07812 30.753124 176.07812 32.175L176.07812 37.55L174.3125 37.55ZM191.9375 37.55L190.3125 37.55L190.3125 23.2375L192.0625 23.2375L192.0625 28.346874Q193.1875 26.940624 194.90625 26.940624Q195.85938 26.940624 196.71875 27.33125Q197.57812 27.721874 198.125 28.425Q198.67188 29.1125 198.98438 30.096874Q199.29688 31.08125 199.29688 32.20625Q199.29688 34.878124 197.98438 36.33125Q196.67188 37.784374 194.82812 37.784374Q192.98438 37.784374 191.9375 36.253124L191.9375 37.55ZM191.92188 32.284374Q191.92188 34.14375 192.42188 34.9875Q193.26562 36.33125 194.67188 36.33125Q195.82812 36.33125 196.65625 35.33125Q197.5 34.33125 197.5 32.346874Q197.5 30.315624 196.6875 29.3625Q195.89062 28.39375 194.75 28.39375Q193.59375 28.39375 192.75 29.39375Q191.92188 30.39375 191.92188 32.284374ZM208.42188 34.20625L210.23438 34.440624Q209.8125 36.01875 208.64062 36.909374Q207.48438 37.784374 205.67188 37.784374Q203.40625 37.784374 202.0625 36.39375Q200.73438 34.9875 200.73438 32.45625Q200.73438 29.83125 202.07812 28.39375Q203.42188 26.940624 205.57812 26.940624Q207.65625 26.940624 208.96875 28.3625Q210.29688 29.76875 210.29688 32.346874Q210.29688 32.503124 210.28125 32.815624L202.54688 32.815624Q202.64062 34.51875 203.51562 35.425Q204.39062 36.33125 205.6875 36.33125Q206.65625 36.33125 207.32812 35.83125Q208.01562 35.315624 208.42188 34.20625ZM202.64062 31.3625L208.4375 31.3625Q208.32812 30.065624 207.78125 29.409374Q206.9375 28.39375 205.59375 28.39375Q204.39062 28.39375 203.5625 29.20625Q202.73438 30.003124 202.64062 31.3625ZM212.29688 37.55L212.29688 27.175L213.875 27.175L213.875 28.753124Q214.48438 27.64375 215.0 27.3Q215.51562 26.940624 216.125 26.940624Q217.01562 26.940624 217.9375 27.503124L217.32812 29.14375Q216.6875 28.753124 216.04688 28.753124Q215.46875 28.753124 215.0 29.1125Q214.54688 29.45625 214.34375 30.065624Q214.0625 31.003124 214.0625 32.1125L214.0625 37.55L212.29688 37.55ZM224.67188 32.3625Q224.67188 29.4875 226.26562 28.096874Q227.60938 26.940624 229.53125 26.940624Q231.67188 26.940624 233.01562 28.346874Q234.375 29.753124 234.375 32.221874Q234.375 34.221874 233.78125 35.378124Q233.1875 36.51875 232.03125 37.159374Q230.89062 37.784374 229.53125 37.784374Q227.34375 37.784374 226.0 36.39375Q224.67188 34.9875 224.67188 32.3625ZM226.46875 32.3625Q226.46875 34.3625 227.32812 35.346874Q228.20312 36.33125 229.53125 36.33125Q230.84375 36.33125 231.70312 35.346874Q232.57812 34.346874 232.57812 32.3Q232.57812 30.378124 231.70312 29.39375Q230.82812 28.39375 229.53125 28.39375Q228.20312 28.39375 227.32812 29.39375Q226.46875 30.378124 226.46875 32.3625ZM236.73438 37.55L236.73438 28.55L235.1875 28.55L235.1875 27.175L236.73438 27.175L236.73438 26.08125Q236.73438 25.034374 236.92188 24.51875Q237.17188 23.83125 237.8125 23.409374Q238.45312 22.9875 239.60938 22.9875Q240.35938 22.9875 241.25 23.159374L240.98438 24.690624Q240.4375 24.596874 239.95312 24.596874Q239.15625 24.596874 238.8125 24.940624Q238.48438 25.284374 238.48438 26.221874L238.48438 27.175L240.51562 27.175L240.51562 28.55L238.48438 28.55L238.48438 37.55L236.73438 37.55ZM248.46875 37.55L248.46875 23.2375L253.84375 23.2375Q255.48438 23.2375 256.46875 23.675Q257.45312 24.096874 258.01562 25.003124Q258.57812 25.909374 258.57812 26.89375Q258.57812 27.815624 258.07812 28.628124Q257.59375 29.440624 256.57812 29.925Q257.875 30.315624 258.57812 31.2375Q259.28125 32.14375 259.28125 33.39375Q259.28125 34.409374 258.84375 35.26875Q258.42188 36.128124 257.79688 36.596874Q257.17188 37.065624 256.23438 37.315624Q255.29688 37.55 253.92188 37.55L248.46875 37.55ZM250.35938 29.253124L253.45312 29.253124Q254.71875 29.253124 255.26562 29.08125Q255.98438 28.8625 256.34375 28.378124Q256.71875 27.878124 256.71875 27.1125Q256.71875 26.409374 256.375 25.8625Q256.03125 25.315624 255.39062 25.128124Q254.76562 24.925 253.21875 24.925L250.35938 24.925L250.35938 29.253124ZM250.35938 35.8625L253.92188 35.8625Q254.84375 35.8625 255.21875 35.784374Q255.875 35.675 256.3125 35.409374Q256.75 35.128124 257.03125 34.6125Q257.3125 34.08125 257.3125 33.39375Q257.3125 32.596874 256.90625 32.003124Q256.5 31.409374 255.76562 31.175Q255.03125 30.940624 253.67188 30.940624L250.35938 30.940624L250.35938 35.8625ZM260.67188 32.3625Q260.67188 29.4875 262.26562 28.096874Q263.60938 26.940624 265.53125 26.940624Q267.67188 26.940624 269.01562 28.346874Q270.375 29.753124 270.375 32.221874Q270.375 34.221874 269.78125 35.378124Q269.1875 36.51875 268.03125 37.159374Q266.89062 37.784374 265.53125 37.784374Q263.34375 37.784374 262.0 36.39375Q260.67188 34.9875 260.67188 32.3625ZM262.46875 32.3625Q262.46875 34.3625 263.32812 35.346874Q264.20312 36.33125 265.53125 36.33125Q266.84375 36.33125 267.70312 35.346874Q268.57812 34.346874 268.57812 32.3Q268.57812 30.378124 267.70312 29.39375Q266.82812 28.39375 265.53125 28.39375Q264.20312 28.39375 263.32812 29.39375Q262.46875 30.378124 262.46875 32.3625ZM272.32812 25.253124L272.32812 23.2375L274.09375 23.2375L274.09375 25.253124L272.32812 25.253124ZM272.32812 37.55L272.32812 27.175L274.09375 27.175L274.09375 37.55L272.32812 37.55ZM283.04688 37.55L283.04688 36.2375Q282.0625 37.784374 280.14062 37.784374Q278.90625 37.784374 277.85938 37.096874Q276.82812 36.409374 276.25 35.190624Q275.6875 33.971874 275.6875 32.378124Q275.6875 30.815624 276.20312 29.55Q276.71875 28.284374 277.75 27.6125Q278.79688 26.940624 280.0625 26.940624Q281.0 26.940624 281.73438 27.346874Q282.46875 27.7375 282.9375 28.3625L282.9375 23.2375L284.67188 23.2375L284.67188 37.55L283.04688 37.55ZM277.48438 32.378124Q277.48438 34.3625 278.32812 35.346874Q279.17188 36.33125 280.3125 36.33125Q281.46875 36.33125 282.26562 35.39375Q283.07812 34.45625 283.07812 32.51875Q283.07812 30.39375 282.25 29.39375Q281.4375 28.39375 280.23438 28.39375Q279.0625 28.39375 278.26562 29.3625Q277.48438 30.315624 277.48438 32.378124ZM286.60938 34.45625L288.35938 34.175Q288.5 35.221874 289.17188 35.784374Q289.84375 36.33125 291.04688 36.33125Q292.25 36.33125 292.82812 35.846874Q293.42188 35.346874 293.42188 34.690624Q293.42188 34.096874 292.90625 33.753124Q292.54688 33.51875 291.10938 33.159374Q289.17188 32.659374 288.42188 32.315624Q287.6875 31.95625 287.29688 31.33125Q286.90625 30.690624 286.90625 29.925Q286.90625 29.2375 287.21875 28.64375Q287.54688 28.05 288.09375 27.659374Q288.5 27.3625 289.20312 27.159374Q289.92188 26.940624 290.73438 26.940624Q291.95312 26.940624 292.875 27.3Q293.79688 27.64375 294.23438 28.253124Q294.67188 28.846874 294.84375 29.846874L293.125 30.08125Q293.0 29.284374 292.4375 28.846874Q291.875 28.39375 290.85938 28.39375Q289.64062 28.39375 289.125 28.8Q288.60938 29.190624 288.60938 29.721874Q288.60938 30.065624 288.82812 30.346874Q289.03125 30.628124 289.5 30.815624Q289.76562 30.909374 291.04688 31.253124Q292.92188 31.753124 293.65625 32.08125Q294.39062 32.39375 294.8125 33.003124Q295.23438 33.596874 295.23438 34.503124Q295.23438 35.378124 294.71875 36.159374Q294.20312 36.940624 293.23438 37.3625Q292.26562 37.784374 291.04688 37.784374Q289.03125 37.784374 287.96875 36.940624Q286.90625 36.096874 286.60938 34.45625ZM306.20312 37.55L302.25 27.175L304.10938 27.175L306.34375 33.39375Q306.70312 34.39375 307.0 35.471874Q307.23438 34.659374 307.65625 33.503124L309.95312 27.175L311.76562 27.175L307.84375 37.55L306.20312 37.55ZM311.60938 34.45625L313.35938 34.175Q313.5 35.221874 314.17188 35.784374Q314.84375 36.33125 316.04688 36.33125Q317.25 36.33125 317.82812 35.846874Q318.42188 35.346874 318.42188 34.690624Q318.42188 34.096874 317.90625 33.753124Q317.54688 33.51875 316.10938 33.159374Q314.17188 32.659374 313.42188 32.315624Q312.6875 31.95625 312.29688 31.33125Q311.90625 30.690624 311.90625 29.925Q311.90625 29.2375 312.21875 28.64375Q312.54688 28.05 313.09375 27.659374Q313.5 27.3625 314.20312 27.159374Q314.92188 26.940624 315.73438 26.940624Q316.95312 26.940624 317.875 27.3Q318.79688 27.64375 319.23438 28.253124Q319.67188 28.846874 319.84375 29.846874L318.125 30.08125Q318.0 29.284374 317.4375 28.846874Q316.875 28.39375 315.85938 28.39375Q314.64062 28.39375 314.125 28.8Q313.60938 29.190624 313.60938 29.721874Q313.60938 30.065624 313.82812 30.346874Q314.03125 30.628124 314.5 30.815624Q314.76562 30.909374 316.04688 31.253124Q317.92188 31.753124 318.65625 32.08125Q319.39062 32.39375 319.8125 33.003124Q320.23438 33.596874 320.23438 34.503124Q320.23438 35.378124 319.71875 36.159374Q319.20312 36.940624 318.23438 37.3625Q317.26562 37.784374 316.04688 37.784374Q314.03125 37.784374 312.96875 36.940624Q311.90625 36.096874 311.60938 34.45625ZM322.8125 37.55L322.8125 35.55L324.8125 35.55L324.8125 37.55L322.8125 37.55ZM332.96875 37.55L338.46875 23.2375L340.51562 23.2375L346.375 37.55L344.21875 37.55L342.54688 33.20625L336.5625 33.20625L334.98438 37.55L332.96875 37.55ZM337.10938 31.675L341.95312 31.675L340.46875 27.70625Q339.78125 25.89375 339.45312 24.7375Q339.17188 26.1125 338.67188 27.471874L337.10938 31.675ZM350.20312 37.55L346.25 27.175L348.10938 27.175L350.34375 33.39375Q350.70312 34.39375 351.0 35.471874Q351.23438 34.659374 351.65625 33.503124L353.95312 27.175L355.76562 27.175L351.84375 37.55L350.20312 37.55ZM363.42188 34.20625L365.23438 34.440624Q364.8125 36.01875 363.64062 36.909374Q362.48438 37.784374 360.67188 37.784374Q358.40625 37.784374 357.0625 36.39375Q355.73438 34.9875 355.73438 32.45625Q355.73438 29.83125 357.07812 28.39375Q358.42188 26.940624 360.57812 26.940624Q362.65625 26.940624 363.96875 28.3625Q365.29688 29.76875 365.29688 32.346874Q365.29688 32.503124 365.28125 32.815624L357.54688 32.815624Q357.64062 34.51875 358.51562 35.425Q359.39062 36.33125 360.6875 36.33125Q361.65625 36.33125 362.32812 35.83125Q363.01562 35.315624 363.42188 34.20625ZM357.64062 31.3625L363.4375 31.3625Q363.32812 30.065624 362.78125 29.409374Q361.9375 28.39375 360.59375 28.39375Q359.39062 28.39375 358.5625 29.20625Q357.73438 30.003124 357.64062 31.3625ZM367.29688 37.55L367.29688 27.175L368.875 27.175L368.875 28.753124Q369.48438 27.64375 370.0 27.3Q370.51562 26.940624 371.125 26.940624Q372.01562 26.940624 372.9375 27.503124L372.32812 29.14375Q371.6875 28.753124 371.04688 28.753124Q370.46875 28.753124 370.0 29.1125Q369.54688 29.45625 369.34375 30.065624Q369.0625 31.003124 369.0625 32.1125L369.0625 37.55L367.29688 37.55ZM381.09375 36.26875Q380.10938 37.096874 379.20312 37.440624Q378.29688 37.784374 377.26562 37.784374Q375.5625 37.784374 374.64062 36.95625Q373.71875 36.1125 373.71875 34.815624Q373.71875 34.05 374.0625 33.425Q374.42188 32.8 374.98438 32.425Q375.54688 32.034374 376.25 31.83125Q376.76562 31.70625 377.8125 31.565624Q379.9375 31.315624 380.9375 30.971874Q380.95312 30.6125 380.95312 30.503124Q380.95312 29.440624 380.45312 28.9875Q379.78125 28.39375 378.45312 28.39375Q377.20312 28.39375 376.60938 28.83125Q376.03125 29.26875 375.75 30.378124L374.03125 30.14375Q374.26562 29.034374 374.79688 28.3625Q375.32812 27.675 376.34375 27.315624Q377.35938 26.940624 378.70312 26.940624Q380.03125 26.940624 380.85938 27.253124Q381.6875 27.565624 382.07812 28.05Q382.46875 28.51875 382.625 29.2375Q382.71875 29.690624 382.71875 30.8625L382.71875 33.20625Q382.71875 35.659374 382.82812 36.315624Q382.9375 36.95625 383.28125 37.55L381.4375 37.55Q381.17188 37.003124 381.09375 36.26875ZM380.9375 32.346874Q379.98438 32.7375 378.0625 33.003124Q376.98438 33.159374 376.53125 33.3625Q376.09375 33.55 375.84375 33.925Q375.59375 34.3 375.59375 34.76875Q375.59375 35.471874 376.125 35.940624Q376.65625 36.409374 377.6875 36.409374Q378.70312 36.409374 379.48438 35.971874Q380.28125 35.51875 380.65625 34.753124Q380.9375 34.14375 380.9375 32.9875L380.9375 32.346874ZM385.0 38.409374L386.70312 38.659374Q386.8125 39.45625 387.29688 39.815624Q387.95312 40.3 389.09375 40.3Q390.3125 40.3 390.96875 39.815624Q391.64062 39.33125 391.875 38.45625Q392.01562 37.909374 392.0 36.190624Q390.84375 37.55 389.125 37.55Q386.98438 37.55 385.8125 36.003124Q384.64062 34.45625 384.64062 32.3Q384.64062 30.815624 385.17188 29.565624Q385.71875 28.315624 386.73438 27.628124Q387.76562 26.940624 389.14062 26.940624Q390.96875 26.940624 392.17188 28.425L392.17188 27.175L393.78125 27.175L393.78125 36.14375Q393.78125 38.565624 393.28125 39.565624Q392.79688 40.58125 391.71875 41.159374Q390.65625 41.753124 389.09375 41.753124Q387.25 41.753124 386.09375 40.925Q384.95312 40.096874 385.0 38.409374ZM386.45312 32.175Q386.45312 34.221874 387.26562 35.159374Q388.07812 36.096874 389.29688 36.096874Q390.5 36.096874 391.3125 35.159374Q392.14062 34.221874 392.14062 32.2375Q392.14062 30.33125 391.29688 29.3625Q390.45312 28.39375 389.26562 28.39375Q388.09375 28.39375 387.26562 29.346874Q386.45312 30.3 386.45312 32.175ZM403.42188 34.20625L405.23438 34.440624Q404.8125 36.01875 403.64062 36.909374Q402.48438 37.784374 400.67188 37.784374Q398.40625 37.784374 397.0625 36.39375Q395.73438 34.9875 395.73438 32.45625Q395.73438 29.83125 397.07812 28.39375Q398.42188 26.940624 400.57812 26.940624Q402.65625 26.940624 403.96875 28.3625Q405.29688 29.76875 405.29688 32.346874Q405.29688 32.503124 405.28125 32.815624L397.54688 32.815624Q397.64062 34.51875 398.51562 35.425Q399.39062 36.33125 400.6875 36.33125Q401.65625 36.33125 402.32812 35.83125Q403.01562 35.315624 403.42188 34.20625ZM397.64062 31.3625L403.4375 31.3625Q403.32812 30.065624 402.78125 29.409374Q401.9375 28.39375 400.59375 28.39375Q399.39062 28.39375 398.5625 29.20625Q397.73438 30.003124 397.64062 31.3625ZM413.64062 37.55L413.64062 23.2375L423.29688 23.2375L423.29688 24.925L415.53125 24.925L415.53125 29.3625L422.25 29.3625L422.25 31.05L415.53125 31.05L415.53125 37.55L413.64062 37.55ZM425.54688 37.55L425.54688 23.2375L430.9375 23.2375Q432.375 23.2375 433.125 23.3625Q434.17188 23.55 434.89062 24.05Q435.60938 24.534374 436.03125 25.425Q436.46875 26.315624 436.46875 27.378124Q436.46875 29.20625 435.29688 30.471874Q434.14062 31.721874 431.10938 31.721874L427.4375 31.721874L427.4375 37.55L425.54688 37.55ZM427.4375 30.034374L431.14062 30.034374Q432.96875 30.034374 433.73438 29.3625Q434.51562 28.675 434.51562 27.425Q434.51562 26.534374 434.0625 25.89375Q433.60938 25.253124 432.875 25.05Q432.39062 24.925 431.09375 24.925L427.4375 24.925L427.4375 30.034374ZM437.90625 32.95625L439.6875 32.8Q439.8125 33.8625 440.26562 34.55Q440.73438 35.2375 441.70312 35.675Q442.6875 36.096874 443.92188 36.096874Q445.0 36.096874 445.82812 35.784374Q446.65625 35.45625 447.0625 34.89375Q447.46875 34.33125 447.46875 33.659374Q447.46875 32.9875 447.07812 32.4875Q446.6875 31.9875 445.79688 31.64375Q445.21875 31.409374 443.23438 30.940624Q441.26562 30.471874 440.48438 30.05Q439.45312 29.51875 438.95312 28.721874Q438.45312 27.925 438.45312 26.940624Q438.45312 25.846874 439.0625 24.909374Q439.67188 23.971874 440.85938 23.4875Q442.04688 22.9875 443.48438 22.9875Q445.07812 22.9875 446.29688 23.503124Q447.51562 24.01875 448.15625 25.01875Q448.8125 26.003124 448.85938 27.26875L447.04688 27.409374Q446.90625 26.05 446.0625 25.3625Q445.21875 24.659374 443.5625 24.659374Q441.84375 24.659374 441.04688 25.3Q440.26562 25.925 440.26562 26.8Q440.26562 27.58125 440.82812 28.08125Q441.375 28.58125 443.6875 29.096874Q446.0 29.6125 446.85938 30.003124Q448.10938 30.58125 448.70312 31.471874Q449.29688 32.346874 449.29688 33.503124Q449.29688 34.64375 448.64062 35.659374Q447.98438 36.675 446.75 37.2375Q445.53125 37.8 444.0 37.8Q442.0625 37.8 440.75 37.2375Q439.4375 36.659374 438.6875 35.51875Q437.9375 34.378124 437.90625 32.95625Z" fill-rule="nonzero"/></svg>