<svg version="1.1" viewBox="0.0 0.0 600.0 371.0" fill="none" stroke="none" stroke-linecap="square" stroke-miterlimit="10" width="600" height="371" xmlns:xlink="http://www.w3.org/1999/xlink" xmlns="http://www.w3.org/2000/svg"><path fill="#ffffff" d="M0 0L600.0 0L600.0 371.0L0 371.0L0 0Z" fill-rule="nonzero"/><path stroke="#cccccc" stroke-width="1.0" stroke-linecap="butt" d="M154.5 88.5L154.5 300.5" fill-rule="nonzero"/><path stroke="#cccccc" stroke-width="1.0" stroke-linecap="butt" d="M258.5 88.5L258.5 300.5" fill-rule="nonzero"/><path stroke="#cccccc" stroke-width="1.0" stroke-linecap="butt" d="M361.5 88.5L361.5 300.5" fill-rule="nonzero"/><path stroke="#cccccc" stroke-width="1.0" stroke-linecap="butt" d="M465.5 88.5L465.5 300.5" fill-rule="nonzero"/><path stroke="#cccccc" stroke-width="1.0" stroke-linecap="butt" d="M569.5 88.5L569.5 300.5" fill-rule="nonzero"/><path stroke="#333333" stroke-width="1.0" stroke-linecap="butt" d="M84.5 300.5L581.5 300.5" fill-rule="nonzero"/><path stroke="#cccccc" stroke-width="1.0" stroke-linecap="butt" d="M84.5 258.5L581.5 258.5" fill-rule="nonzero"/><path stroke="#cccccc" stroke-width="1.0" stroke-linecap="butt" d="M84.5 215.5L581.5 215.5" fill-rule="nonzero"/><path stroke="#cccccc" stroke-width="1.0" stroke-linecap="butt" d="M84.5 173.5L581.5 173.5" fill-rule="nonzero"/><path stroke="#cccccc" stroke-width="1.0" stroke-linecap="butt" d="M84.5 130.5L581.5 130.5" fill-rule="nonzero"/><path stroke="#cccccc" stroke-width="1.0" stroke-linecap="butt" d="M84.5 88.5L581.5 88.5" fill-rule="nonzero"/><clipPath id="id_0"><path d="M84.55 88.28333L581.45 88.28333L581.45 300.45L84.55 300.45L84.55 88.28333Z" clip-rule="nonzero"/></clipPath><path stroke="#4285f4" stroke-width="2.0" stroke-linecap="butt" clip-path="url(#id_0)" d="M84.55 270.4072L117.67667 270.1526L183.93 270.8485L316.43668 271.03522L581.45 276.05933" fill-rule="nonzero"/><path stroke="#ea4335" stroke-width="2.0" stroke-linecap="butt" clip-path="url(#id_0)" d="M84.55 134.51869L117.67667 133.67003L183.93 137.59087L316.43668 138.89781L581.45 149.55707" fill-rule="nonzero"/><path stroke="#fbbc04" stroke-width="2.0" stroke-linecap="butt" clip-path="url(#id_0)" d="M84.55 126.948586L117.67667 124.21588L183.93 122.399734L316.43668 127.03515L581.45 134.2641" fill-rule="nonzero"/><path fill="#000000" fill-opacity="0.0" clip-path="url(#id_0)" d="M87.55 270.4072C87.55 272.06406 86.206856 273.4072 84.55 273.4072C82.89314 273.4072 81.55 272.06406 81.55 270.4072C81.55 268.75034 82.89314 267.4072 84.55 267.4072C86.206856 267.4072 87.55 268.75034 87.55 270.4072Z" fill-rule="nonzero"/><path fill="#000000" fill-opacity="0.0" clip-path="url(#id_0)" d="M120.67667 270.1526C120.67667 271.80945 119.33352 273.1526 117.67667 273.1526C116.01981 273.1526 114.67667 271.80945 114.67667 270.1526C114.67667 268.49576 116.01981 267.1526 117.67667 267.1526C119.33352 267.1526 120.67667 268.49576 120.67667 270.1526Z" fill-rule="nonzero"/><path fill="#000000" fill-opacity="0.0" clip-path="url(#id_0)" d="M186.93 270.8485C186.93 272.50537 185.58685 273.8485 183.93 273.8485C182.27315 273.8485 180.93 272.50537 180.93 270.8485C180.93 269.19165 182.27315 267.8485 183.93 267.8485C185.58685 267.8485 186.93 269.19165 186.93 270.8485Z" fill-rule="nonzero"/><path fill="#000000" fill-opacity="0.0" clip-path="url(#id_0)" d="M319.43668 271.03522C319.43668 272.69208 318.0935 274.03522 316.43668 274.03522C314.77982 274.03522 313.43668 272.69208 313.43668 271.03522C313.43668 269.37836 314.77982 268.03522 316.43668 268.03522C318.0935 268.03522 319.43668 269.37836 319.43668 271.03522Z" fill-rule="nonzero"/><path fill="#000000" fill-opacity="0.0" clip-path="url(#id_0)" d="M584.45 276.05933C584.45 277.7162 583.1069 279.05933 581.45 279.05933C579.79315 279.05933 578.45 277.7162 578.45 276.05933C578.45 274.40247 579.79315 273.05933 581.45 273.05933C583.1069 273.05933 584.45 274.40247 584.45 276.05933Z" fill-rule="nonzero"/><path fill="#000000" fill-opacity="0.0" clip-path="url(#id_0)" d="M87.55 134.51869C87.55 136.17555 86.206856 137.51869 84.55 137.51869C82.89314 137.51869 81.55 136.17555 81.55 134.51869C81.55 132.86183 82.89314 131.51869 84.55 131.51869C86.206856 131.51869 87.55 132.86183 87.55 134.51869Z" fill-rule="nonzero"/><path fill="#000000" fill-opacity="0.0" clip-path="url(#id_0)" d="M120.67667 133.67003C120.67667 135.32687 119.33352 136.67003 117.67667 136.67003C116.01981 136.67003 114.67667 135.32687 114.67667 133.67003C114.67667 132.01317 116.01981 130.67003 117.67667 130.67003C119.33352 130.67003 120.67667 132.01317 120.67667 133.67003Z" fill-rule="nonzero"/><path fill="#000000" fill-opacity="0.0" clip-path="url(#id_0)" d="M186.93 137.59087C186.93 139.24773 185.58685 140.59087 183.93 140.59087C182.27315 140.59087 180.93 139.24773 180.93 137.59087C180.93 135.934 182.27315 134.59087 183.93 134.59087C185.58685 134.59087 186.93 135.934 186.93 137.59087Z" fill-rule="nonzero"/><path fill="#000000" fill-opacity="0.0" clip-path="url(#id_0)" d="M319.43668 138.89781C319.43668 140.55467 318.0935 141.89781 316.43668 141.89781C314.77982 141.89781 313.43668 140.55467 313.43668 138.89781C313.43668 137.24095 314.77982 135.89781 316.43668 135.89781C318.0935 135.89781 319.43668 137.24095 319.43668 138.89781Z" fill-rule="nonzero"/><path fill="#000000" fill-opacity="0.0" clip-path="url(#id_0)" d="M584.45 149.55707C584.45 151.21393 583.1069 152.55707 581.45 152.55707C579.79315 152.55707 578.45 151.21393 578.45 149.55707C578.45 147.9002 579.79315 146.55707 581.45 146.55707C583.1069 146.55707 584.45 147.9002 584.45 149.55707Z" fill-rule="nonzero"/><path fill="#000000" fill-opacity="0.0" clip-path="url(#id_0)" d="M87.55 126.948586C87.55 128.60544 86.206856 129.9486 84.55 129.9486C82.89314 129.9486 81.55 128.60544 81.55 126.948586C81.55 125.29173 82.89314 123.948586 84.55 123.948586C86.206856 123.948586 87.55 125.29173 87.55 126.948586Z" fill-rule="nonzero"/><path fill="#000000" fill-opacity="0.0" clip-path="url(#id_0)" d="M120.67667 124.21588C120.67667 125.872734 119.33352 127.21588 117.67667 127.21588C116.01981 127.21588 114.67667 125.872734 114.67667 124.21588C114.67667 122.55903 116.01981 121.21588 117.67667 121.21588C119.33352 121.21588 120.67667 122.55903 120.67667 124.21588Z" fill-rule="nonzero"/><path fill="#000000" fill-opacity="0.0" clip-path="url(#id_0)" d="M186.93 122.399734C186.93 124.05659 185.58685 125.399734 183.93 125.399734C182.27315 125.399734 180.93 124.05659 180.93 122.399734C180.93 120.74288 182.27315 119.399734 183.93 119.399734C185.58685 119.399734 186.93 120.74288 186.93 122.399734Z" fill-rule="nonzero"/><path fill="#000000" fill-opacity="0.0" clip-path="url(#id_0)" d="M319.43668 127.03515C319.43668 128.692 318.0935 130.03516 316.43668 130.03516C314.77982 130.03516 313.43668 128.692 313.43668 127.03515C313.43668 125.378296 314.77982 124.03515 316.43668 124.03515C318.0935 124.03515 319.43668 125.378296 319.43668 127.03515Z" fill-rule="nonzero"/><path fill="#000000" fill-opacity="0.0" clip-path="url(#id_0)" d="M584.45 134.2641C584.45 135.92094 583.1069 137.2641 581.45 137.2641C579.79315 137.2641 578.45 135.92094 578.45 134.2641C578.45 132.60724 579.79315 131.2641 581.45 131.2641C583.1069 131.2641 584.45 132.60724 584.45 134.2641Z" fill-rule="nonzero"/><path fill="#000000" d="M286.60938 349.45L286.60938 341.8719L283.78125 341.8719L283.78125 340.85626L290.59375 340.85626L290.59375 341.8719L287.75 341.8719L287.75 349.45L286.60938 349.45ZM291.29688 349.45L291.29688 340.85626L292.34375 340.85626L292.34375 343.9344Q293.07812 343.09064 294.20312 343.09064Q294.90625 343.09064 295.40625 343.3719Q295.92188 343.6375 296.14062 344.1219Q296.35938 344.59064 296.35938 345.5125L296.35938 349.45L295.3125 349.45L295.3125 345.5125Q295.3125 344.71564 294.96875 344.35626Q294.625 343.9969 294.0 343.9969Q293.53125 343.9969 293.10938 344.2469Q292.70312 344.48126 292.51562 344.90314Q292.34375 345.3094 292.34375 346.04376L292.34375 349.45L291.29688 349.45ZM298.28125 349.45L298.28125 343.23126L299.23438 343.23126L299.23438 344.16876Q299.59375 343.5125 299.89062 343.3094Q300.20312 343.09064 300.57812 343.09064Q301.10938 343.09064 301.65625 343.41876L301.29688 344.40314Q300.90625 344.16876 300.53125 344.16876Q300.17188 344.16876 299.89062 344.3875Q299.625 344.59064 299.51562 344.96564Q299.32812 345.52814 299.32812 346.1844L299.32812 349.45L298.28125 349.45ZM306.54688 347.45L307.64062 347.575Q307.39062 348.52814 306.6875 349.0594Q305.98438 349.59064 304.90625 349.59064Q303.54688 349.59064 302.73438 348.7469Q301.9375 347.90314 301.9375 346.3875Q301.9375 344.825 302.75 343.96564Q303.5625 343.09064 304.84375 343.09064Q306.09375 343.09064 306.875 343.9344Q307.67188 344.77814 307.67188 346.325Q307.67188 346.41876 307.67188 346.60626L303.03125 346.60626Q303.09375 347.6375 303.60938 348.1844Q304.125 348.71564 304.90625 348.71564Q305.48438 348.71564 305.89062 348.41876Q306.3125 348.10626 306.54688 347.45ZM303.09375 345.7469L306.5625 345.7469Q306.5 344.95 306.17188 344.5594Q305.65625 343.95 304.85938 343.95Q304.125 343.95 303.625 344.4344Q303.14062 344.91876 303.09375 345.7469ZM313.35938 348.6844Q312.76562 349.1844 312.21875 349.3875Q311.6875 349.59064 311.0625 349.59064Q310.03125 349.59064 309.48438 349.09064Q308.9375 348.59064 308.9375 347.8094Q308.9375 347.35626 309.14062 346.98126Q309.34375 346.59064 309.6875 346.3719Q310.03125 346.1375 310.45312 346.02814Q310.75 345.9344 311.39062 345.85626Q312.65625 345.71564 313.26562 345.4969Q313.26562 345.27814 313.26562 345.23126Q313.26562 344.575 312.96875 344.3094Q312.5625 343.96564 311.76562 343.96564Q311.03125 343.96564 310.67188 344.23126Q310.3125 344.48126 310.14062 345.1375L309.10938 344.9969Q309.25 344.34064 309.57812 343.9344Q309.90625 343.52814 310.51562 343.3094Q311.125 343.09064 311.92188 343.09064Q312.71875 343.09064 313.21875 343.27814Q313.71875 343.46564 313.95312 343.7469Q314.1875 344.02814 314.28125 344.46564Q314.32812 344.73126 314.32812 345.4344L314.32812 346.84064Q314.32812 348.3094 314.39062 348.7Q314.46875 349.09064 314.67188 349.45L313.5625 349.45Q313.40625 349.1219 313.35938 348.6844ZM313.26562 346.325Q312.6875 346.5594 311.54688 346.73126Q310.89062 346.825 310.625 346.95Q310.35938 347.0594 310.20312 347.27814Q310.0625 347.4969 310.0625 347.77814Q310.0625 348.2 310.375 348.48126Q310.70312 348.7625 311.3125 348.7625Q311.92188 348.7625 312.39062 348.4969Q312.875 348.23126 313.09375 347.7625Q313.26562 347.40314 313.26562 346.71564L313.26562 346.325ZM320.32812 349.45L320.32812 348.66876Q319.73438 349.59064 318.59375 349.59064Q317.84375 349.59064 317.21875 349.1844Q316.59375 348.7625 316.25 348.02814Q315.90625 347.29376 315.90625 346.34064Q315.90625 345.41876 316.21875 344.65314Q316.53125 343.8875 317.15625 343.4969Q317.78125 343.09064 318.54688 343.09064Q319.10938 343.09064 319.54688 343.325Q319.98438 343.5594 320.26562 343.9344L320.26562 340.85626L321.3125 340.85626L321.3125 349.45L320.32812 349.45ZM317.0 346.34064Q317.0 347.54376 317.5 348.1375Q318.0 348.71564 318.6875 348.71564Q319.375 348.71564 319.85938 348.15314Q320.34375 347.59064 320.34375 346.4344Q320.34375 345.15314 319.84375 344.5594Q319.35938 343.96564 318.64062 343.96564Q317.9375 343.96564 317.46875 344.54376Q317.0 345.10626 317.0 346.34064ZM322.875 347.59064L323.90625 347.4344Q324.0 348.0594 324.39062 348.3875Q324.79688 348.71564 325.53125 348.71564Q326.25 348.71564 326.59375 348.4344Q326.95312 348.1375 326.95312 347.73126Q326.95312 347.3719 326.64062 347.16876Q326.42188 347.02814 325.5625 346.8094Q324.40625 346.5125 323.95312 346.3094Q323.51562 346.09064 323.28125 345.71564Q323.04688 345.34064 323.04688 344.8719Q323.04688 344.46564 323.23438 344.10626Q323.42188 343.7469 323.75 343.5125Q324.0 343.34064 324.42188 343.21564Q324.84375 343.09064 325.34375 343.09064Q326.0625 343.09064 326.60938 343.3094Q327.17188 343.5125 327.4375 343.8719Q327.70312 344.23126 327.79688 344.825L326.76562 344.96564Q326.70312 344.4969 326.35938 344.23126Q326.03125 343.95 325.40625 343.95Q324.6875 343.95 324.375 344.2Q324.0625 344.4344 324.0625 344.7625Q324.0625 344.96564 324.1875 345.1219Q324.32812 345.29376 324.59375 345.40314Q324.75 345.46564 325.53125 345.66876Q326.65625 345.98126 327.09375 346.16876Q327.53125 346.35626 327.78125 346.71564Q328.03125 347.075 328.03125 347.6219Q328.03125 348.15314 327.71875 348.6219Q327.42188 349.075 326.84375 349.34064Q326.26562 349.59064 325.53125 349.59064Q324.3125 349.59064 323.67188 349.09064Q323.04688 348.575 322.875 347.59064ZM333.29688 351.84064L333.29688 343.23126L334.25 343.23126L334.25 344.02814Q334.59375 343.5594 335.01562 343.325Q335.45312 343.09064 336.0625 343.09064Q336.85938 343.09064 337.46875 343.4969Q338.07812 343.90314 338.375 344.65314Q338.6875 345.40314 338.6875 346.29376Q338.6875 347.2469 338.34375 348.0125Q338.01562 348.77814 337.35938 349.1844Q336.70312 349.59064 335.98438 349.59064Q335.45312 349.59064 335.03125 349.3719Q334.60938 349.1375 334.34375 348.8094L334.34375 351.84064L333.29688 351.84064ZM334.25 346.3719Q334.25 347.575 334.73438 348.15314Q335.21875 348.71564 335.90625 348.71564Q336.60938 348.71564 337.10938 348.1219Q337.60938 347.52814 337.60938 346.27814Q337.60938 345.09064 337.125 344.5125Q336.64062 343.91876 335.95312 343.91876Q335.28125 343.91876 334.76562 344.54376Q334.25 345.16876 334.25 346.3719ZM344.54688 347.45L345.64062 347.575Q345.39062 348.52814 344.6875 349.0594Q343.98438 349.59064 342.90625 349.59064Q341.54688 349.59064 340.73438 348.7469Q339.9375 347.90314 339.9375 346.3875Q339.9375 344.825 340.75 343.96564Q341.5625 343.09064 342.84375 343.09064Q344.09375 343.09064 344.875 343.9344Q345.67188 344.77814 345.67188 346.325Q345.67188 346.41876 345.67188 346.60626L341.03125 346.60626Q341.09375 347.6375 341.60938 348.1844Q342.125 348.71564 342.90625 348.71564Q343.48438 348.71564 343.89062 348.41876Q344.3125 348.10626 344.54688 347.45ZM341.09375 345.7469L344.5625 345.7469Q344.5 344.95 344.17188 344.5594Q343.65625 343.95 342.85938 343.95Q342.125 343.95 341.625 344.4344Q341.14062 344.91876 341.09375 345.7469ZM347.28125 349.45L347.28125 343.23126L348.23438 343.23126L348.23438 344.16876Q348.59375 343.5125 348.89062 343.3094Q349.20312 343.09064 349.57812 343.09064Q350.10938 343.09064 350.65625 343.41876L350.29688 344.40314Q349.90625 344.16876 349.53125 344.16876Q349.17188 344.16876 348.89062 344.3875Q348.625 344.59064 348.51562 344.96564Q348.32812 345.52814 348.32812 346.1844L348.32812 349.45L347.28125 349.45ZM355.26562 349.45L354.28125 349.45L354.28125 340.85626L355.34375 340.85626L355.34375 343.91876Q356.01562 343.09064 357.04688 343.09064Q357.625 343.09064 358.125 343.325Q358.64062 343.54376 358.96875 343.96564Q359.3125 344.3875 359.5 344.98126Q359.6875 345.575 359.6875 346.2469Q359.6875 347.84064 358.89062 348.71564Q358.09375 349.59064 357.0 349.59064Q355.89062 349.59064 355.26562 348.66876L355.26562 349.45ZM355.25 346.29376Q355.25 347.40314 355.5625 347.90314Q356.0625 348.71564 356.90625 348.71564Q357.59375 348.71564 358.09375 348.1219Q358.60938 347.52814 358.60938 346.325Q358.60938 345.10626 358.125 344.52814Q357.64062 343.95 356.95312 343.95Q356.26562 343.95 355.75 344.5594Q355.25 345.15314 355.25 346.29376ZM361.26562 349.45L361.26562 340.85626L362.32812 340.85626L362.32812 349.45L361.26562 349.45ZM363.90625 346.34064Q363.90625 344.60626 364.85938 343.77814Q365.65625 343.09064 366.8125 343.09064Q368.09375 343.09064 368.90625 343.9344Q369.73438 344.7625 369.73438 346.2469Q369.73438 347.45 369.375 348.1375Q369.01562 348.825 368.3125 349.21564Q367.625 349.59064 366.8125 349.59064Q365.51562 349.59064 364.70312 348.7625Q363.90625 347.91876 363.90625 346.34064ZM364.98438 346.34064Q364.98438 347.52814 365.5 348.1219Q366.03125 348.71564 366.8125 348.71564Q367.60938 348.71564 368.125 348.1219Q368.64062 347.52814 368.64062 346.3094Q368.64062 345.15314 368.10938 344.5594Q367.59375 343.96564 366.8125 343.96564Q366.03125 343.96564 365.5 344.5594Q364.98438 345.1375 364.98438 346.34064ZM375.35938 347.16876L376.39062 347.3094Q376.21875 348.3719 375.51562 348.98126Q374.8125 349.59064 373.79688 349.59064Q372.51562 349.59064 371.73438 348.7625Q370.96875 347.91876 370.96875 346.35626Q370.96875 345.35626 371.29688 344.60626Q371.64062 343.84064 372.3125 343.46564Q373.0 343.09064 373.8125 343.09064Q374.8125 343.09064 375.45312 343.60626Q376.10938 344.10626 376.29688 345.0594L375.26562 345.21564Q375.125 344.59064 374.75 344.27814Q374.375 343.95 373.84375 343.95Q373.04688 343.95 372.54688 344.52814Q372.04688 345.09064 372.04688 346.325Q372.04688 347.59064 372.53125 348.15314Q373.01562 348.71564 373.78125 348.71564Q374.40625 348.71564 374.8125 348.34064Q375.23438 347.96564 375.35938 347.16876ZM377.29688 349.45L377.29688 340.85626L378.35938 340.85626L378.35938 345.7625L380.84375 343.23126L382.21875 343.23126L379.82812 345.52814L382.45312 349.45L381.15625 349.45L379.09375 346.2625L378.35938 346.98126L378.35938 349.45L377.29688 349.45Z" fill-rule="nonzero"/><path fill="#000000" d="M29.550013 235.8823L20.956263 232.58542L20.956263 231.36667L29.550013 227.85104L29.550013 229.1323L26.940638 230.14792L26.940638 233.72604L29.550013 234.67917L29.550013 235.8823ZM26.018763 233.39792L26.018763 230.49167L23.643763 231.3823Q22.565638 231.80417 21.862513 231.99167Q22.690638 232.16354 23.503138 232.46042L26.018763 233.39792ZM29.550013 226.35104L23.331263 228.71042L23.331263 227.60104L27.050013 226.2573Q27.659388 226.05417 28.300013 225.86667Q27.815638 225.72604 27.128138 225.47604L23.331263 224.08542L23.331263 223.0073L29.550013 225.36667L29.550013 226.35104ZM27.550013 218.8198L27.675013 217.72604Q28.628138 217.97604 29.159388 218.67917Q29.690638 219.3823 29.690638 220.46042Q29.690638 221.8198 28.846888 222.6323Q28.003138 223.42917 26.487513 223.42917Q24.925013 223.42917 24.065638 222.61667Q23.190638 221.80417 23.190638 220.52292Q23.190638 219.27292 24.034388 218.49167Q24.878138 217.6948 26.425013 217.6948Q26.518763 217.6948 26.706263 217.6948L26.706263 222.33542Q27.737513 222.27292 28.284388 221.7573Q28.815638 221.24167 28.815638 220.46042Q28.815638 219.8823 28.518763 219.47604Q28.206263 219.05417 27.550013 218.8198ZM25.846888 222.27292L25.846888 218.80417Q25.050013 218.86667 24.659388 219.1948Q24.050013 219.71042 24.050013 220.5073Q24.050013 221.24167 24.534388 221.74167Q25.018763 222.22604 25.846888 222.27292ZM29.550013 216.08542L23.331263 216.08542L23.331263 215.1323L24.268763 215.1323Q23.612513 214.77292 23.409388 214.47604Q23.190638 214.16354 23.190638 213.78854Q23.190638 213.2573 23.518763 212.71042L24.503138 213.0698Q24.268763 213.46042 24.268763 213.83542Q24.268763 214.1948 24.487513 214.47604Q24.690638 214.74167 25.065638 214.85104Q25.628138 215.03854 26.284388 215.03854L29.550013 215.03854L29.550013 216.08542ZM28.784388 208.0073Q29.284388 208.60104 29.487513 209.14792Q29.690638 209.67917 29.690638 210.30417Q29.690638 211.33542 29.190638 211.8823Q28.690638 212.42917 27.909388 212.42917Q27.456263 212.42917 27.081263 212.22604Q26.690638 212.02292 26.471888 211.67917Q26.237513 211.33542 26.128138 210.91354Q26.034388 210.61667 25.956263 209.97604Q25.815638 208.71042 25.596888 208.10104Q25.378138 208.10104 25.331263 208.10104Q24.675013 208.10104 24.409388 208.39792Q24.065638 208.80417 24.065638 209.60104Q24.065638 210.33542 24.331263 210.6948Q24.581263 211.05417 25.237513 211.22604L25.096888 212.2573Q24.440638 212.11667 24.034388 211.78854Q23.628138 211.46042 23.409388 210.85104Q23.190638 210.24167 23.190638 209.4448Q23.190638 208.64792 23.378138 208.14792Q23.565638 207.64792 23.846888 207.41354Q24.128138 207.17917 24.565638 207.08542Q24.831263 207.03854 25.534388 207.03854L26.940638 207.03854Q28.409388 207.03854 28.800013 206.97604Q29.190638 206.89792 29.550013 206.6948L29.550013 207.80417Q29.221888 207.96042 28.784388 208.0073ZM26.425013 208.10104Q26.659388 208.67917 26.831263 209.8198Q26.925013 210.47604 27.050013 210.74167Q27.159388 211.0073 27.378138 211.16354Q27.596888 211.30417 27.878138 211.30417Q28.300013 211.30417 28.581263 210.99167Q28.862513 210.66354 28.862513 210.05417Q28.862513 209.4448 28.596888 208.97604Q28.331263 208.49167 27.862513 208.27292Q27.503138 208.10104 26.815638 208.10104L26.425013 208.10104ZM30.065638 205.27292L30.221888 204.24167Q30.690638 204.17917 30.909388 203.8823Q31.206263 203.49167 31.206263 202.8198Q31.206263 202.08542 30.909388 201.6948Q30.612513 201.28854 30.096888 201.14792Q29.768763 201.05417 28.737513 201.0698Q29.550013 201.7573 29.550013 202.78854Q29.550013 204.0698 28.628138 204.77292Q27.690638 205.47604 26.409388 205.47604Q25.518763 205.47604 24.768763 205.16354Q24.003138 204.83542 23.596888 204.22604Q23.190638 203.61667 23.190638 202.78854Q23.190638 201.67917 24.081263 200.96042L23.331263 200.96042L23.331263 199.99167L28.706263 199.99167Q30.159388 199.99167 30.768763 200.28854Q31.378138 200.58542 31.721888 201.22604Q32.08126 201.86667 32.08126 202.80417Q32.08126 203.91354 31.581263 204.60104Q31.081263 205.28854 30.065638 205.27292ZM26.331263 204.39792Q27.550013 204.39792 28.112513 203.91354Q28.675013 203.42917 28.675013 202.6948Q28.675013 201.96042 28.112513 201.47604Q27.550013 200.97604 26.362513 200.97604Q25.221888 200.97604 24.643763 201.49167Q24.065638 201.99167 24.065638 202.71042Q24.065638 203.41354 24.643763 203.91354Q25.206263 204.39792 26.331263 204.39792ZM27.550013 193.8198L27.675013 192.72604Q28.628138 192.97604 29.159388 193.67917Q29.690638 194.3823 29.690638 195.46042Q29.690638 196.8198 28.846888 197.6323Q28.003138 198.42917 26.487513 198.42917Q24.925013 198.42917 24.065638 197.61667Q23.190638 196.80417 23.190638 195.52292Q23.190638 194.27292 24.034388 193.49167Q24.878138 192.6948 26.425013 192.6948Q26.518763 192.6948 26.706263 192.6948L26.706263 197.33542Q27.737513 197.27292 28.284388 196.7573Q28.815638 196.24167 28.815638 195.46042Q28.815638 194.8823 28.518763 194.47604Q28.206263 194.05417 27.550013 193.8198ZM25.846888 197.27292L25.846888 193.80417Q25.050013 193.86667 24.659388 194.1948Q24.050013 194.71042 24.050013 195.5073Q24.050013 196.24167 24.534388 196.74167Q25.018763 197.22604 25.846888 197.27292ZM29.550013 187.8823L20.956263 187.8823L20.956263 182.08542L21.971888 182.08542L21.971888 186.74167L24.628138 186.74167L24.628138 182.71042L25.643763 182.71042L25.643763 186.74167L29.550013 186.74167L29.550013 187.8823ZM29.550013 180.9448L20.956263 180.9448L20.956263 177.6948Q20.956263 176.85104 21.034388 176.39792Q21.143763 175.7573 21.440638 175.33542Q21.737513 174.89792 22.268763 174.64792Q22.800013 174.3823 23.440638 174.3823Q24.534388 174.3823 25.300013 175.08542Q26.050013 175.77292 26.050013 177.60104L26.050013 179.80417L29.550013 179.80417L29.550013 180.9448ZM25.050013 179.80417L25.050013 177.58542Q25.050013 176.47604 24.643763 176.02292Q24.221888 175.55417 23.471888 175.55417Q22.940638 175.55417 22.565638 175.83542Q22.175013 176.10104 22.050013 176.53854Q21.971888 176.83542 21.971888 177.60104L21.971888 179.80417L25.050013 179.80417ZM26.784388 173.3198L26.690638 172.2573Q27.346888 172.17917 27.753138 171.89792Q28.159388 171.61667 28.425013 171.03854Q28.675013 170.4448 28.675013 169.71042Q28.675013 169.0698 28.487513 168.5698Q28.284388 168.0698 27.956263 167.83542Q27.612513 167.58542 27.221888 167.58542Q26.815638 167.58542 26.518763 167.8198Q26.206263 168.05417 26.003138 168.58542Q25.862513 168.9448 25.581263 170.1323Q25.300013 171.30417 25.050013 171.77292Q24.721888 172.39792 24.253138 172.6948Q23.768763 172.99167 23.175013 172.99167Q22.534388 172.99167 21.971888 172.6323Q21.393763 172.2573 21.112513 171.55417Q20.815638 170.83542 20.815638 169.97604Q20.815638 169.02292 21.128138 168.28854Q21.425013 167.55417 22.034388 167.16354Q22.628138 166.77292 23.378138 166.74167L23.456263 167.83542Q22.643763 167.92917 22.237513 168.4448Q21.815638 168.9448 21.815638 169.92917Q21.815638 170.96042 22.190638 171.42917Q22.565638 171.89792 23.096888 171.89792Q23.565638 171.89792 23.862513 171.5698Q24.159388 171.24167 24.471888 169.86667Q24.784388 168.47604 25.018763 167.96042Q25.378138 167.21042 25.909388 166.85104Q26.425013 166.49167 27.128138 166.49167Q27.815638 166.49167 28.425013 166.8823Q29.018763 167.27292 29.362513 168.0073Q29.690638 168.74167 29.690638 169.66354Q29.690638 170.83542 29.362513 171.6323Q29.018763 172.41354 28.331263 172.86667Q27.643763 173.30417 26.784388 173.3198Z" fill-rule="nonzero"/><path fill="#000000" d="M72.05 300.21564Q72.05 298.6844 72.3625 297.7625Q72.675 296.825 73.28438 296.325Q73.90938 295.825 74.84688 295.825Q75.53438 295.825 76.05 296.10626Q76.58125 296.3875 76.925 296.91876Q77.26875 297.4344 77.45625 298.1844Q77.64375 298.9344 77.64375 300.21564Q77.64375 301.73126 77.33125 302.65314Q77.03438 303.575 76.40938 304.09064Q75.8 304.59064 74.84688 304.59064Q73.6125 304.59064 72.89375 303.7Q72.05 302.6375 72.05 300.21564ZM73.12813 300.21564Q73.12813 302.325 73.62813 303.02814Q74.12813 303.73126 74.84688 303.73126Q75.58125 303.73126 76.06563 303.02814Q76.56563 302.325 76.56563 300.21564Q76.56563 298.09064 76.06563 297.40314Q75.58125 296.7 74.83125 296.7Q74.1125 296.7 73.675 297.3094Q73.12813 298.09064 73.12813 300.21564Z" fill-rule="nonzero"/><path fill="#000000" d="M63.596874 261.00104L63.596874 262.01666L57.909374 262.01666Q57.909374 261.64166 58.034374 261.2823Q58.253124 260.70416 58.721874 260.14166Q59.20625 259.57916 60.1125 258.8448Q61.51875 257.68854 62.003124 257.01666Q62.503124 256.3448 62.503124 255.75104Q62.503124 255.12604 62.05 254.70416Q61.596874 254.26666 60.878124 254.26666Q60.1125 254.26666 59.659374 254.71979Q59.20625 255.17291 59.190624 255.98541L58.1125 255.87604Q58.221874 254.65729 58.940624 254.03229Q59.675 253.39166 60.909374 253.39166Q62.14375 253.39166 62.8625 254.07916Q63.58125 254.76666 63.58125 255.78229Q63.58125 256.2979 63.3625 256.7979Q63.159374 257.2823 62.659374 257.8448Q62.175 258.39166 61.05 259.3448Q60.096874 260.14166 59.815624 260.43854Q59.55 260.7198 59.378124 261.00104L63.596874 261.00104ZM65.05 259.76666L66.15938 259.6729Q66.28438 260.4854 66.72188 260.89166Q67.175 261.2979 67.81563 261.2979Q68.56563 261.2979 69.09688 260.7198Q69.62813 260.14166 69.62813 259.20416Q69.62813 258.2979 69.1125 257.7823Q68.6125 257.25104 67.78438 257.25104Q67.28438 257.25104 66.8625 257.4854Q66.45625 257.7198 66.22188 258.07916L65.2375 257.95416L66.06563 253.54791L70.34688 253.54791L70.34688 254.54791L66.90938 254.54791L66.45625 256.8604Q67.22188 256.31354 68.06563 256.31354Q69.19063 256.31354 69.95625 257.0948Q70.7375 257.87604 70.7375 259.1104Q70.7375 260.26666 70.06563 261.12604Q69.2375 262.1573 67.81563 262.1573Q66.64375 262.1573 65.89375 261.50104Q65.15938 260.8448 65.05 259.76666ZM72.05 257.7823Q72.05 256.25104 72.3625 255.32916Q72.675 254.39166 73.28438 253.89166Q73.90938 253.39166 74.84688 253.39166Q75.53438 253.39166 76.05 253.67291Q76.58125 253.95416 76.925 254.48541Q77.26875 255.00104 77.45625 255.75104Q77.64375 256.50104 77.64375 257.7823Q77.64375 259.2979 77.33125 260.2198Q77.03438 261.14166 76.40938 261.6573Q75.8 262.1573 74.84688 262.1573Q73.6125 262.1573 72.89375 261.26666Q72.05 260.20416 72.05 257.7823ZM73.12813 257.7823Q73.12813 259.89166 73.62813 260.5948Q74.12813 261.2979 74.84688 261.2979Q75.58125 261.2979 76.06563 260.5948Q76.56563 259.89166 76.56563 257.7823Q76.56563 255.65729 76.06563 254.96979Q75.58125 254.26666 74.83125 254.26666Q74.1125 254.26666 73.675 254.87604Q73.12813 255.65729 73.12813 257.7823Z" fill-rule="nonzero"/><path fill="#000000" d="M58.05 217.33333L59.159374 217.23958Q59.284374 218.05208 59.721874 218.45833Q60.175 218.86458 60.815624 218.86458Q61.565624 218.86458 62.096874 218.28645Q62.628124 217.70833 62.628124 216.77083Q62.628124 215.86458 62.1125 215.34895Q61.6125 214.8177 60.784374 214.8177Q60.284374 214.8177 59.8625 215.05208Q59.45625 215.28645 59.221874 215.64583L58.2375 215.52083L59.065624 211.11458L63.346874 211.11458L63.346874 212.11458L59.909374 212.11458L59.45625 214.42708Q60.221874 213.8802 61.065624 213.8802Q62.190624 213.8802 62.95625 214.66145Q63.7375 215.4427 63.7375 216.67708Q63.7375 217.83333 63.065624 218.6927Q62.2375 219.72395 60.815624 219.72395Q59.64375 219.72395 58.89375 219.0677Q58.159374 218.41145 58.05 217.33333ZM65.05 215.34895Q65.05 213.8177 65.3625 212.89583Q65.675 211.95833 66.28438 211.45833Q66.90938 210.95833 67.84688 210.95833Q68.53438 210.95833 69.05 211.23958Q69.58125 211.52083 69.925 212.05208Q70.26875 212.5677 70.45625 213.3177Q70.64375 214.0677 70.64375 215.34895Q70.64375 216.86458 70.33125 217.78645Q70.03438 218.70833 69.40938 219.22395Q68.8 219.72395 67.84688 219.72395Q66.6125 219.72395 65.89375 218.83333Q65.05 217.77083 65.05 215.34895ZM66.12813 215.34895Q66.12813 217.45833 66.62813 218.16145Q67.12813 218.86458 67.84688 218.86458Q68.58125 218.86458 69.06563 218.16145Q69.56563 217.45833 69.56563 215.34895Q69.56563 213.22395 69.06563 212.53645Q68.58125 211.83333 67.83125 211.83333Q67.1125 211.83333 66.675 212.4427Q66.12813 213.22395 66.12813 215.34895ZM72.05 215.34895Q72.05 213.8177 72.3625 212.89583Q72.675 211.95833 73.28438 211.45833Q73.90938 210.95833 74.84688 210.95833Q75.53438 210.95833 76.05 211.23958Q76.58125 211.52083 76.925 212.05208Q77.26875 212.5677 77.45625 213.3177Q77.64375 214.0677 77.64375 215.34895Q77.64375 216.86458 77.33125 217.78645Q77.03438 218.70833 76.40938 219.22395Q75.8 219.72395 74.84688 219.72395Q73.6125 219.72395 72.89375 218.83333Q72.05 217.77083 72.05 215.34895ZM73.12813 215.34895Q73.12813 217.45833 73.62813 218.16145Q74.12813 218.86458 74.84688 218.86458Q75.58125 218.86458 76.06563 218.16145Q76.56563 217.45833 76.56563 215.34895Q76.56563 213.22395 76.06563 212.53645Q75.58125 211.83333 74.83125 211.83333Q74.1125 211.83333 73.675 212.4427Q73.12813 213.22395 73.12813 215.34895Z" fill-rule="nonzero"/><path fill="#000000" d="M58.1125 169.68124L58.1125 168.66562L63.675 168.66562L63.675 169.49374Q62.8625 170.36874 62.05 171.82187Q61.253124 173.25937 60.815624 174.79062Q60.4875 175.86874 60.409374 177.15L59.315624 177.15Q59.33125 176.13437 59.70625 174.69687Q60.096874 173.25937 60.8 171.93124Q61.51875 170.60312 62.33125 169.68124L58.1125 169.68124ZM65.05 174.9L66.15938 174.80624Q66.28438 175.61874 66.72188 176.025Q67.175 176.43124 67.81563 176.43124Q68.56563 176.43124 69.09688 175.85312Q69.62813 175.275 69.62813 174.3375Q69.62813 173.43124 69.1125 172.91562Q68.6125 172.38437 67.78438 172.38437Q67.28438 172.38437 66.8625 172.61874Q66.45625 172.85312 66.22188 173.2125L65.2375 173.0875L66.06563 168.68124L70.34688 168.68124L70.34688 169.68124L66.90938 169.68124L66.45625 171.99374Q67.22188 171.44687 68.06563 171.44687Q69.19063 171.44687 69.95625 172.22812Q70.7375 173.00937 70.7375 174.24374Q70.7375 175.4 70.06563 176.25937Q69.2375 177.29062 67.81563 177.29062Q66.64375 177.29062 65.89375 176.63437Q65.15938 175.97812 65.05 174.9ZM72.05 172.91562Q72.05 171.38437 72.3625 170.4625Q72.675 169.525 73.28438 169.025Q73.90938 168.525 74.84688 168.525Q75.53438 168.525 76.05 168.80624Q76.58125 169.0875 76.925 169.61874Q77.26875 170.13437 77.45625 170.88437Q77.64375 171.63437 77.64375 172.91562Q77.64375 174.43124 77.33125 175.35312Q77.03438 176.275 76.40938 176.79062Q75.8 177.29062 74.84688 177.29062Q73.6125 177.29062 72.89375 176.4Q72.05 175.3375 72.05 172.91562ZM73.12813 172.91562Q73.12813 175.025 73.62813 175.72812Q74.12813 176.43124 74.84688 176.43124Q75.58125 176.43124 76.06563 175.72812Q76.56563 175.025 76.56563 172.91562Q76.56563 170.79062 76.06563 170.10312Q75.58125 169.4 74.83125 169.4Q74.1125 169.4 73.675 170.00937Q73.12813 170.79062 73.12813 172.91562Z" fill-rule="nonzero"/><path fill="#000000" d="M55.01875 134.71666L53.971874 134.71666L53.971874 127.99791Q53.58125 128.35728 52.95625 128.73228Q52.346874 129.09166 51.8625 129.26353L51.8625 128.24791Q52.7375 127.826035 53.39375 127.24791Q54.065624 126.65416 54.346874 126.09166L55.01875 126.09166L55.01875 134.71666ZM58.05 130.48228Q58.05 128.95103 58.3625 128.02916Q58.675 127.09166 59.284374 126.59166Q59.909374 126.09166 60.846874 126.09166Q61.534374 126.09166 62.05 126.37291Q62.58125 126.65416 62.925 127.18541Q63.26875 127.701035 63.45625 128.45103Q63.64375 129.20103 63.64375 130.48228Q63.64375 131.99791 63.33125 132.91978Q63.034374 133.84166 62.409374 134.35728Q61.8 134.85728 60.846874 134.85728Q59.6125 134.85728 58.89375 133.96666Q58.05 132.90416 58.05 130.48228ZM59.128124 130.48228Q59.128124 132.59166 59.628124 133.29478Q60.128124 133.99791 60.846874 133.99791Q61.58125 133.99791 62.065624 133.29478Q62.565624 132.59166 62.565624 130.48228Q62.565624 128.35728 62.065624 127.669785Q61.58125 126.96666 60.83125 126.96666Q60.1125 126.96666 59.675 127.576035Q59.128124 128.35728 59.128124 130.48228ZM65.05 130.48228Q65.05 128.95103 65.3625 128.02916Q65.675 127.09166 66.28438 126.59166Q66.90938 126.09166 67.84688 126.09166Q68.53438 126.09166 69.05 126.37291Q69.58125 126.65416 69.925 127.18541Q70.26875 127.701035 70.45625 128.45103Q70.64375 129.20103 70.64375 130.48228Q70.64375 131.99791 70.33125 132.91978Q70.03438 133.84166 69.40938 134.35728Q68.8 134.85728 67.84688 134.85728Q66.6125 134.85728 65.89375 133.96666Q65.05 132.90416 65.05 130.48228ZM66.12813 130.48228Q66.12813 132.59166 66.62813 133.29478Q67.12813 133.99791 67.84688 133.99791Q68.58125 133.99791 69.06563 133.29478Q69.56563 132.59166 69.56563 130.48228Q69.56563 128.35728 69.06563 127.669785Q68.58125 126.96666 67.83125 126.96666Q67.1125 126.96666 66.675 127.576035Q66.12813 128.35728 66.12813 130.48228ZM72.05 130.48228Q72.05 128.95103 72.3625 128.02916Q72.675 127.09166 73.28438 126.59166Q73.90938 126.09166 74.84688 126.09166Q75.53438 126.09166 76.05 126.37291Q76.58125 126.65416 76.925 127.18541Q77.26875 127.701035 77.45625 128.45103Q77.64375 129.20103 77.64375 130.48228Q77.64375 131.99791 77.33125 132.91978Q77.03438 133.84166 76.40938 134.35728Q75.8 134.85728 74.84688 134.85728Q73.6125 134.85728 72.89375 133.96666Q72.05 132.90416 72.05 130.48228ZM73.12813 130.48228Q73.12813 132.59166 73.62813 133.29478Q74.12813 133.99791 74.84688 133.99791Q75.58125 133.99791 76.06563 133.29478Q76.56563 132.59166 76.56563 130.48228Q76.56563 128.35728 76.06563 127.669785Q75.58125 126.96666 74.83125 126.96666Q74.1125 126.96666 73.675 127.576035Q73.12813 128.35728 73.12813 130.48228Z" fill-rule="nonzero"/><path fill="#000000" d="M55.01875 92.28333L53.971874 92.28333L53.971874 85.56458Q53.58125 85.92396 52.95625 86.29896Q52.346874 86.65833 51.8625 86.83021L51.8625 85.81458Q52.7375 85.39271 53.39375 84.81458Q54.065624 84.22083 54.346874 83.65833L55.01875 83.65833L55.01875 92.28333ZM63.596874 91.26771L63.596874 92.28333L57.909374 92.28333Q57.909374 91.90833 58.034374 91.54896Q58.253124 90.97083 58.721874 90.40833Q59.20625 89.84583 60.1125 89.11146Q61.51875 87.95521 62.003124 87.28333Q62.503124 86.61146 62.503124 86.01771Q62.503124 85.39271 62.05 84.97083Q61.596874 84.53333 60.878124 84.53333Q60.1125 84.53333 59.659374 84.98646Q59.20625 85.43958 59.190624 86.25208L58.1125 86.14271Q58.221874 84.92396 58.940624 84.29896Q59.675 83.65833 60.909374 83.65833Q62.14375 83.65833 62.8625 84.34583Q63.58125 85.03333 63.58125 86.04896Q63.58125 86.56458 63.3625 87.06458Q63.159374 87.54896 62.659374 88.11146Q62.175 88.65833 61.05 89.61146Q60.096874 90.40833 59.815624 90.70521Q59.55 90.98646 59.378124 91.26771L63.596874 91.26771ZM65.05 90.03333L66.15938 89.93958Q66.28438 90.75208 66.72188 91.15833Q67.175 91.56458 67.81563 91.56458Q68.56563 91.56458 69.09688 90.98646Q69.62813 90.40833 69.62813 89.47083Q69.62813 88.56458 69.1125 88.04896Q68.6125 87.51771 67.78438 87.51771Q67.28438 87.51771 66.8625 87.75208Q66.45625 87.98646 66.22188 88.34583L65.2375 88.22083L66.06563 83.81458L70.34688 83.81458L70.34688 84.81458L66.90938 84.81458L66.45625 87.12708Q67.22188 86.58021 68.06563 86.58021Q69.19063 86.58021 69.95625 87.36146Q70.7375 88.14271 70.7375 89.37708Q70.7375 90.53333 70.06563 91.39271Q69.2375 92.42396 67.81563 92.42396Q66.64375 92.42396 65.89375 91.76771Q65.15938 91.11146 65.05 90.03333ZM72.05 88.04896Q72.05 86.51771 72.3625 85.59583Q72.675 84.65833 73.28438 84.15833Q73.90938 83.65833 74.84688 83.65833Q75.53438 83.65833 76.05 83.93958Q76.58125 84.22083 76.925 84.75208Q77.26875 85.26771 77.45625 86.01771Q77.64375 86.76771 77.64375 88.04896Q77.64375 89.56458 77.33125 90.48646Q77.03438 91.40833 76.40938 91.92396Q75.8 92.42396 74.84688 92.42396Q73.6125 92.42396 72.89375 91.53333Q72.05 90.47083 72.05 88.04896ZM73.12813 88.04896Q73.12813 90.15833 73.62813 90.86146Q74.12813 91.56458 74.84688 91.56458Q75.58125 91.56458 76.06563 90.86146Q76.56563 90.15833 76.56563 88.04896Q76.56563 85.92396 76.06563 85.23646Q75.58125 84.53333 74.83125 84.53333Q74.1125 84.53333 73.675 85.14271Q73.12813 85.92396 73.12813 88.04896Z" fill-rule="nonzero"/><path fill="#000000" d="M150.49104 316.4344L150.49104 317.45L144.80354 317.45Q144.80354 317.075 144.92854 316.71564Q145.1473 316.1375 145.61604 315.575Q146.10042 315.0125 147.00667 314.27814Q148.41292 313.1219 148.8973 312.45Q149.3973 311.77814 149.3973 311.1844Q149.3973 310.5594 148.94417 310.1375Q148.49104 309.7 147.7723 309.7Q147.00667 309.7 146.55354 310.15314Q146.10042 310.60626 146.0848 311.41876L145.00667 311.3094Q145.11604 310.09064 145.8348 309.46564Q146.56917 308.825 147.80354 308.825Q149.03792 308.825 149.75667 309.5125Q150.47542 310.2 150.47542 311.21564Q150.47542 311.73126 150.25667 312.23126Q150.05354 312.71564 149.55354 313.27814Q149.06917 313.825 147.94417 314.77814Q146.99104 315.575 146.7098 315.8719Q146.44417 316.15314 146.2723 316.4344L150.49104 316.4344ZM151.94417 313.21564Q151.94417 311.6844 152.25667 310.7625Q152.56917 309.825 153.17854 309.325Q153.80354 308.825 154.74104 308.825Q155.42854 308.825 155.94417 309.10626Q156.47542 309.3875 156.81917 309.91876Q157.16292 310.4344 157.35042 311.1844Q157.53792 311.9344 157.53792 313.21564Q157.53792 314.73126 157.22542 315.65314Q156.92854 316.575 156.30354 317.09064Q155.69417 317.59064 154.74104 317.59064Q153.50667 317.59064 152.78792 316.7Q151.94417 315.6375 151.94417 313.21564ZM153.0223 313.21564Q153.0223 315.325 153.5223 316.02814Q154.0223 316.73126 154.74104 316.73126Q155.47542 316.73126 155.9598 316.02814Q156.4598 315.325 156.4598 313.21564Q156.4598 311.09064 155.9598 310.40314Q155.47542 309.7 154.72542 309.7Q154.00667 309.7 153.56917 310.3094Q153.0223 311.09064 153.0223 313.21564ZM158.94417 313.21564Q158.94417 311.6844 159.25667 310.7625Q159.56917 309.825 160.17854 309.325Q160.80354 308.825 161.74104 308.825Q162.42854 308.825 162.94417 309.10626Q163.47542 309.3875 163.81917 309.91876Q164.16292 310.4344 164.35042 311.1844Q164.53792 311.9344 164.53792 313.21564Q164.53792 314.73126 164.22542 315.65314Q163.92854 316.575 163.30354 317.09064Q162.69417 317.59064 161.74104 317.59064Q160.50667 317.59064 159.78792 316.7Q158.94417 315.6375 158.94417 313.21564ZM160.0223 313.21564Q160.0223 315.325 160.5223 316.02814Q161.0223 316.73126 161.74104 316.73126Q162.47542 316.73126 162.9598 316.02814Q163.4598 315.325 163.4598 313.21564Q163.4598 311.09064 162.9598 310.40314Q162.47542 309.7 161.72542 309.7Q161.00667 309.7 160.56917 310.3094Q160.0223 311.09064 160.0223 313.21564Z" fill-rule="nonzero"/><path fill="#000000" d="M251.84 317.45L251.84 315.3875L248.12125 315.3875L248.12125 314.41876L252.04312 308.85626L252.9025 308.85626L252.9025 314.41876L254.05875 314.41876L254.05875 315.3875L252.9025 315.3875L252.9025 317.45L251.84 317.45ZM251.84 314.41876L251.84 310.5594L249.1525 314.41876L251.84 314.41876ZM255.465 313.21564Q255.465 311.6844 255.7775 310.7625Q256.09 309.825 256.69937 309.325Q257.32437 308.825 258.26187 308.825Q258.94937 308.825 259.465 309.10626Q259.99625 309.3875 260.34 309.91876Q260.68375 310.4344 260.87125 311.1844Q261.05875 311.9344 261.05875 313.21564Q261.05875 314.73126 260.74625 315.65314Q260.44937 316.575 259.82437 317.09064Q259.215 317.59064 258.26187 317.59064Q257.0275 317.59064 256.30875 316.7Q255.465 315.6375 255.465 313.21564ZM256.54312 313.21564Q256.54312 315.325 257.04312 316.02814Q257.54312 316.73126 258.26187 316.73126Q258.99625 316.73126 259.48062 316.02814Q259.98062 315.325 259.98062 313.21564Q259.98062 311.09064 259.48062 310.40314Q258.99625 309.7 258.24625 309.7Q257.5275 309.7 257.09 310.3094Q256.54312 311.09064 256.54312 313.21564ZM262.465 313.21564Q262.465 311.6844 262.7775 310.7625Q263.09 309.825 263.69937 309.325Q264.32437 308.825 265.26187 308.825Q265.94937 308.825 266.465 309.10626Q266.99625 309.3875 267.34 309.91876Q267.68375 310.4344 267.87125 311.1844Q268.05875 311.9344 268.05875 313.21564Q268.05875 314.73126 267.74625 315.65314Q267.44937 316.575 266.82437 317.09064Q266.215 317.59064 265.26187 317.59064Q264.0275 317.59064 263.30875 316.7Q262.465 315.6375 262.465 313.21564ZM263.54312 313.21564Q263.54312 315.325 264.04312 316.02814Q264.54312 316.73126 265.26187 316.73126Q265.99625 316.73126 266.48062 316.02814Q266.98062 315.325 266.98062 313.21564Q266.98062 311.09064 266.48062 310.40314Q265.99625 309.7 265.24625 309.7Q264.5275 309.7 264.09 310.3094Q263.54312 311.09064 263.54312 313.21564Z" fill-rule="nonzero"/><path fill="#000000" d="M357.4546 310.96564L356.4077 311.04376Q356.2671 310.41876 356.0171 310.1375Q355.5796 309.6844 354.9546 309.6844Q354.4546 309.6844 354.06396 309.96564Q353.5796 310.34064 353.2827 311.04376Q353.00146 311.73126 352.98584 313.0125Q353.36084 312.4344 353.9077 312.15314Q354.4702 311.8719 355.0796 311.8719Q356.12646 311.8719 356.86084 312.65314Q357.61084 313.4344 357.61084 314.65314Q357.61084 315.46564 357.25146 316.16876Q356.9077 316.85626 356.29834 317.23126Q355.68896 317.59064 354.92334 317.59064Q353.5952 317.59064 352.7671 316.6219Q351.93896 315.65314 351.93896 313.4344Q351.93896 310.9344 352.86084 309.8094Q353.6577 308.825 355.0171 308.825Q356.0327 308.825 356.67334 309.40314Q357.3296 309.96564 357.4546 310.96564ZM353.1577 314.66876Q353.1577 315.21564 353.37646 315.71564Q353.61084 316.2 354.0171 316.46564Q354.43896 316.73126 354.9077 316.73126Q355.56396 316.73126 356.04834 316.2Q356.5327 315.65314 356.5327 314.73126Q356.5327 313.84064 356.04834 313.325Q355.5796 312.8094 354.86084 312.8094Q354.1421 312.8094 353.6421 313.325Q353.1577 313.84064 353.1577 314.66876ZM358.98584 313.21564Q358.98584 311.6844 359.29834 310.7625Q359.61084 309.825 360.2202 309.325Q360.8452 308.825 361.7827 308.825Q362.4702 308.825 362.98584 309.10626Q363.5171 309.3875 363.86084 309.91876Q364.2046 310.4344 364.3921 311.1844Q364.5796 311.9344 364.5796 313.21564Q364.5796 314.73126 364.2671 315.65314Q363.9702 316.575 363.3452 317.09064Q362.73584 317.59064 361.7827 317.59064Q360.54834 317.59064 359.8296 316.7Q358.98584 315.6375 358.98584 313.21564ZM360.06396 313.21564Q360.06396 315.325 360.56396 316.02814Q361.06396 316.73126 361.7827 316.73126Q362.5171 316.73126 363.00146 316.02814Q363.50146 315.325 363.50146 313.21564Q363.50146 311.09064 363.00146 310.40314Q362.5171 309.7 361.7671 309.7Q361.04834 309.7 360.61084 310.3094Q360.06396 311.09064 360.06396 313.21564ZM365.98584 313.21564Q365.98584 311.6844 366.29834 310.7625Q366.61084 309.825 367.2202 309.325Q367.8452 308.825 368.7827 308.825Q369.4702 308.825 369.98584 309.10626Q370.5171 309.3875 370.86084 309.91876Q371.2046 310.4344 371.3921 311.1844Q371.5796 311.9344 371.5796 313.21564Q371.5796 314.73126 371.2671 315.65314Q370.9702 316.575 370.3452 317.09064Q369.73584 317.59064 368.7827 317.59064Q367.54834 317.59064 366.8296 316.7Q365.98584 315.6375 365.98584 313.21564ZM367.06396 313.21564Q367.06396 315.325 367.56396 316.02814Q368.06396 316.73126 368.7827 316.73126Q369.5171 316.73126 370.00146 316.02814Q370.50146 315.325 370.50146 313.21564Q370.50146 311.09064 370.00146 310.40314Q369.5171 309.7 368.7671 309.7Q368.04834 309.7 367.61084 310.3094Q367.06396 311.09064 367.06396 313.21564Z" fill-rule="nonzero"/><path fill="#000000" d="M457.13165 312.79376Q456.4754 312.54376 456.14728 312.10626Q455.83478 311.65314 455.83478 311.04376Q455.83478 310.10626 456.50665 309.46564Q457.19415 308.825 458.30353 308.825Q459.42853 308.825 460.11603 309.48126Q460.80353 310.1375 460.80353 311.075Q460.80353 311.66876 460.49103 312.10626Q460.17853 312.54376 459.5379 312.79376Q460.33478 313.04376 460.74103 313.6219Q461.14728 314.2 461.14728 314.9969Q461.14728 316.09064 460.36603 316.84064Q459.6004 317.59064 458.31915 317.59064Q457.05353 317.59064 456.27228 316.84064Q455.49103 316.09064 455.49103 314.96564Q455.49103 314.1219 455.9129 313.5594Q456.3504 312.9969 457.13165 312.79376ZM456.9129 310.9969Q456.9129 311.60626 457.30353 311.9969Q457.70978 312.3875 458.33478 312.3875Q458.94415 312.3875 459.33478 312.0125Q459.7254 311.6219 459.7254 311.0594Q459.7254 310.48126 459.31915 310.09064Q458.9129 309.6844 458.31915 309.6844Q457.70978 309.6844 457.30353 310.075Q456.9129 310.46564 456.9129 310.9969ZM456.58478 314.96564Q456.58478 315.41876 456.7879 315.84064Q457.00665 316.2625 457.42853 316.4969Q457.8504 316.73126 458.33478 316.73126Q459.08478 316.73126 459.56915 316.2469Q460.06915 315.7625 460.06915 315.0125Q460.06915 314.2469 459.56915 313.7469Q459.06915 313.2469 458.30353 313.2469Q457.55353 313.2469 457.06915 313.7469Q456.58478 314.23126 456.58478 314.96564ZM462.50665 313.21564Q462.50665 311.6844 462.81915 310.7625Q463.13165 309.825 463.74103 309.325Q464.36603 308.825 465.30353 308.825Q465.99103 308.825 466.50665 309.10626Q467.0379 309.3875 467.38165 309.91876Q467.7254 310.4344 467.9129 311.1844Q468.1004 311.9344 468.1004 313.21564Q468.1004 314.73126 467.7879 315.65314Q467.49103 316.575 466.86603 317.09064Q466.25665 317.59064 465.30353 317.59064Q464.06915 317.59064 463.3504 316.7Q462.50665 315.6375 462.50665 313.21564ZM463.58478 313.21564Q463.58478 315.325 464.08478 316.02814Q464.58478 316.73126 465.30353 316.73126Q466.0379 316.73126 466.52228 316.02814Q467.02228 315.325 467.02228 313.21564Q467.02228 311.09064 466.52228 310.40314Q466.0379 309.7 465.2879 309.7Q464.56915 309.7 464.13165 310.3094Q463.58478 311.09064 463.58478 313.21564ZM469.50665 313.21564Q469.50665 311.6844 469.81915 310.7625Q470.13165 309.825 470.74103 309.325Q471.36603 308.825 472.30353 308.825Q472.99103 308.825 473.50665 309.10626Q474.0379 309.3875 474.38165 309.91876Q474.7254 310.4344 474.9129 311.1844Q475.1004 311.9344 475.1004 313.21564Q475.1004 314.73126 474.7879 315.65314Q474.49103 316.575 473.86603 317.09064Q473.25665 317.59064 472.30353 317.59064Q471.06915 317.59064 470.3504 316.7Q469.50665 315.6375 469.50665 313.21564ZM470.58478 313.21564Q470.58478 315.325 471.08478 316.02814Q471.58478 316.73126 472.30353 316.73126Q473.0379 316.73126 473.52228 316.02814Q474.02228 315.325 474.02228 313.21564Q474.02228 311.09064 473.52228 310.40314Q473.0379 309.7 472.2879 309.7Q471.56915 309.7 471.13165 310.3094Q470.58478 311.09064 470.58478 313.21564Z" fill-rule="nonzero"/><path fill="#000000" d="M559.4963 317.45L558.4494 317.45L558.4494 310.73126Q558.0588 311.09064 557.4338 311.46564Q556.8244 311.825 556.34 311.9969L556.34 310.98126Q557.215 310.5594 557.8713 309.98126Q558.54315 309.3875 558.8244 308.825L559.4963 308.825L559.4963 317.45ZM562.5275 313.21564Q562.5275 311.6844 562.84 310.7625Q563.1525 309.825 563.7619 309.325Q564.3869 308.825 565.3244 308.825Q566.0119 308.825 566.5275 309.10626Q567.0588 309.3875 567.4025 309.91876Q567.7463 310.4344 567.9338 311.1844Q568.1213 311.9344 568.1213 313.21564Q568.1213 314.73126 567.8088 315.65314Q567.5119 316.575 566.8869 317.09064Q566.2775 317.59064 565.3244 317.59064Q564.09 317.59064 563.3713 316.7Q562.5275 315.6375 562.5275 313.21564ZM563.60565 313.21564Q563.60565 315.325 564.10565 316.02814Q564.60565 316.73126 565.3244 316.73126Q566.0588 316.73126 566.54315 316.02814Q567.04315 315.325 567.04315 313.21564Q567.04315 311.09064 566.54315 310.40314Q566.0588 309.7 565.3088 309.7Q564.59 309.7 564.1525 310.3094Q563.60565 311.09064 563.60565 313.21564ZM569.5275 313.21564Q569.5275 311.6844 569.84 310.7625Q570.1525 309.825 570.7619 309.325Q571.3869 308.825 572.3244 308.825Q573.0119 308.825 573.5275 309.10626Q574.0588 309.3875 574.4025 309.91876Q574.7463 310.4344 574.9338 311.1844Q575.1213 311.9344 575.1213 313.21564Q575.1213 314.73126 574.8088 315.65314Q574.5119 316.575 573.8869 317.09064Q573.2775 317.59064 572.3244 317.59064Q571.09 317.59064 570.3713 316.7Q569.5275 315.6375 569.5275 313.21564ZM570.60565 313.21564Q570.60565 315.325 571.10565 316.02814Q571.60565 316.73126 572.3244 316.73126Q573.0588 316.73126 573.54315 316.02814Q574.04315 315.325 574.04315 313.21564Q574.04315 311.09064 573.54315 310.40314Q573.0588 309.7 572.3088 309.7Q571.59 309.7 571.1525 310.3094Q570.60565 311.09064 570.60565 313.21564ZM576.5275 313.21564Q576.5275 311.6844 576.84 310.7625Q577.1525 309.825 577.7619 309.325Q578.3869 308.825 579.3244 308.825Q580.0119 308.825 580.5275 309.10626Q581.0588 309.3875 581.4025 309.91876Q581.7463 310.4344 581.9338 311.1844Q582.1213 311.9344 582.1213 313.21564Q582.1213 314.73126 581.8088 315.65314Q581.5119 316.575 580.8869 317.09064Q580.2775 317.59064 579.3244 317.59064Q578.09 317.59064 577.3713 316.7Q576.5275 315.6375 576.5275 313.21564ZM577.60565 313.21564Q577.60565 315.325 578.10565 316.02814Q578.60565 316.73126 579.3244 316.73126Q580.0588 316.73126 580.54315 316.02814Q581.04315 315.325 581.04315 313.21564Q581.04315 311.09064 580.54315 310.40314Q580.0588 309.7 579.3088 309.7Q578.59 309.7 578.1525 310.3094Q577.60565 311.09064 577.60565 313.21564Z" fill-rule="nonzero"/><path stroke="#4285f4" stroke-width="4.0" stroke-linecap="butt" d="M187.0 61.916668L199.0 61.916668" fill-rule="nonzero"/><path fill="#1a1a1a" d="M207.92188 65.916664L207.92188 57.322914L209.07812 57.322914L213.59375 64.072914L213.59375 57.322914L214.6875 57.322914L214.6875 65.916664L213.51562 65.916664L209.0 59.166664L209.0 65.916664L207.92188 65.916664ZM220.85938 65.15104Q220.26562 65.65104 219.71875 65.854164Q219.1875 66.05729 218.5625 66.05729Q217.53125 66.05729 216.98438 65.55729Q216.4375 65.05729 216.4375 64.27604Q216.4375 63.822914 216.64062 63.447914Q216.84375 63.05729 217.1875 62.83854Q217.53125 62.604164 217.95312 62.49479Q218.25 62.40104 218.89062 62.322914Q220.15625 62.18229 220.76562 61.96354Q220.76562 61.74479 220.76562 61.697914Q220.76562 61.041664 220.46875 60.77604Q220.0625 60.43229 219.26562 60.43229Q218.53125 60.43229 218.17188 60.697914Q217.8125 60.947914 217.64062 61.604164L216.60938 61.46354Q216.75 60.80729 217.07812 60.40104Q217.40625 59.99479 218.01562 59.77604Q218.625 59.55729 219.42188 59.55729Q220.21875 59.55729 220.71875 59.74479Q221.21875 59.93229 221.45312 60.21354Q221.6875 60.49479 221.78125 60.93229Q221.82812 61.197914 221.82812 61.90104L221.82812 63.30729Q221.82812 64.77604 221.89062 65.166664Q221.96875 65.55729 222.17188 65.916664L221.0625 65.916664Q220.90625 65.58854 220.85938 65.15104ZM220.76562 62.791664Q220.1875 63.02604 219.04688 63.197914Q218.39062 63.291664 218.125 63.416664Q217.85938 63.52604 217.70312 63.74479Q217.5625 63.96354 217.5625 64.24479Q217.5625 64.666664 217.875 64.947914Q218.20312 65.229164 218.8125 65.229164Q219.42188 65.229164 219.89062 64.96354Q220.375 64.697914 220.59375 64.229164Q220.76562 63.86979 220.76562 63.18229L220.76562 62.791664ZM223.79688 58.541664L223.79688 57.322914L224.85938 57.322914L224.85938 58.541664L223.79688 58.541664ZM223.79688 65.916664L223.79688 59.697914L224.85938 59.697914L224.85938 65.916664L223.79688 65.916664ZM228.51562 65.916664L226.15625 59.697914L227.26562 59.697914L228.60938 63.416664Q228.8125 64.02604 229.0 64.666664Q229.14062 64.18229 229.39062 63.49479L230.78125 59.697914L231.85938 59.697914L229.5 65.916664L228.51562 65.916664ZM236.04688 63.916664L237.14062 64.041664Q236.89062 64.99479 236.1875 65.52604Q235.48438 66.05729 234.40625 66.05729Q233.04688 66.05729 232.23438 65.21354Q231.4375 64.36979 231.4375 62.854164Q231.4375 61.291664 232.25 60.43229Q233.0625 59.55729 234.34375 59.55729Q235.59375 59.55729 236.375 60.40104Q237.17188 61.24479 237.17188 62.791664Q237.17188 62.885414 237.17188 63.072914L232.53125 63.072914Q232.59375 64.104164 233.10938 64.65104Q233.625 65.18229 234.40625 65.18229Q234.98438 65.18229 235.39062 64.885414Q235.8125 64.572914 236.04688 63.916664ZM232.59375 62.21354L236.0625 62.21354Q236.0 61.416664 235.67188 61.02604Q235.15625 60.416664 234.35938 60.416664Q233.625 60.416664 233.125 60.90104Q232.64062 61.385414 232.59375 62.21354Z" fill-rule="nonzero"/><path stroke="#ea4335" stroke-width="4.0" stroke-linecap="butt" d="M254.0 61.916668L266.0 61.916668" fill-rule="nonzero"/><path fill="#1a1a1a" d="M274.54688 63.15104L275.60938 63.05729Q275.6875 63.71354 275.96875 64.11979Q276.25 64.52604 276.82812 64.791664Q277.42188 65.041664 278.15625 65.041664Q278.79688 65.041664 279.29688 64.854164Q279.79688 64.65104 280.03125 64.322914Q280.28125 63.979164 280.28125 63.58854Q280.28125 63.18229 280.04688 62.885414Q279.8125 62.572914 279.28125 62.36979Q278.92188 62.229164 277.73438 61.947914Q276.5625 61.666664 276.09375 61.416664Q275.46875 61.08854 275.17188 60.61979Q274.875 60.135414 274.875 59.541664Q274.875 58.90104 275.23438 58.33854Q275.60938 57.760414 276.3125 57.479164Q277.03125 57.18229 277.89062 57.18229Q278.84375 57.18229 279.57812 57.49479Q280.3125 57.791664 280.70312 58.40104Q281.09375 58.99479 281.125 59.74479L280.03125 59.822914Q279.9375 59.010414 279.42188 58.604164Q278.92188 58.18229 277.9375 58.18229Q276.90625 58.18229 276.4375 58.55729Q275.96875 58.93229 275.96875 59.46354Q275.96875 59.93229 276.29688 60.229164Q276.625 60.52604 278.0 60.83854Q279.39062 61.15104 279.90625 61.385414Q280.65625 61.74479 281.01562 62.27604Q281.375 62.791664 281.375 63.49479Q281.375 64.18229 280.98438 64.791664Q280.59375 65.385414 279.85938 65.729164Q279.125 66.05729 278.20312 66.05729Q277.03125 66.05729 276.23438 65.729164Q275.45312 65.385414 275.0 64.697914Q274.5625 64.010414 274.54688 63.15104ZM286.85938 63.635414L287.89062 63.77604Q287.71875 64.83854 287.01562 65.447914Q286.3125 66.05729 285.29688 66.05729Q284.01562 66.05729 283.23438 65.229164Q282.46875 64.385414 282.46875 62.822914Q282.46875 61.822914 282.79688 61.072914Q283.14062 60.30729 283.8125 59.93229Q284.5 59.55729 285.3125 59.55729Q286.3125 59.55729 286.95312 60.072914Q287.60938 60.572914 287.79688 61.52604L286.76562 61.68229Q286.625 61.05729 286.25 60.74479Q285.875 60.416664 285.34375 60.416664Q284.54688 60.416664 284.04688 60.99479Q283.54688 61.55729 283.54688 62.791664Q283.54688 64.05729 284.03125 64.61979Q284.51562 65.18229 285.28125 65.18229Q285.90625 65.18229 286.3125 64.80729Q286.73438 64.43229 286.85938 63.635414ZM292.85938 65.15104Q292.26562 65.65104 291.71875 65.854164Q291.1875 66.05729 290.5625 66.05729Q289.53125 66.05729 288.98438 65.55729Q288.4375 65.05729 288.4375 64.27604Q288.4375 63.822914 288.64062 63.447914Q288.84375 63.05729 289.1875 62.83854Q289.53125 62.604164 289.95312 62.49479Q290.25 62.40104 290.89062 62.322914Q292.15625 62.18229 292.76562 61.96354Q292.76562 61.74479 292.76562 61.697914Q292.76562 61.041664 292.46875 60.77604Q292.0625 60.43229 291.26562 60.43229Q290.53125 60.43229 290.17188 60.697914Q289.8125 60.947914 289.64062 61.604164L288.60938 61.46354Q288.75 60.80729 289.07812 60.40104Q289.40625 59.99479 290.01562 59.77604Q290.625 59.55729 291.42188 59.55729Q292.21875 59.55729 292.71875 59.74479Q293.21875 59.93229 293.45312 60.21354Q293.6875 60.49479 293.78125 60.93229Q293.82812 61.197914 293.82812 61.90104L293.82812 63.30729Q293.82812 64.77604 293.89062 65.166664Q293.96875 65.55729 294.17188 65.916664L293.0625 65.916664Q292.90625 65.58854 292.85938 65.15104ZM292.76562 62.791664Q292.1875 63.02604 291.04688 63.197914Q290.39062 63.291664 290.125 63.416664Q289.85938 63.52604 289.70312 63.74479Q289.5625 63.96354 289.5625 64.24479Q289.5625 64.666664 289.875 64.947914Q290.20312 65.229164 290.8125 65.229164Q291.42188 65.229164 291.89062 64.96354Q292.375 64.697914 292.59375 64.229164Q292.76562 63.86979 292.76562 63.18229L292.76562 62.791664ZM298.09375 64.979164L298.25 65.90104Q297.79688 65.99479 297.45312 65.99479Q296.875 65.99479 296.5625 65.822914Q296.25 65.635414 296.10938 65.33854Q295.98438 65.041664 295.98438 64.08854L295.98438 60.510414L295.21875 60.510414L295.21875 59.697914L295.98438 59.697914L295.98438 58.15104L297.03125 57.52604L297.03125 59.697914L298.09375 59.697914L298.09375 60.510414L297.03125 60.510414L297.03125 64.15104Q297.03125 64.604164 297.07812 64.729164Q297.14062 64.854164 297.26562 64.93229Q297.39062 65.010414 297.625 65.010414Q297.8125 65.010414 298.09375 64.979164ZM301.09375 64.979164L301.25 65.90104Q300.79688 65.99479 300.45312 65.99479Q299.875 65.99479 299.5625 65.822914Q299.25 65.635414 299.10938 65.33854Q298.98438 65.041664 298.98438 64.08854L298.98438 60.510414L298.21875 60.510414L298.21875 59.697914L298.98438 59.697914L298.98438 58.15104L300.03125 57.52604L300.03125 59.697914L301.09375 59.697914L301.09375 60.510414L300.03125 60.510414L300.03125 64.15104Q300.03125 64.604164 300.07812 64.729164Q300.14062 64.854164 300.26562 64.93229Q300.39062 65.010414 300.625 65.010414Q300.8125 65.010414 301.09375 64.979164ZM306.04688 63.916664L307.14062 64.041664Q306.89062 64.99479 306.1875 65.52604Q305.48438 66.05729 304.40625 66.05729Q303.04688 66.05729 302.23438 65.21354Q301.4375 64.36979 301.4375 62.854164Q301.4375 61.291664 302.25 60.43229Q303.0625 59.55729 304.34375 59.55729Q305.59375 59.55729 306.375 60.40104Q307.17188 61.24479 307.17188 62.791664Q307.17188 62.885414 307.17188 63.072914L302.53125 63.072914Q302.59375 64.104164 303.10938 64.65104Q303.625 65.18229 304.40625 65.18229Q304.98438 65.18229 305.39062 64.885414Q305.8125 64.572914 306.04688 63.916664ZM302.59375 62.21354L306.0625 62.21354Q306.0 61.416664 305.67188 61.02604Q305.15625 60.416664 304.35938 60.416664Q303.625 60.416664 303.125 60.90104Q302.64062 61.385414 302.59375 62.21354ZM308.78125 65.916664L308.78125 59.697914L309.73438 59.697914L309.73438 60.635414Q310.09375 59.979164 310.39062 59.77604Q310.70312 59.55729 311.07812 59.55729Q311.60938 59.55729 312.15625 59.885414L311.79688 60.86979Q311.40625 60.635414 311.03125 60.635414Q310.67188 60.635414 310.39062 60.854164Q310.125 61.05729 310.01562 61.43229Q309.82812 61.99479 309.82812 62.65104L309.82812 65.916664L308.78125 65.916664ZM317.04688 63.916664L318.14062 64.041664Q317.89062 64.99479 317.1875 65.52604Q316.48438 66.05729 315.40625 66.05729Q314.04688 66.05729 313.23438 65.21354Q312.4375 64.36979 312.4375 62.854164Q312.4375 61.291664 313.25 60.43229Q314.0625 59.55729 315.34375 59.55729Q316.59375 59.55729 317.375 60.40104Q318.17188 61.24479 318.17188 62.791664Q318.17188 62.885414 318.17188 63.072914L313.53125 63.072914Q313.59375 64.104164 314.10938 64.65104Q314.625 65.18229 315.40625 65.18229Q315.98438 65.18229 316.39062 64.885414Q316.8125 64.572914 317.04688 63.916664ZM313.59375 62.21354L317.0625 62.21354Q317.0 61.416664 316.67188 61.02604Q316.15625 60.416664 315.35938 60.416664Q314.625 60.416664 314.125 60.90104Q313.64062 61.385414 313.59375 62.21354ZM323.82812 65.916664L323.82812 65.135414Q323.23438 66.05729 322.09375 66.05729Q321.34375 66.05729 320.71875 65.65104Q320.09375 65.229164 319.75 64.49479Q319.40625 63.760414 319.40625 62.80729Q319.40625 61.885414 319.71875 61.11979Q320.03125 60.354164 320.65625 59.96354Q321.28125 59.55729 322.04688 59.55729Q322.60938 59.55729 323.04688 59.791664Q323.48438 60.02604 323.76562 60.40104L323.76562 57.322914L324.8125 57.322914L324.8125 65.916664L323.82812 65.916664ZM320.5 62.80729Q320.5 64.010414 321.0 64.604164Q321.5 65.18229 322.1875 65.18229Q322.875 65.18229 323.35938 64.61979Q323.84375 64.05729 323.84375 62.90104Q323.84375 61.61979 323.34375 61.02604Q322.85938 60.43229 322.14062 60.43229Q321.4375 60.43229 320.96875 61.010414Q320.5 61.572914 320.5 62.80729Z" fill-rule="nonzero"/><path stroke="#fbbc04" stroke-width="4.0" stroke-linecap="butt" d="M342.0 61.916668L354.0 61.916668" fill-rule="nonzero"/><path fill="#1a1a1a" d="M369.0625 62.90104L370.1875 63.197914Q369.82812 64.58854 368.90625 65.322914Q367.98438 66.05729 366.64062 66.05729Q365.25 66.05729 364.375 65.49479Q363.5 64.93229 363.04688 63.86979Q362.59375 62.791664 362.59375 61.55729Q362.59375 60.21354 363.10938 59.21354Q363.625 58.21354 364.5625 57.697914Q365.51562 57.18229 366.65625 57.18229Q367.9375 57.18229 368.8125 57.83854Q369.70312 58.49479 370.04688 59.68229L368.92188 59.947914Q368.625 59.010414 368.04688 58.58854Q367.48438 58.15104 366.625 58.15104Q365.64062 58.15104 364.96875 58.635414Q364.3125 59.104164 364.03125 59.90104Q363.76562 60.697914 363.76562 61.55729Q363.76562 62.65104 364.07812 63.46354Q364.40625 64.27604 365.07812 64.68229Q365.75 65.08854 366.54688 65.08854Q367.5 65.08854 368.15625 64.541664Q368.82812 63.99479 369.0625 62.90104ZM371.40625 62.80729Q371.40625 61.072914 372.35938 60.24479Q373.15625 59.55729 374.3125 59.55729Q375.59375 59.55729 376.40625 60.40104Q377.23438 61.229164 377.23438 62.71354Q377.23438 63.916664 376.875 64.604164Q376.51562 65.291664 375.8125 65.68229Q375.125 66.05729 374.3125 66.05729Q373.01562 66.05729 372.20312 65.229164Q371.40625 64.385414 371.40625 62.80729ZM372.48438 62.80729Q372.48438 63.99479 373.0 64.58854Q373.53125 65.18229 374.3125 65.18229Q375.10938 65.18229 375.625 64.58854Q376.14062 63.99479 376.14062 62.77604Q376.14062 61.61979 375.60938 61.02604Q375.09375 60.43229 374.3125 60.43229Q373.53125 60.43229 373.0 61.02604Q372.48438 61.604164 372.48438 62.80729ZM378.79688 65.916664L378.79688 57.322914L379.84375 57.322914L379.84375 60.40104Q380.57812 59.55729 381.70312 59.55729Q382.40625 59.55729 382.90625 59.83854Q383.42188 60.104164 383.64062 60.58854Q383.85938 61.05729 383.85938 61.979164L383.85938 65.916664L382.8125 65.916664L382.8125 61.979164Q382.8125 61.18229 382.46875 60.822914Q382.125 60.46354 381.5 60.46354Q381.03125 60.46354 380.60938 60.71354Q380.20312 60.947914 380.01562 61.36979Q379.84375 61.77604 379.84375 62.510414L379.84375 65.916664L378.79688 65.916664ZM390.04688 63.916664L391.14062 64.041664Q390.89062 64.99479 390.1875 65.52604Q389.48438 66.05729 388.40625 66.05729Q387.04688 66.05729 386.23438 65.21354Q385.4375 64.36979 385.4375 62.854164Q385.4375 61.291664 386.25 60.43229Q387.0625 59.55729 388.34375 59.55729Q389.59375 59.55729 390.375 60.40104Q391.17188 61.24479 391.17188 62.791664Q391.17188 62.885414 391.17188 63.072914L386.53125 63.072914Q386.59375 64.104164 387.10938 64.65104Q387.625 65.18229 388.40625 65.18229Q388.98438 65.18229 389.39062 64.885414Q389.8125 64.572914 390.04688 63.916664ZM386.59375 62.21354L390.0625 62.21354Q390.0 61.416664 389.67188 61.02604Q389.15625 60.416664 388.35938 60.416664Q387.625 60.416664 387.125 60.90104Q386.64062 61.385414 386.59375 62.21354ZM392.78125 65.916664L392.78125 59.697914L393.73438 59.697914L393.73438 60.635414Q394.09375 59.979164 394.39062 59.77604Q394.70312 59.55729 395.07812 59.55729Q395.60938 59.55729 396.15625 59.885414L395.79688 60.86979Q395.40625 60.635414 395.03125 60.635414Q394.67188 60.635414 394.39062 60.854164Q394.125 61.05729 394.01562 61.43229Q393.82812 61.99479 393.82812 62.65104L393.82812 65.916664L392.78125 65.916664ZM401.04688 63.916664L402.14062 64.041664Q401.89062 64.99479 401.1875 65.52604Q400.48438 66.05729 399.40625 66.05729Q398.04688 66.05729 397.23438 65.21354Q396.4375 64.36979 396.4375 62.854164Q396.4375 61.291664 397.25 60.43229Q398.0625 59.55729 399.34375 59.55729Q400.59375 59.55729 401.375 60.40104Q402.17188 61.24479 402.17188 62.791664Q402.17188 62.885414 402.17188 63.072914L397.53125 63.072914Q397.59375 64.104164 398.10938 64.65104Q398.625 65.18229 399.40625 65.18229Q399.98438 65.18229 400.39062 64.885414Q400.8125 64.572914 401.04688 63.916664ZM397.59375 62.21354L401.0625 62.21354Q401.0 61.416664 400.67188 61.02604Q400.15625 60.416664 399.35938 60.416664Q398.625 60.416664 398.125 60.90104Q397.64062 61.385414 397.59375 62.21354ZM403.79688 65.916664L403.79688 59.697914L404.73438 59.697914L404.73438 60.572914Q405.42188 59.55729 406.71875 59.55729Q407.28125 59.55729 407.75 59.760414Q408.23438 59.96354 408.46875 60.291664Q408.70312 60.61979 408.79688 61.05729Q408.84375 61.354164 408.84375 62.08854L408.84375 65.916664L407.79688 65.916664L407.79688 62.135414Q407.79688 61.479164 407.67188 61.166664Q407.54688 60.854164 407.23438 60.666664Q406.92188 60.46354 406.5 60.46354Q405.82812 60.46354 405.32812 60.90104Q404.84375 61.322914 404.84375 62.510414L404.84375 65.916664L403.79688 65.916664ZM413.09375 64.979164L413.25 65.90104Q412.79688 65.99479 412.45312 65.99479Q411.875 65.99479 411.5625 65.822914Q411.25 65.635414 411.10938 65.33854Q410.98438 65.041664 410.98438 64.08854L410.98438 60.510414L410.21875 60.510414L410.21875 59.697914L410.98438 59.697914L410.98438 58.15104L412.03125 57.52604L412.03125 59.697914L413.09375 59.697914L413.09375 60.510414L412.03125 60.510414L412.03125 64.15104Q412.03125 64.604164 412.07812 64.729164Q412.14062 64.854164 412.26562 64.93229Q412.39062 65.010414 412.625 65.010414Q412.8125 65.010414 413.09375 64.979164Z" fill-rule="nonzero"/><path fill="#757575" d="M148.6875 37.55L148.6875 24.925L143.96875 24.925L143.96875 23.2375L155.3125 23.2375L155.3125 24.925L150.57812 24.925L150.57812 37.55L148.6875 37.55ZM156.8125 37.55L156.8125 23.2375L158.57812 23.2375L158.57812 28.3625Q159.8125 26.940624 161.6875 26.940624Q162.82812 26.940624 163.67188 27.39375Q164.53125 27.846874 164.89062 28.659374Q165.26562 29.45625 165.26562 30.971874L165.26562 37.55L163.51562 37.55L163.51562 30.971874Q163.51562 29.659374 162.9375 29.065624Q162.35938 28.45625 161.32812 28.45625Q160.54688 28.45625 159.84375 28.8625Q159.15625 29.26875 158.85938 29.971874Q158.57812 30.659374 158.57812 31.878124L158.57812 37.55L156.8125 37.55ZM166.79688 37.55L166.79688 27.175L168.375 27.175L168.375 28.753124Q168.98438 27.64375 169.5 27.3Q170.01562 26.940624 170.625 26.940624Q171.51562 26.940624 172.4375 27.503124L171.82812 29.14375Q171.1875 28.753124 170.54688 28.753124Q169.96875 28.753124 169.5 29.1125Q169.04688 29.45625 168.84375 30.065624Q168.5625 31.003124 168.5625 32.1125L168.5625 37.55L166.79688 37.55ZM180.92188 34.20625L182.73438 34.440624Q182.3125 36.01875 181.14062 36.909374Q179.98438 37.784374 178.17188 37.784374Q175.90625 37.784374 174.5625 36.39375Q173.23438 34.9875 173.23438 32.45625Q173.23438 29.83125 174.57812 28.39375Q175.92188 26.940624 178.07812 26.940624Q180.15625 26.940624 181.46875 28.3625Q182.79688 29.76875 182.79688 32.346874Q182.79688 32.503124 182.78125 32.815624L175.04688 32.815624Q175.14062 34.51875 176.01562 35.425Q176.89062 36.33125 178.1875 36.33125Q179.15625 36.33125 179.82812 35.83125Q180.51562 35.315624 180.92188 34.20625ZM175.14062 31.3625L180.9375 31.3625Q180.82812 30.065624 180.28125 29.409374Q179.4375 28.39375 178.09375 28.39375Q176.89062 28.39375 176.0625 29.20625Q175.23438 30.003124 175.14062 31.3625ZM191.59375 36.26875Q190.60938 37.096874 189.70312 37.440624Q188.79688 37.784374 187.76562 37.784374Q186.0625 37.784374 185.14062 36.95625Q184.21875 36.1125 184.21875 34.815624Q184.21875 34.05 184.5625 33.425Q184.92188 32.8 185.48438 32.425Q186.04688 32.034374 186.75 31.83125Q187.26562 31.70625 188.3125 31.565624Q190.4375 31.315624 191.4375 30.971874Q191.45312 30.6125 191.45312 30.503124Q191.45312 29.440624 190.95312 28.9875Q190.28125 28.39375 188.95312 28.39375Q187.70312 28.39375 187.10938 28.83125Q186.53125 29.26875 186.25 30.378124L184.53125 30.14375Q184.76562 29.034374 185.29688 28.3625Q185.82812 27.675 186.84375 27.315624Q187.85938 26.940624 189.20312 26.940624Q190.53125 26.940624 191.35938 27.253124Q192.1875 27.565624 192.57812 28.05Q192.96875 28.51875 193.125 29.2375Q193.21875 29.690624 193.21875 30.8625L193.21875 33.20625Q193.21875 35.659374 193.32812 36.315624Q193.4375 36.95625 193.78125 37.55L191.9375 37.55Q191.67188 37.003124 191.59375 36.26875ZM191.4375 32.346874Q190.48438 32.7375 188.5625 33.003124Q187.48438 33.159374 187.03125 33.3625Q186.59375 33.55 186.34375 33.925Q186.09375 34.3 186.09375 34.76875Q186.09375 35.471874 186.625 35.940624Q187.15625 36.409374 188.1875 36.409374Q189.20312 36.409374 189.98438 35.971874Q190.78125 35.51875 191.15625 34.753124Q191.4375 34.14375 191.4375 32.9875L191.4375 32.346874ZM202.54688 37.55L202.54688 36.2375Q201.5625 37.784374 199.64062 37.784374Q198.40625 37.784374 197.35938 37.096874Q196.32812 36.409374 195.75 35.190624Q195.1875 33.971874 195.1875 32.378124Q195.1875 30.815624 195.70312 29.55Q196.21875 28.284374 197.25 27.6125Q198.29688 26.940624 199.5625 26.940624Q200.5 26.940624 201.23438 27.346874Q201.96875 27.7375 202.4375 28.3625L202.4375 23.2375L204.17188 23.2375L204.17188 37.55L202.54688 37.55ZM196.98438 32.378124Q196.98438 34.3625 197.82812 35.346874Q198.67188 36.33125 199.8125 36.33125Q200.96875 36.33125 201.76562 35.39375Q202.57812 34.45625 202.57812 32.51875Q202.57812 30.39375 201.75 29.39375Q200.9375 28.39375 199.73438 28.39375Q198.5625 28.39375 197.76562 29.3625Q196.98438 30.315624 196.98438 32.378124ZM206.10938 34.45625L207.85938 34.175Q208.0 35.221874 208.67188 35.784374Q209.34375 36.33125 210.54688 36.33125Q211.75 36.33125 212.32812 35.846874Q212.92188 35.346874 212.92188 34.690624Q212.92188 34.096874 212.40625 33.753124Q212.04688 33.51875 210.60938 33.159374Q208.67188 32.659374 207.92188 32.315624Q207.1875 31.95625 206.79688 31.33125Q206.40625 30.690624 206.40625 29.925Q206.40625 29.2375 206.71875 28.64375Q207.04688 28.05 207.59375 27.659374Q208.0 27.3625 208.70312 27.159374Q209.42188 26.940624 210.23438 26.940624Q211.45312 26.940624 212.375 27.3Q213.29688 27.64375 213.73438 28.253124Q214.17188 28.846874 214.34375 29.846874L212.625 30.08125Q212.5 29.284374 211.9375 28.846874Q211.375 28.39375 210.35938 28.39375Q209.14062 28.39375 208.625 28.8Q208.10938 29.190624 208.10938 29.721874Q208.10938 30.065624 208.32812 30.346874Q208.53125 30.628124 209.0 30.815624Q209.26562 30.909374 210.54688 31.253124Q212.42188 31.753124 213.15625 32.08125Q213.89062 32.39375 214.3125 33.003124Q214.73438 33.596874 214.73438 34.503124Q214.73438 35.378124 214.21875 36.159374Q213.70312 36.940624 212.73438 37.3625Q211.76562 37.784374 210.54688 37.784374Q208.53125 37.784374 207.46875 36.940624Q206.40625 36.096874 206.10938 34.45625ZM222.8125 41.51875L222.8125 27.175L224.42188 27.175L224.42188 28.51875Q224.98438 27.7375 225.6875 27.346874Q226.40625 26.940624 227.42188 26.940624Q228.75 26.940624 229.76562 27.628124Q230.78125 28.315624 231.29688 29.565624Q231.82812 30.8 231.82812 32.284374Q231.82812 33.878124 231.25 35.159374Q230.6875 36.425 229.59375 37.1125Q228.5 37.784374 227.29688 37.784374Q226.42188 37.784374 225.71875 37.409374Q225.03125 37.034374 224.57812 36.471874L224.57812 41.51875L222.8125 41.51875ZM224.40625 32.425Q224.40625 34.425 225.21875 35.378124Q226.03125 36.33125 227.1875 36.33125Q228.35938 36.33125 229.1875 35.346874Q230.03125 34.3625 230.03125 32.26875Q230.03125 30.3 229.20312 29.315624Q228.39062 28.315624 227.26562 28.315624Q226.14062 28.315624 225.26562 29.378124Q224.40625 30.425 224.40625 32.425ZM240.92188 34.20625L242.73438 34.440624Q242.3125 36.01875 241.14062 36.909374Q239.98438 37.784374 238.17188 37.784374Q235.90625 37.784374 234.5625 36.39375Q233.23438 34.9875 233.23438 32.45625Q233.23438 29.83125 234.57812 28.39375Q235.92188 26.940624 238.07812 26.940624Q240.15625 26.940624 241.46875 28.3625Q242.79688 29.76875 242.79688 32.346874Q242.79688 32.503124 242.78125 32.815624L235.04688 32.815624Q235.14062 34.51875 236.01562 35.425Q236.89062 36.33125 238.1875 36.33125Q239.15625 36.33125 239.82812 35.83125Q240.51562 35.315624 240.92188 34.20625ZM235.14062 31.3625L240.9375 31.3625Q240.82812 30.065624 240.28125 29.409374Q239.4375 28.39375 238.09375 28.39375Q236.89062 28.39375 236.0625 29.20625Q235.23438 30.003124 235.14062 31.3625ZM244.79688 37.55L244.79688 27.175L246.375 27.175L246.375 28.753124Q246.98438 27.64375 247.5 27.3Q248.01562 26.940624 248.625 26.940624Q249.51562 26.940624 250.4375 27.503124L249.82812 29.14375Q249.1875 28.753124 248.54688 28.753124Q247.96875 28.753124 247.5 29.1125Q247.04688 29.45625 246.84375 30.065624Q246.5625 31.003124 246.5625 32.1125L246.5625 37.55L244.79688 37.55ZM259.4375 37.55L257.8125 37.55L257.8125 23.2375L259.5625 23.2375L259.5625 28.346874Q260.6875 26.940624 262.40625 26.940624Q263.35938 26.940624 264.21875 27.33125Q265.07812 27.721874 265.625 28.425Q266.17188 29.1125 266.48438 30.096874Q266.79688 31.08125 266.79688 32.20625Q266.79688 34.878124 265.48438 36.33125Q264.17188 37.784374 262.32812 37.784374Q260.48438 37.784374 259.4375 36.253124L259.4375 37.55ZM259.42188 32.284374Q259.42188 34.14375 259.92188 34.9875Q260.76562 36.33125 262.17188 36.33125Q263.32812 36.33125 264.15625 35.33125Q265.0 34.33125 265.0 32.346874Q265.0 30.315624 264.1875 29.3625Q263.39062 28.39375 262.25 28.39375Q261.09375 28.39375 260.25 29.39375Q259.42188 30.39375 259.42188 32.284374ZM268.78125 37.55L268.78125 23.2375L270.53125 23.2375L270.53125 37.55L268.78125 37.55ZM272.17188 32.3625Q272.17188 29.4875 273.76562 28.096874Q275.10938 26.940624 277.03125 26.940624Q279.17188 26.940624 280.51562 28.346874Q281.875 29.753124 281.875 32.221874Q281.875 34.221874 281.28125 35.378124Q280.6875 36.51875 279.53125 37.159374Q278.39062 37.784374 277.03125 37.784374Q274.84375 37.784374 273.5 36.39375Q272.17188 34.9875 272.17188 32.3625ZM273.96875 32.3625Q273.96875 34.3625 274.82812 35.346874Q275.70312 36.33125 277.03125 36.33125Q278.34375 36.33125 279.20312 35.346874Q280.07812 34.346874 280.07812 32.3Q280.07812 30.378124 279.20312 29.39375Q278.32812 28.39375 277.03125 28.39375Q275.70312 28.39375 274.82812 29.39375Q273.96875 30.378124 273.96875 32.3625ZM290.59375 33.753124L292.3125 33.971874Q292.03125 35.76875 290.85938 36.784374Q289.70312 37.784374 288.0 37.784374Q285.875 37.784374 284.57812 36.39375Q283.28125 35.003124 283.28125 32.409374Q283.28125 30.721874 283.82812 29.471874Q284.39062 28.20625 285.53125 27.58125Q286.67188 26.940624 288.01562 26.940624Q289.70312 26.940624 290.76562 27.8Q291.84375 28.659374 292.15625 30.221874L290.4375 30.4875Q290.20312 29.440624 289.57812 28.925Q288.95312 28.39375 288.07812 28.39375Q286.75 28.39375 285.92188 29.346874Q285.09375 30.3 285.09375 32.346874Q285.09375 34.440624 285.89062 35.39375Q286.6875 36.33125 287.98438 36.33125Q289.01562 36.33125 289.70312 35.70625Q290.40625 35.065624 290.59375 33.753124ZM293.82812 37.55L293.82812 23.2375L295.59375 23.2375L295.59375 31.39375L299.75 27.175L302.01562 27.175L298.0625 31.01875L302.42188 37.55L300.25 37.55L296.82812 32.253124L295.59375 33.440624L295.59375 37.55L293.82812 37.55ZM312.70312 37.55L308.75 27.175L310.60938 27.175L312.84375 33.39375Q313.20312 34.39375 313.5 35.471874Q313.73438 34.659374 314.15625 33.503124L316.45312 27.175L318.26562 27.175L314.34375 37.55L312.70312 37.55ZM318.10938 34.45625L319.85938 34.175Q320.0 35.221874 320.67188 35.784374Q321.34375 36.33125 322.54688 36.33125Q323.75 36.33125 324.32812 35.846874Q324.92188 35.346874 324.92188 34.690624Q324.92188 34.096874 324.40625 33.753124Q324.04688 33.51875 322.60938 33.159374Q320.67188 32.659374 319.92188 32.315624Q319.1875 31.95625 318.79688 31.33125Q318.40625 30.690624 318.40625 29.925Q318.40625 29.2375 318.71875 28.64375Q319.04688 28.05 319.59375 27.659374Q320.0 27.3625 320.70312 27.159374Q321.42188 26.940624 322.23438 26.940624Q323.45312 26.940624 324.375 27.3Q325.29688 27.64375 325.73438 28.253124Q326.17188 28.846874 326.34375 29.846874L324.625 30.08125Q324.5 29.284374 323.9375 28.846874Q323.375 28.39375 322.35938 28.39375Q321.14062 28.39375 320.625 28.8Q320.10938 29.190624 320.10938 29.721874Q320.10938 30.065624 320.32812 30.346874Q320.53125 30.628124 321.0 30.815624Q321.26562 30.909374 322.54688 31.253124Q324.42188 31.753124 325.15625 32.08125Q325.89062 32.39375 326.3125 33.003124Q326.73438 33.596874 326.73438 34.503124Q326.73438 35.378124 326.21875 36.159374Q325.70312 36.940624 324.73438 37.3625Q323.76562 37.784374 322.54688 37.784374Q320.53125 37.784374 319.46875 36.940624Q318.40625 36.096874 318.10938 34.45625ZM329.3125 37.55L329.3125 35.55L331.3125 35.55L331.3125 37.55L329.3125 37.55ZM339.46875 37.55L344.96875 23.2375L347.01562 23.2375L352.875 37.55L350.71875 37.55L349.04688 33.20625L343.0625 33.20625L341.48438 37.55L339.46875 37.55ZM343.60938 31.675L348.45312 31.675L346.96875 27.70625Q346.28125 25.89375 345.95312 24.7375Q345.67188 26.1125 345.17188 27.471874L343.60938 31.675ZM356.70312 37.55L352.75 27.175L354.60938 27.175L356.84375 33.39375Q357.20312 34.39375 357.5 35.471874Q357.73438 34.659374 358.15625 33.503124L360.45312 27.175L362.26562 27.175L358.34375 37.55L356.70312 37.55ZM369.92188 34.20625L371.73438 34.440624Q371.3125 36.01875 370.14062 36.909374Q368.98438 37.784374 367.17188 37.784374Q364.90625 37.784374 363.5625 36.39375Q362.23438 34.9875 362.23438 32.45625Q362.23438 29.83125 363.57812 28.39375Q364.92188 26.940624 367.07812 26.940624Q369.15625 26.940624 370.46875 28.3625Q371.79688 29.76875 371.79688 32.346874Q371.79688 32.503124 371.78125 32.815624L364.04688 32.815624Q364.14062 34.51875 365.01562 35.425Q365.89062 36.33125 367.1875 36.33125Q368.15625 36.33125 368.82812 35.83125Q369.51562 35.315624 369.92188 34.20625ZM364.14062 31.3625L369.9375 31.3625Q369.82812 30.065624 369.28125 29.409374Q368.4375 28.39375 367.09375 28.39375Q365.89062 28.39375 365.0625 29.20625Q364.23438 30.003124 364.14062 31.3625ZM373.79688 37.55L373.79688 27.175L375.375 27.175L375.375 28.753124Q375.98438 27.64375 376.5 27.3Q377.01562 26.940624 377.625 26.940624Q378.51562 26.940624 379.4375 27.503124L378.82812 29.14375Q378.1875 28.753124 377.54688 28.753124Q376.96875 28.753124 376.5 29.1125Q376.04688 29.45625 375.84375 30.065624Q375.5625 31.003124 375.5625 32.1125L375.5625 37.55L373.79688 37.55ZM387.59375 36.26875Q386.60938 37.096874 385.70312 37.440624Q384.79688 37.784374 383.76562 37.784374Q382.0625 37.784374 381.14062 36.95625Q380.21875 36.1125 380.21875 34.815624Q380.21875 34.05 380.5625 33.425Q380.92188 32.8 381.48438 32.425Q382.04688 32.034374 382.75 31.83125Q383.26562 31.70625 384.3125 31.565624Q386.4375 31.315624 387.4375 30.971874Q387.45312 30.6125 387.45312 30.503124Q387.45312 29.440624 386.95312 28.9875Q386.28125 28.39375 384.95312 28.39375Q383.70312 28.39375 383.10938 28.83125Q382.53125 29.26875 382.25 30.378124L380.53125 30.14375Q380.76562 29.034374 381.29688 28.3625Q381.82812 27.675 382.84375 27.315624Q383.85938 26.940624 385.20312 26.940624Q386.53125 26.940624 387.35938 27.253124Q388.1875 27.565624 388.57812 28.05Q388.96875 28.51875 389.125 29.2375Q389.21875 29.690624 389.21875 30.8625L389.21875 33.20625Q389.21875 35.659374 389.32812 36.315624Q389.4375 36.95625 389.78125 37.55L387.9375 37.55Q387.67188 37.003124 387.59375 36.26875ZM387.4375 32.346874Q386.48438 32.7375 384.5625 33.003124Q383.48438 33.159374 383.03125 33.3625Q382.59375 33.55 382.34375 33.925Q382.09375 34.3 382.09375 34.76875Q382.09375 35.471874 382.625 35.940624Q383.15625 36.409374 384.1875 36.409374Q385.20312 36.409374 385.98438 35.971874Q386.78125 35.51875 387.15625 34.753124Q387.4375 34.14375 387.4375 32.9875L387.4375 32.346874ZM391.5 38.409374L393.20312 38.659374Q393.3125 39.45625 393.79688 39.815624Q394.45312 40.3 395.59375 40.3Q396.8125 40.3 397.46875 39.815624Q398.14062 39.33125 398.375 38.45625Q398.51562 37.909374 398.5 36.190624Q397.34375 37.55 395.625 37.55Q393.48438 37.55 392.3125 36.003124Q391.14062 34.45625 391.14062 32.3Q391.14062 30.815624 391.67188 29.565624Q392.21875 28.315624 393.23438 27.628124Q394.26562 26.940624 395.64062 26.940624Q397.46875 26.940624 398.67188 28.425L398.67188 27.175L400.28125 27.175L400.28125 36.14375Q400.28125 38.565624 399.78125 39.565624Q399.29688 40.58125 398.21875 41.159374Q397.15625 41.753124 395.59375 41.753124Q393.75 41.753124 392.59375 40.925Q391.45312 40.096874 391.5 38.409374ZM392.95312 32.175Q392.95312 34.221874 393.76562 35.159374Q394.57812 36.096874 395.79688 36.096874Q397.0 36.096874 397.8125 35.159374Q398.64062 34.221874 398.64062 32.2375Q398.64062 30.33125 397.79688 29.3625Q396.95312 28.39375 395.76562 28.39375Q394.59375 28.39375 393.76562 29.346874Q392.95312 30.3 392.95312 32.175ZM409.92188 34.20625L411.73438 34.440624Q411.3125 36.01875 410.14062 36.909374Q408.98438 37.784374 407.17188 37.784374Q404.90625 37.784374 403.5625 36.39375Q402.23438 34.9875 402.23438 32.45625Q402.23438 29.83125 403.57812 28.39375Q404.92188 26.940624 407.07812 26.940624Q409.15625 26.940624 410.46875 28.3625Q411.79688 29.76875 411.79688 32.346874Q411.79688 32.503124 411.78125 32.815624L404.04688 32.815624Q404.14062 34.51875 405.01562 35.425Q405.89062 36.33125 407.1875 36.33125Q408.15625 36.33125 408.82812 35.83125Q409.51562 35.315624 409.92188 34.20625ZM404.14062 31.3625L409.9375 31.3625Q409.82812 30.065624 409.28125 29.409374Q408.4375 28.39375 407.09375 28.39375Q405.89062 28.39375 405.0625 29.20625Q404.23438 30.003124 404.14062 31.3625ZM420.14062 37.55L420.14062 23.2375L429.79688 23.2375L429.79688 24.925L422.03125 24.925L422.03125 29.3625L428.75 29.3625L428.75 31.05L422.03125 31.05L422.03125 37.55L420.14062 37.55ZM432.04688 37.55L432.04688 23.2375L437.4375 23.2375Q438.875 23.2375 439.625 23.3625Q440.67188 23.55 441.39062 24.05Q442.10938 24.534374 442.53125 25.425Q442.96875 26.315624 442.96875 27.378124Q442.96875 29.20625 441.79688 30.471874Q440.64062 31.721874 437.60938 31.721874L433.9375 31.721874L433.9375 37.55L432.04688 37.55ZM433.9375 30.034374L437.64062 30.034374Q439.46875 30.034374 440.23438 29.3625Q441.01562 28.675 441.01562 27.425Q441.01562 26.534374 440.5625 25.89375Q440.10938 25.253124 439.375 25.05Q438.89062 24.925 437.59375 24.925L433.9375 24.925L433.9375 30.034374ZM444.40625 32.95625L446.1875 32.8Q446.3125 33.8625 446.76562 34.55Q447.23438 35.2375 448.20312 35.675Q449.1875 36.096874 450.42188 36.096874Q451.5 36.096874 452.32812 35.784374Q453.15625 35.45625 453.5625 34.89375Q453.96875 34.33125 453.96875 33.659374Q453.96875 32.9875 453.57812 32.4875Q453.1875 31.9875 452.29688 31.64375Q451.71875 31.409374 449.73438 30.940624Q447.76562 30.471874 446.98438 30.05Q445.95312 29.51875 445.45312 28.721874Q444.95312 27.925 444.95312 26.940624Q444.95312 25.846874 445.5625 24.909374Q446.17188 23.971874 447.35938 23.4875Q448.54688 22.9875 449.98438 22.9875Q451.57812 22.9875 452.79688 23.503124Q454.01562 24.01875 454.65625 25.01875Q455.3125 26.003124 455.35938 27.26875L453.54688 27.409374Q453.40625 26.05 452.5625 25.3625Q451.71875 24.659374 450.0625 24.659374Q448.34375 24.659374 447.54688 25.3Q446.76562 25.925 446.76562 26.8Q446.76562 27.58125 447.32812 28.08125Q447.875 28.58125 450.1875 29.096874Q452.5 29.6125 453.35938 30.003124Q454.60938 30.58125 455.20312 31.471874Q455.79688 32.346874 455.79688 33.503124Q455.79688 34.64375 455.14062 35.659374Q454.48438 36.675 453.25 37.2375Q452.03125 37.8 450.5 37.8Q448.5625 37.8 447.25 37.2375Q445.9375 36.659374 445.1875 35.51875Q444.4375 34.378124 444.40625 32.95625Z" fill-rule="nonzero"/></svg>